<svg version="1.2" xmlns="http://www.w3.org/2000/svg" viewBox="0 0 212 197" width="212" height="197"><style>.a{fill:#32374d}.b{fill:#2e716e}.c{fill:#3a967e}.d{fill:#40dfa7}.e{fill:#28555e}.f{fill:#338f78}.g{fill:#3dba8e}.h{fill:#fff}</style><path fill-rule="evenodd" class="a" d="m69.8 0c1.2 0 3.9 0.9 6 2.1 2 1.2 4.4 2.7 5.2 3.5 0.8 0.8 1.7 1.2 2 0.9 0.3-0.2 3.3 2.4 6.8 5.8 3.4 3.4 6.8 7.3 7.5 8.7 1 1.9 2 2.5 4.2 2.3 1.7 0 5.9-0.1 9.5-0.2 3.6 0 8.8 0 11.5 0.1 2.8 0 5.9-0.4 7-1 1.6-0.9 3.2-0.7 7.5 0.9 3 1.2 8.2 2.8 11.5 3.6 4.7 1.2 6.8 2.3 9.5 5.4 2.9 3.2 4.2 3.8 7.5 3.9 2.5 0 5-0.7 6.8-2 2.2-1.6 2.7-2.8 2.7-6 0-2.9-0.7-4.8-2.7-7.1-1.6-1.7-4.9-3.8-7.6-4.7-2.6-1-4.7-2-4.7-2.4 0-0.5 1.5-0.8 3.3-0.8 1.7 0 6.8 1.7 11.2 3.9 4.4 2.1 9.8 5.3 12 7.1 2.2 1.8 4.9 4.6 6.1 6.4 1.1 1.7 3.5 3.7 5.2 4.4 3.1 1.2 3.2 1.3 2.6 6-0.6 4.1-0.4 5 1.7 7 1.3 1.2 3 2.2 3.7 2.2 0.6 0 1.5 1 1.9 2.2 0.4 1.3 0.8 2.8 0.9 3.3 0.2 0.5 0.6 2.1 0.9 3.5 0.3 1.4 0.6 6.8 0.7 12 0.1 5.2-0.1 10.1-0.5 10.8-0.5 0.9-1.5 0.6-3.7-1.1-3-2.1-3.4-2.2-11.3-0.9-4.5 0.6-9.5 1.2-11.2 1.2-1.7 0-4.3-0.7-6-1.5-1.7-0.9-4.1-1.5-5.5-1.5-1.4 0-3.5 1-4.8 2.3-1.3 1.2-2.2 3.4-2.2 4.9 0 1.6 0.7 4.1 1.5 5.8 0.8 1.7 1.2 3 0.8 3-0.5-0.1-0.1 0.6 0.7 1.5 0.8 0.8 1.2 1.9 0.8 2.3-0.5 0.4-0.4 1.2 0.2 1.7 0.5 0.5 1.2 5.3 1.6 10.5 0.4 5.7 0.2 13.1-0.6 18.5-0.6 4.9-1.7 9.6-2.3 10.3-0.7 0.7-0.9 1.5-0.4 1.7 0.4 0.3-1 3.8-3.1 7.7-2.1 4-4.5 8.4-5.3 9.7-0.8 1.3-2.5 3.7-3.9 5.4-1.4 1.7-5 5.6-8 8.7-3 3.2-7.7 7.2-10.5 9.1-2.7 1.9-7.2 4.5-10 5.8-2.7 1.3-5.9 2.8-7 3.3-1.1 0.5-3.1 1-4.5 1.1-1.4 0.2-3.2 0.7-4 1.1-0.8 0.5-2.8 1.1-4.5 1.3-1.7 0.2-6.2 0.5-10 0.7-3.8 0.2-7.4 0.6-8 0.9-0.5 0.3-3.5 0-6.5-0.8-3-0.8-5.7-1.2-6-1-0.3 0.2-3.4-0.3-7-1.1-3.6-0.8-6.9-1.9-7.5-2.5-0.5-0.5-1.8-0.9-2.7-0.9-1 0-5.3-1.8-9.5-4.1-4.3-2.2-9.3-5.1-11-6.5-1.8-1.3-3.5-2.4-3.8-2.4-0.3 0-2.8-2.1-5.6-4.8-2.8-2.6-7.3-7.4-9.9-10.7-2.6-3.3-6.4-9-8.4-12.8-2-3.7-3.4-6.7-3.1-6.7 0.3 0-0.2-1.1-1-2.5-0.8-1.4-1.5-2.8-1.5-3.3 0-0.4-0.5-2.3-0.9-4.2-0.5-1.9-1.2-5.9-1.5-8.8-0.3-2.8-1-5.4-1.6-5.7-0.5-0.3-1-2.6-1-5.2 0-2.7 0.4-5.3 0.9-5.8 0.5-0.5 1.2-3.5 1.4-6.5 0.3-3 1.1-6.8 1.8-8.5 0.7-1.7 1.3-3.5 1.3-4.1 0.1-0.6 0.7-1.8 1.4-2.7 0.6-1 1-2.3 0.8-2.9-0.2-0.7 0.4-2.4 1.5-3.8 1-1.4 1.9-3.2 1.9-4 0-0.8 1.3-3.1 2.7-5 1.5-1.9 6-6.6 10.1-10.5 4-3.9 8.8-7.8 10.5-8.7 1.8-0.9 5.2-2.7 7.7-3.9 2.5-1.2 5.2-2.3 6-2.4 0.8-0.1 4-0.9 7-1.8 3.3-1 7.9-1.4 11.5-1.2 3.3 0.2 6.1 0.9 6.3 1.4 0.1 0.6 3 2.6 6.4 4.3 3.4 1.8 7.8 5.2 9.7 7.5 2.6 3 4 4 4.9 3.3 0.6-0.6 1.1-2.2 0.9-3.8-0.2-1.5-0.6-3.3-1-4-0.4-0.6-0.5-1.7-0.2-2.2 0.3-0.5 0.1-1.2-0.5-1.5-0.5-0.3-1-1.2-1-2 0-0.8-1.1-3.9-2.4-6.8-1.3-2.8-3.1-5.8-4-6.5-0.9-0.6-1.4-1.6-1.1-2.2 0.3-0.6-1.4-2.6-3.7-4.5-3.8-3.2-4.8-3.6-8.8-3.2-3.2 0.3-5.3-0.2-7.2-1.5-1.6-1-3.2-2.6-3.7-3.5-0.7-1.2-0.6-3.2 0-5.8 0.6-2.2 2.3-5 3.7-6.2 1.5-1.2 3.7-2.2 5-2.3zm38.7 31.6c-2.2 0.3-4.3 0.7-4.7 1-0.5 0.2-0.4 1.2 0.1 2.2 0.5 0.9 1.6 5.1 2.4 9.2 0.9 4.1 1.4 7.8 1.1 8.3-0.2 0.4-0.2 1.4 0.1 2.2 0.4 1.3 0.9 1.3 4 0 1.9-0.8 4.8-1.5 6.5-1.5 2.2 0 3.1-0.6 3.5-2 0.5-1.9 0.6-1.9 4.8 0.5 2.3 1.4 5.3 2.5 6.7 2.5 1.4 0 3.5-1 4.7-2.2 1.3-1.3 2.3-3.6 2.3-5.3 0-1.8-0.8-3.9-2.2-5.2-1.3-1.3-2.6-2.3-3-2.3-0.5 0-3.6-1.7-7-3.7-3.5-2.1-8.2-4-10.6-4.4-2.4-0.3-4.4-0.4-4.5-0.2-0.1 0.1-2 0.6-4.2 0.9zm44.5 13.4c1.1 0 2-0.5 2-1 0-0.5-0.9-1-2-1-1.1 0-2 0.5-2 1 0 0.5 0.9 1 2 1z"/><path class="b" d="m203.1 42.8c-0.1 0.6-2.2 2.4-4.8 3.9-2.7 1.5-6.9 3.3-9.5 4l-4.8 1.3c9.3 10.1 12 13.7 12 14.5 0 0.8-0.2 2.2-0.5 3-0.3 0.8-1.6 1.5-3 1.5-1.7 0-4.3-1.8-8.3-5.7-3.1-3.2-8.1-7.7-11-10-4-3.3-5.3-3.9-5.7-2.8-0.3 0.8-1.7 2.1-3.2 2.9-1.6 0.8-4.5 1.7-6.5 2-3.4 0.5-3.8 0.4-4.2-1.6-0.3-1.9-0.4-1.8-0.5 0.5-0.1 2.1-0.7 2.8-2.8 3.3-1.9 0.4-3.1 0.2-3.8-0.7-0.6-0.8-2.3-1.4-4-1.5-1.6-0.1-4.7-1-6.8-2-2-1-4-1.6-4.2-1.1-0.3 0.4 0.2 2.1 1 3.7 0.8 1.7 3.4 4.6 5.8 6.5 2.3 1.9 4.6 3.5 5.2 3.5 0.6 0 1.7 0.6 2.5 1.4 0.8 0.7 3.5 2 6 2.9 2.5 0.9 8.3 2.3 13 3.1 4.7 0.8 11.4 1.2 15 1 3.6-0.2 8.8-0.8 11.5-1.4 2.8-0.5 7.7-1.4 11-2.1 3.3-0.6 6.6-1.6 7.3-2.3 0.9-0.8 1.1-2.6 0.6-6.1-0.3-2.7-1.2-7-1.9-9.5-0.7-2.5-2.2-6.5-3.3-9-1.1-2.5-2.1-3.9-2.1-3.2z"/><path class="c" d="m195 38.2c-2.5 1.1-8.5 2.8-13.3 3.7l-8.9 1.6c9.1 7.4 12.5 9.5 13.5 9.5 0.9 0 4.5-1.3 8-2.8 3.4-1.6 7-3.8 8-4.8 1.3-1.3 1.6-2.6 1.1-4.4-0.3-1.4-1.2-3.1-1.8-3.8-0.6-0.7-1.3-1.2-1.6-1.2-0.3 0.1-2.5 1.1-5 2.2zm-28.1 14.4c-0.8 0.9-2.5 2.2-3.9 2.9-1.4 0.7-4.1 1.4-6 1.6-1.9 0.2-4 1.1-4.6 1.9-1 1.2-0.3 1.9 4 3.9 3.6 1.8 6.7 2.5 10.6 2.4 3.1-0.1 7.1-0.9 9.2-2 3.1-1.5 3.5-2 2.5-3.2-0.6-0.7-3.3-3.1-5.8-5.2-4.2-3.5-4.8-3.7-6-2.3z"/><path class="d" d="m148.5 10.2c-2.8 0.5-5.7 1.1-6.5 1.5-0.8 0.3-1.7 0.7-2 0.8-0.3 0-2 0.9-3.8 1.8-2.7 1.4-3 1.9-2 3.3 0.7 0.9 4.2 2.9 7.8 4.6 5.2 2.4 7.8 3 13 2.9 5.3 0 6.9 0.4 8.8 2.2 1.2 1.2 2.2 2.8 2.2 3.5 0 0.6-0.9 2.1-2 3.2l-2 2c11.1 7.1 11.9 7.3 17 6.7 3-0.4 8-1.4 11-2.3 3-0.9 6.5-2.2 7.7-3 1.3-0.8 2.3-2.1 2.3-2.9 0-0.8-3.3-4.8-7.3-8.8-4.9-4.9-9.1-8.2-13.2-10.1-3.3-1.5-6.9-3.2-8-3.7-1.1-0.6-3.6-1.2-5.5-1.4-1.9-0.2-5.5-0.5-8-0.8-2.5-0.2-6.8 0-9.5 0.5zm-28.2 25.7c-0.2 0.9 0.4 3.6 1.2 6.1 0.9 2.5 2.8 6.2 4.3 8.4 1.5 2.1 4.3 4.5 6.2 5.3 1.9 0.8 4.6 1.9 6 2.3 1.4 0.5 3.5 0.6 4.7 0.4 1.9-0.3 2.2-0.9 1.7-3.1-0.3-1.6-1.2-4.7-2-7q-1.4-4.3-3.2-4.3c-0.9 0-4-0.8-6.7-1.7-2.8-1-6.5-3.2-8.4-4.9-2.7-2.5-3.5-2.8-3.8-1.5zm32.4 7.8c-2 0.2-2.4 0.6-1.7 1.6 0.6 0.6 1.4 3.7 1.8 6.7l0.7 5.5c5.8-0.4 8.8-1.2 10.5-2 1.7-0.8 3.2-2 3.5-2.5 0.3-0.5-0.1-1.6-0.8-2.3-0.6-0.7-2.4-2-4-3-1.5-0.9-3.7-2.3-5-3-1.2-0.7-3.4-1.2-5-1z"/><path class="e" d="m121.9 63.5c-0.8 0.9-2.3 1.6-3.3 1.5-1.1 0-2.1 0.5-2.3 1-0.2 0.5 0.9 1.4 2.4 1.8 1.6 0.5 4.4 2.6 6.3 4.7 1.9 2 4.2 4.5 5 5.4 0.9 0.9 2.9 4.3 4.4 7.6 1.6 3.3 3.1 8.5 3.4 11.5 0.3 3 0.5 9.1 0.4 13.5-0.1 4.4-0.9 10.7-1.9 14-0.9 3.3-2.5 7.2-3.5 8.8-1 1.5-2.2 2.5-2.8 2.2-0.6-0.3-1.2-0.1-1.5 0.5-0.3 0.6-1.6 0.7-3.1 0.2-2.1-0.6-2.6-0.3-3 1.5-0.3 1.7-1.1 2.3-2.9 2.3-1.5 0-3.1 0.9-4 2.2-0.9 1.6-1.9 2.1-3 1.5-0.9-0.4-1.7-0.2-2 0.8-0.3 0.9-2.2 1.7-4.5 2-2.2 0.3-4.3 0.5-4.8 0.6-0.4 0-1.6 0.8-2.7 1.8-1.1 0.9-3.8 2.9-6 4.3-2.2 1.5-6.3 3.8-9 5.3-3.4 1.7-6 2.4-8 2.1-1.8-0.3-4.7 0.3-7 1.4-2.5 1.1-4.6 1.5-5.5 1-0.8-0.5-5-1.6-9.3-2.4-5.5-1.2-8.4-1.3-10.2-0.6-1.4 0.6-2.6 1.5-2.8 2.1-0.1 0.9-0.8 0.9-2.5 0-1.2-0.6-2.4-0.8-2.7-0.4-0.2 0.5 2.4 2.9 5.8 5.4 3.4 2.5 8.2 5.5 10.7 6.6 2.5 1.1 7.6 3.1 11.5 4.3 5.2 1.6 9.4 2.2 16.5 2.1 6.7 0 11.6-0.6 16.5-2.1 3.8-1.1 9.4-2.7 12.2-3.5 2.9-0.8 5.5-1.8 5.7-2.3 0.2-0.4 2.5-1.6 5.2-2.7 2.9-1.2 6.7-3.9 9.4-6.8 2.5-2.6 6-7.6 7.9-11 1.8-3.4 4.7-8 6.5-10.3 1.7-2.2 3.9-6.5 4.8-9.5 0.9-3 2.4-8.1 3.2-11.4 0.8-3.5 1.1-6.4 0.6-7-0.5-0.5-1.2-5-1.6-10-0.4-5.2-1.4-10.5-2.4-12.5-1-1.9-2-4.8-2.4-6.5-0.4-1.7-1.8-3.9-3.2-5-1.5-1.1-5-4.3-7.8-7-2.8-2.8-5.9-6.2-6.9-7.8-0.9-1.5-2.3-2.7-3.1-2.7-0.8 0-2 0.7-2.7 1.5z"/><path class="b" d="m129.6 76.8c-0.3 0.4 0.3 2.3 1.3 4.2 1 1.9 2.1 5.5 2.5 8 0.4 3.3 0.2 4.9-0.9 6-0.8 0.8-2.2 4.4-3.1 8-0.8 3.6-2.7 8.7-4.2 11.4-1.5 2.7-3.6 5.2-4.7 5.6-1.1 0.5-4.5 1.1-7.5 1.4-3 0.4-6.2 0.8-7 1-0.8 0.2-3.2 1-5.2 2-2.1 0.9-4.4 1.6-5 1.6-0.7-0.1-3.3 2.1-5.8 4.8-2.5 2.6-4.9 5.6-5.5 6.6-0.7 1.3-2.4 1.9-6 2.1-2.8 0.1-5.1 0.7-5.2 1.3-0.2 0.7-1 1-1.8 0.7-0.8-0.3-2.2 0.1-3 0.8-0.9 0.6-1.6 0.8-1.6 0.2 0-0.6-0.5-0.3-1.2 0.6-0.7 0.8-2.1 1.8-3.2 2.2-1.1 0.4-2.6 0.3-3.2-0.3-0.7-0.5-1.7-0.8-2.3-0.5-0.5 0.3-1 1.2-1 2 0 1-0.7 1.4-2.2 1.1-1.3-0.3-3.3 0.2-4.5 1-1.3 0.8-2.3 2.1-2.3 2.9 0 1.1-0.7 1.3-2.2 0.9-1.3-0.3-5.2-2-8.8-3.7-3.6-1.7-9-5.5-12-8.4-3-2.9-5.8-5.2-6.2-5.3-0.5 0-0.1 1.7 0.8 3.8 0.9 2 3.6 6.6 5.9 10.2 2.4 3.6 6.7 8.8 9.7 11.5 2.9 2.8 8.1 6.7 11.6 8.8 5.9 3.5 6.4 3.6 9 2.3 1.5-0.8 3.8-2 5.2-2.6 1.4-0.7 4.8-1.5 7.5-2 2.8-0.4 6.9-1.7 9.3-2.9 2.3-1.1 5.2-2.1 6.5-2.1 1.2 0 3.6-1.3 5.2-3 2.3-2.3 3.9-3 6.8-3 2 0 6.5-1.3 10-2.9 3.4-1.6 9.3-4.2 13.2-5.7 4.8-2 8.3-4.3 11.2-7.4 2.4-2.5 4.9-5.6 5.6-7 0.8-1.4 2.1-5 3-8 0.9-3 1.9-8.4 2.3-12 0.4-3.6 0.7-8.5 0.6-11-0.1-2.5-1-6.7-1.9-9.5-0.9-2.7-3-7.4-4.7-10.4-1.7-3-3.4-5.5-3.7-5.7-0.4-0.2-0.9 0-1.3 0.4z"/><path class="f" d="m92.1 66.5c0.3 0.5 1.3 2.5 2.4 4.4 1.1 1.8 4.6 7.8 7.8 13.2 3.1 5.4 5.7 10.6 5.7 11.4 0 0.8-3.7 5.2-8.2 9.8-4.6 4.5-11 9.8-14.3 11.7-3.3 1.9-8.7 4.5-12 5.6-3.3 1.2-9.4 2.9-13.5 3.8-4.5 0.9-10.5 1.4-15 1.1-4.1-0.2-9.7-0.9-12.5-1.6-2.7-0.6-7.2-2.3-10-3.6-2.7-1.4-6-3.4-7.3-4.6-2.2-2.1-2.3-2.1-2.2-0.2 0 1.1 0.7 4.9 1.6 8.5 0.9 3.6 2.5 8.1 3.6 10 1 1.9 5.6 6.3 10.1 9.7 4.5 3.5 8.8 6.3 9.5 6.3 0.6 0 1.2 0.3 1.2 0.8 0 0.4 1.9 1.2 4.2 1.9 2.4 0.7 6.3 1.5 8.8 1.9 2.8 0.4 7.3 0 12-1 4.8-1 9.5-2.9 13-5.1 3.7-2.3 6.4-5.1 8.2-8.3 1.5-2.6 2.8-5.3 2.8-5.9 0-0.7 1.2-2.9 2.8-4.9 1.8-2.3 4.1-3.9 6.7-4.6 2.2-0.7 4.5-1.5 5-2 0.6-0.4 2.4-0.8 4-0.8 1.7 0 3.9 0 5 0.1 1.1 0 4.2-0.6 6.9-1.3 3-0.8 5.5-2.2 6.6-3.8 1-1.4 2.7-5.3 3.9-8.7 1.2-3.5 2.1-7.2 2.1-8.3 0-1.1 0.9-3.2 2.1-4.7 1.6-2.1 2-3.7 1.5-6.3-0.3-1.9-0.8-4.8-1.1-6.5-0.4-1.7-1.8-4.9-3.3-7.2-1.5-2.3-5.1-5.8-7.9-7.8l-5.3-3.5c-15.4 4.3-18 4.6-19.5 3.8-1.1-0.6-2.9-1.8-3.9-2.7-1-0.9-1.7-1.1-1.5-0.6z"/><path class="g" d="m74 73.4c-2.5 0.7-6.5 2.4-9 3.8-2.5 1.4-7.1 5.3-10.3 8.7-3.1 3.3-5.9 5.6-6.2 5.1-0.3-0.6-1-0.6-1.7-0.1-0.7 0.5-2.7 1-4.3 1.1-1.6 0.1-3.6 0.2-4.2 0.1-0.7-0.1-2.7-1.2-4.3-2.6-2.6-2.2-3.3-2.3-5.2-1.3-1.3 0.7-3.2 1.4-4.3 1.5-1.1 0.2-2.4 0.8-3 1.3-0.5 0.6-1.7 1-2.7 1-1 0-2.5 1.2-3.5 2.7-1.1 1.8-1.8 5.9-2.1 11.8l-0.5 9c5.3 4.1 9.1 6.4 11.8 7.8 2.9 1.4 9.2 3.1 15 4 9.6 1.6 10.4 1.5 19.5-0.4 5.2-1.1 10.6-2.3 12-2.7 1.4-0.3 5.2-2 8.5-3.7 3.3-1.8 7.6-4.1 9.5-5.2 1.9-1.1 6-4.5 9-7.5 3-3 6.7-7 8.2-8.9 2.4-3.1 2.5-3.6 1.3-5.9-0.8-1.4-2.6-4.9-4-7.8-1.4-2.8-2.8-5.2-3.2-5.2-0.5 0.1-1.4-1.2-2.1-2.7-0.8-1.9-2.5-3.2-5.2-4.1-2.2-0.6-6.4-1.2-9.2-1.1-2.9 0-7.3 0.6-9.8 1.3z"/><path class="d" d="m57.8 51c-0.5 0.3 0.2 1.3 1.6 2.3 1.4 0.9 3.3 3.2 4.2 5 1.1 2.1 1.4 4.4 1 7-0.4 2.4-1.6 4.6-3.6 6.2-1.6 1.4-4.1 2.5-5.5 2.5-1.4 0-3.7 0.6-5.2 1.4-1.6 0.7-3.4 2.1-4 3-1 1.2-1 2.3-0.3 4.3 0.8 2 0.8 3.6 0 5.6-0.6 1.7-2 2.9-3.7 3.3-1.6 0.3-3.8 0.3-5 0-1.5-0.4-2.6-1.8-3.3-4.1-0.7-2.4-2.1-4.1-4.5-5.5-1.9-1.1-4-3.2-4.5-4.8-0.7-1.7-1.4-2.3-1.9-1.7-0.5 0.5-2.1 3.3-3.5 6-1.4 2.8-3.5 8.6-4.6 13-1.1 4.4-2 10.9-2 14.5 0 3.6 0.6 7.2 1.3 8 0.7 0.9 2.9 2.6 5 3.8 3.5 2.1 3.8 2.1 7 0.6 1.7-0.9 5-3.1 7.2-4.7 2.2-1.7 5.5-4.7 7.4-6.6 1.8-2 5.5-7.9 8.1-13.1 3.6-7.2 5.9-10.5 9.6-13.5 2.7-2.3 6.5-5.2 8.4-6.5 2.9-2 5-2.5 12-2.8 4.7-0.2 10.4 0.1 12.8 0.7 2.8 0.7 4.4 0.8 4.7 0.1 0.3-0.5-0.2-1.6-1.1-2.3-0.9-0.6-2.4-2.5-3.2-4.2-0.9-1.7-1.6-3.2-1.7-3.5 0-0.3-1-1.7-2.3-3-1.2-1.4-2.2-2.8-2.2-3.3 0-0.4-0.7-0.7-1.5-0.7-0.8 0-1.5-0.7-1.5-1.5 0-0.8-0.7-1.5-1.5-1.5-0.8 0-3.3-1.1-5.5-2.5-3.4-2.1-5-2.5-10.6-2.3-3.6 0.2-7 0.5-7.6 0.8z"/><path class="h" d="m130.1 19.8l-2 2.7c12.7 5.7 18.2 7.9 20.4 8.6 2.2 0.6 4.4 1.4 5 1.8 0.6 0.3 1.7 0.6 2.5 0.8 0.8 0.1 2.4 0.7 3.5 1.4 1.5 0.8 2.6 0.8 4.3 0 1.3-0.7 2.2-2 2.2-3.4 0-1.2-0.6-3.1-1.4-4.2-0.9-1.4-2.9-2.2-6.7-2.6-3-0.3-9.6-2.2-14.6-4.2-5.1-2.1-9.7-3.7-10.2-3.7-0.6 0-1.9 1.2-3 2.8zm-6.6 12.3c-1 0.6-1.8 1.9-1.7 2.9 0.1 1.1 1.7 3.1 3.5 4.5 1.7 1.3 5.5 3.3 8.2 4.4 2.8 1.1 5.4 1.7 5.8 1.3 0.4-0.4 0.8-1.4 0.7-2.2 0-0.8-1.1-3.1-2.5-5-1.4-1.9-3.4-3.6-4.3-3.7-0.9-0.1-2.8-0.5-4.2-0.8-1.4-0.4-2.8-1-3.1-1.5-0.3-0.5-1.4-0.4-2.4 0.1zm25.7 9.5c0.1 0.9 1.1 2.2 2 2.8 1.3 0.8 2.1 0.8 3-0.2 1.1-1.1 0.9-1.6-0.7-2.8-1.1-0.8-2.6-1.4-3.3-1.4-0.8 0-1.2 0.7-1 1.6zm-74.6 4.4c-0.4 2-1.2 3-2.3 3-1 0 1.4 2 5.2 4.5 3.8 2.5 7.3 4.5 7.8 4.5 0.4 0 0.7 0.3 0.7 0.7-0.1 0.5 1.4 2.3 3.2 4.1 1.8 1.8 3.6 3.2 4.1 3.2 0.4 0 0.7-1.9 0.7-4.3-0.1-3.4-0.8-5.1-3.8-8.6-2-2.5-5.7-5.8-8.2-7.3-2.5-1.6-5-2.8-5.6-2.8-0.7 0-1.5 1.3-1.8 3zm-29.7 9.7c-5.3 2.6-9.4 5.6-14.7 11-3.9 4-7.2 8-7.2 8.8 0 0.8 0.4 1.5 1 1.5 0.5 0 1 0.8 1 1.7 0 1.1 1.7 2.6 4 3.8 2.5 1.2 4 2.7 4 3.7 0 1 1.1 3 2.5 4.5 2.5 2.7 2.8 2.7 6.5 1.5 2.2-0.6 4.5-2.1 5-3.2 0.5-1.1 1-2.9 1-4 0-1.1-0.5-2-1-2-0.6 0-0.7-1.2-0.4-2.8 0.3-1.5 1.3-3.2 2.3-3.9 0.9-0.6 3.4-1.5 5.6-1.8 2.3-0.4 5.2-1.9 6.8-3.4 1.5-1.4 3-4.1 3.3-6.1 0.3-2 0-4.7-0.8-6.4-0.7-1.6-2.4-3.8-3.8-4.8-1.4-1-3.7-1.9-5.1-1.8-1.4 0-5.9 1.6-10 3.7zm66.1-2.3c-3.4 1.2-3.5 1.4-4 7.9-0.3 4.2-0.1 6.7 0.5 6.7 0.6 0 2.6-0.6 4.5-1.3 1.9-0.8 5.4-2.2 7.8-3.3 2.3-1 4.5-2.5 4.7-3.2 0.3-0.6-0.2-2.8-1-4.7-1.3-3.1-1.9-3.5-5.2-3.4-2.1 0-5.4 0.6-7.3 1.3z"/><path class="e" d="m121.5 44c0.4 1.4 0.9 3.4 1 4.5 0.2 1.1 1.5 5.1 2.9 9 1.5 3.9 4.6 9.5 7 12.5 2.4 3 4.6 5.4 5 5.3 0.3-0.2 2.2 1.2 4.1 3 1.9 1.7 6.7 4.5 10.7 6.1 4 1.5 9.8 3.1 12.8 3.4 3 0.3 10 0.5 15.5 0.5 5.5-0.1 11.8-0.4 14-0.6 2.2-0.3 4.9-0.8 6-1.1 1.1-0.3 3.5-0.9 5.4-1.3 2.5-0.6 3.6-1.5 4.1-3.3 0.3-1.4 0.5-4 0.3-5.7-0.2-1.8-0.3-4-0.3-4.8 0-1-0.7-1.4-2.2-1-1.3 0.2-6.8 1.4-12.3 2.5-5.9 1.2-13.7 2.1-19 2.1-4.9-0.1-10.6-0.3-12.5-0.7-1.9-0.3-5.5-1.5-8-2.6-2.5-1.1-6.7-3.1-9.5-4.3-3-1.4-7.8-5.2-12-9.5-3.8-3.9-8.3-9-9.8-11.3-1.6-2.3-3.1-4.4-3.4-4.7-0.3-0.3-0.2 0.6 0.2 2z"/></svg>