<svg version="1.2" xmlns="http://www.w3.org/2000/svg" viewBox="0 0 850 850" width="850" height="850">
	<title>imageIcon</title>
	<style>
		.s0 { fill: #ffffff } 
		.s1 { fill: #b19ab8 } 
		.s2 { fill: #725884 } 
		.s3 { fill: #56476e } 
		.s4 { fill: #000000 } 
	</style>
	<path id="Path 0" fill-rule="evenodd" class="s0" d="m425.3 37.3c20.3 0.3 33.3 1 46.2 2.5 9.9 1.2 19.6 2.6 21.5 3.1 3.1 0.9 4.1 2.1 8.5 10.3 2.7 5.1 6.6 12.7 8.7 16.8 2.1 4.1 5.6 12.5 7.9 18.5 2.3 6 4.5 11.9 5 13 0.5 1.1 1.8 4.9 2.8 8.5 1.1 3.6 2.7 9.4 3.5 13 0.8 3.6 2.4 11.9 3.5 18.5 1.1 6.6 2.5 18.5 3.1 26.5 0.6 8 1 20.1 0.8 27-0.2 6.9-0.7 11.5-1.1 10.3-0.4-1.3-1.2-2.3-1.7-2.3-0.5 0-1-0.9-1-2 0-1.1-0.4-3-0.9-4.3-0.5-1.2-1.2-2.9-1.5-3.7-0.4-0.8-1.5-2.8-2.6-4.5-1.1-1.7-2.4-3.9-2.9-5-0.5-1.1-2.9-3.8-5.4-6-2.5-2.2-6-5.1-7.8-6.5-1.8-1.4-6-3.6-15.4-7.4l-67.5-0.4c-44.1-0.2-69.7 0.1-73.8 0.8-3.4 0.5-8.1 2-10.5 3.2-2.3 1.2-6.5 3.7-9.2 5.6-2.8 2-6.5 4.9-8.3 6.6-1.8 1.7-3.2 3.9-3.2 4.9 0 0.9-0.6 1.9-1.3 2.1-0.6 0.2-2.3 3.2-3.6 6.7-1.4 3.5-3 7.1-3.8 7.9-0.7 0.8-2.6 6.7-4.3 13-1.7 6.3-3.3 11.8-3.6 12.3-0.2 0.4-15.1 0.7-33.2 0.7-27.4 0-33 0.2-34.7 1.5-1.3 0.9-4.4 1.4-8.5 1.5-3.6 0-10.6 0.9-15.5 1.9-4.9 1.1-11.5 3.2-14.5 4.7-3 1.4-6.4 3.5-7.5 4.4-1.1 1-3.6 2.6-5.5 3.7-1.9 1-8 6.6-13.6 12.3-5.5 5.8-11 12.5-12.2 15-1.2 2.5-2.9 5.6-3.6 7-0.8 1.4-2.8 6.8-4.5 12-1.6 5.2-3.3 12.6-3.8 16.4-0.4 3.7-1.1 7-1.6 7.2-0.4 0.2-0.7 29.6-0.7 65.4 0 61.5-0.1 65-1.8 64.4-0.9-0.4-2.6-0.9-3.7-1.2-1.1-0.3-7.6-3.7-14.5-7.5-6.9-3.8-17-9.9-22.5-13.5-5.5-3.6-14.1-9.8-19-13.7-5-3.9-13.4-11.4-18.9-16.6-5.4-5.2-13.6-13.8-18.2-19.2-7.7-8.8-8.3-10-7.8-13 0.3-1.7 0.9-4.1 1.4-5.2 0.4-1.1 1.5-6.1 2.5-11 0.9-5 2.1-9.5 2.5-10 0.5-0.6 1.1-2.8 1.5-5 0.4-2.2 1.1-4.5 1.5-5 0.5-0.6 1.8-5.1 3-10 1.2-5 2.5-9.5 3-10 0.4-0.6 1.8-4.6 3.1-9 1.2-4.4 2.5-8.2 2.8-8.5 0.3-0.3 1.2-1.5 1.8-2.8 0.7-1.2 1.3-2.7 1.3-3.2 0-0.6 1.7-4.7 3.9-9.3 2.1-4.5 4.8-10.2 5.9-12.7 1.2-2.5 4.6-9 7.7-14.5 3-5.5 5.7-10.7 6.1-11.5 0.3-0.8 1.1-2.6 1.7-3.9 0.7-1.3 2.4-3.7 3.9-5.3 1.6-1.5 2.8-3.1 2.8-3.6-0.1-0.4 1.6-3.2 3.6-6.2 2-3 4.9-6.9 6.5-8.5 1.6-1.7 2.9-3.5 2.9-4 0-0.6 1.8-3.1 4-5.8 2.2-2.6 4-4.9 4-5.2 0-0.3 3.5-4.7 7.9-9.8 4.3-5 10.1-11.2 12.7-13.7 2.7-2.5 8.4-8.1 12.6-12.5 4.3-4.4 9.5-9.6 11.5-11.6 2.1-2 6.9-6.3 10.8-9.6 3.8-3.3 8.9-7.2 11.2-8.6 2.4-1.5 5.7-3.9 7.3-5.5 1.7-1.5 3.6-3.2 4.3-3.8 0.6-0.6 2.1-1.4 3.2-1.7 1.1-0.4 3.1-1.7 4.5-2.9 1.4-1.3 4.9-3.9 7.8-5.8 2.8-1.9 5.2-3.8 5.2-4.3 0-0.4 0.6-0.7 1.2-0.7 0.7 0 3.5-1.5 6.3-3.3 2.7-1.8 6.6-3.9 8.5-4.6 1.9-0.7 3.9-1.9 4.5-2.6 0.5-0.8 4.8-3.4 9.5-5.8 4.7-2.5 9.6-4.8 11-5.2 1.4-0.5 4.5-2.1 7-3.6 2.5-1.6 5.2-2.9 6-2.9 0.8 0 3.1-0.8 5-1.8 1.9-1.1 6-2.7 9-3.7 3-1 5.9-2.1 6.5-2.5 0.5-0.4 3.1-1.3 5.8-2.1 2.6-0.8 4.7-1.7 4.7-2.2 0-0.4 0.7-0.7 1.5-0.7 0.8 0 3-0.6 4.7-1.4 1.8-0.7 5.3-1.9 7.8-2.6 2.5-0.7 7-2.1 10-3 3-1 9.8-2.6 15-3.4 5.2-0.9 10.4-2 11.5-2.5 1.1-0.5 3.8-1.4 6-2 2.2-0.6 7.1-1.5 11-2 3.9-0.5 11.1-1.3 16-1.7 5-0.3 9.4-1.1 9.8-1.6 0.5-0.5 13.1-0.7 29-0.5zm-0.8 160.8c58.7-0.1 62.2 0 66 1.8 2.2 1 5.4 3.6 7.1 5.7 1.7 2.2 3.7 5.7 4.3 7.9 0.7 2.2 1.7 4.9 2.2 6 0.5 1.1 2 5.8 3.4 10.5 1.4 4.7 4.2 12.5 6.2 17.5 2 4.9 4.9 10.7 6.3 12.8 1.7 2.5 3.2 3.8 4.7 3.7 1.4 0 2.3 0.6 2.3 1.5 0 0.8-1.4 5.4-3.1 10.2-1.7 4.9-3.3 8.9-3.5 9-0.2 0.2-2.8-1.2-5.7-3-2.8-1.8-6.1-3.8-7.2-4.5-1.1-0.7-3.6-2-5.5-2.8-1.9-0.9-4.9-2.6-6.5-3.7-1.6-1.2-5.3-2.9-8-3.8-2.8-1-6.4-2.5-8-3.3-1.6-0.8-5.7-2-9-2.7-3.3-0.6-6.5-1.5-7-1.9-0.6-0.4-3.3-1.1-6-1.5-2.8-0.4-5.6-1.3-6.4-1.9-1-0.7-9.2-1.1-25.6-1.1-16.7 0-24.6 0.4-25.6 1.1-0.8 0.7-4.7 1.7-8.7 2.3-3.9 0.6-8 1.5-9 2-0.9 0.5-5.5 2.1-10.2 3.6-4.7 1.4-13.2 4.9-19 7.7-5.8 2.9-14.1 7.5-18.5 10.5-4.4 2.9-9.1 6.1-10.4 7-1.3 1-3.5 3-5 4.6-1.4 1.5-2.9 2.7-3.4 2.7-0.4 0-5.9 5.3-12.3 11.7-6.4 6.5-12.7 13.6-14.2 15.8-1.4 2.2-4 5.8-5.9 8-1.9 2.2-7 11.2-11.3 20-4.4 8.8-8 16.7-8 17.5 0 0.8-0.5 3.1-1.2 5-0.6 1.9-1.6 4.8-2.3 6.5-0.7 1.6-1.8 5.7-2.4 9-0.7 3.3-1.6 6.7-2.1 7.5-0.4 0.8-1.1 4.4-1.5 8-0.4 3.6-1.1 6.9-1.6 7.5-0.5 0.5-0.9 10.9-0.9 23 0 14 0.3 22.4 1 23 0.6 0.5 1 3.2 1 11l-11.2-0.8c-6.2-0.4-19-2.1-28.3-3.8-9.4-1.6-20.4-3.7-32-6.5l-0.2-27.4c-0.2-24.9-0.1-27.7 1.5-29.3 1.5-1.6 1.5-2.3 0.5-5-0.9-2.3-1.3-12.8-1.3-38.5 0-24.6 0.3-35.3 1.1-35.7 0.6-0.2 1.3-4.3 1.5-9.7 0.3-7.8 0.8-10.3 3.4-15.6 1.6-3.4 3-6.7 3-7.2 0-0.6 3.3-4.3 7.2-8.3 4-4 9.3-8.5 11.8-9.9 2.5-1.4 7.9-3.3 12-4.3 4.1-0.9 8.8-2.1 10.5-2.6 1.6-0.5 23.3-0.9 48.2-0.9 41.7 0 45.3-0.1 46.9-1.8 1-0.9 2.6-3.7 3.7-6.2 1.1-2.5 2.8-6.5 3.9-9 1-2.5 2.3-5.4 2.8-6.5 0.5-1.1 1.8-5.2 2.8-9 1.1-3.9 2.5-8.6 3.2-10.5 0.7-1.9 2.1-5.8 3.1-8.5 1.1-2.8 3.3-6.4 5.1-8.1 1.8-1.7 4.7-3.8 6.3-4.7 2.6-1.3 11.7-1.5 65-1.6zm-205 102.2c-0.6 0.7-2.3 1.8-3.9 2.4-1.6 0.6-3.9 2.7-5.1 4.5-1.2 1.8-2.7 4.9-3.4 6.8-0.6 1.9-1.1 5.1-1.1 7 0 1.9 0.5 5.1 1.1 7 0.6 1.9 2.8 5.2 4.8 7.3 2 2.1 5.4 4.5 7.6 5.3 2.7 1.1 5.5 1.4 8.5 1 2.5-0.3 6.4-1.6 8.6-2.9 2.3-1.2 5.5-3.7 7-5.6 2.7-3.2 2.9-4.1 2.9-12 0-7.6-0.3-9-2.5-12-1.4-1.9-4.3-4.9-6.5-6.7-2.8-2.3-5.4-3.5-8.5-3.8-2.5-0.3-5.4-0.2-6.5 0.1-1.1 0.2-2.4 1-3 1.6zm206.8-9.2c8.2-0.1 13.9 0.3 14.2 0.9 0.3 0.5 2.3 1 4.5 1 2.2 0 6.4 0.5 9.2 1.1 2.9 0.6 9.3 2.4 14.3 4.1 4.9 1.6 11.5 4.5 14.5 6.3 3 1.8 6.9 4 8.5 4.8 1.6 0.9 4.8 2.5 7 3.6 2.2 1.1 4.8 2.9 5.7 4.1 1.7 1.9 1.7 2.2-1.4 7.7-1.7 3.2-5.8 10-14.8 24.3l-2.8-1.8c-1.6-0.9-4.6-2.9-6.8-4.3-2.1-1.4-5.3-3.3-6.9-4.2-1.6-0.9-5.9-2.8-9.5-4.1-3.6-1.4-9.2-3.1-12.5-3.7-3.3-0.6-6.9-1.5-8-2-1.1-0.6-8.5-0.8-16.5-0.6-8.8 0.2-17.2 1-21.5 2-3.9 0.9-7.9 2.1-9 2.6-1.1 0.5-4.5 1.7-7.5 2.7-3 1-7.1 2.7-9 3.8-1.9 1.1-5.5 3.5-8 5.3-2.5 1.8-5 3.3-5.5 3.3-0.6 0-3.5 2.4-6.6 5.3-3.1 2.9-8.3 8.3-11.7 12.2-3.4 3.8-6.2 7.3-6.2 7.7 0 0.5-1.1 2.3-2.4 4-1.4 1.8-4.2 6.9-6.4 11.3-2.2 4.4-4.9 11.8-6.1 16.5-1.2 4.7-2.1 10-2.1 11.7 0 1.8-0.5 3.5-1 3.8-0.6 0.3-1 6.8-1 16.5 0 9.7 0.4 16.2 1 16.5 0.5 0.3 1 2.2 1 4.2 0 3.5-0.2 3.9-3.2 4.5-1.8 0.4-8.7 1.6-15.3 2.7-6.6 1.2-13 2.1-14.3 2.1-2 0-2.2-0.6-2.8-7.8-0.3-4.2-0.6-14.2-0.6-22.2 0.1-8.6 0.8-19 1.8-25.5 1-6.1 2.1-11.2 2.6-11.5 0.4-0.3 1.1-2.3 1.4-4.5 0.4-2.2 1-4.5 1.5-5 0.4-0.6 1.9-4.4 3.3-8.5 1.4-4.1 4.1-10.2 5.8-13.6 1.8-3.3 4.6-8 6.3-10.5 1.6-2.4 3.4-5.1 4-6 0.5-0.9 1.9-2.9 2.9-4.5 1.1-1.6 3.2-4.3 4.8-5.9 1.6-1.7 4.8-5.3 7.1-8.2 2.3-2.8 6.4-6.9 9.2-9 2.7-2.1 5.6-4.6 6.2-5.6 0.7-0.9 1.9-1.7 2.5-1.7 0.7 0 1.8-0.9 2.5-2 0.7-1.1 2-2 3-2 1 0 4.3-1.5 7.3-3.4 3-1.9 7.1-4.4 9-5.6 1.9-1.2 6.6-3.1 10.5-4.2 3.9-1.2 7.4-2.4 8-2.8 0.5-0.5 5.9-1.6 12-2.5 6-1 11.7-2.1 12.5-2.6 0.8-0.4 7.7-0.8 15.2-0.8zm-0.2 72.9c1.7 0 3.2 0.4 3.5 1 0.3 0.5 2.5 1 4.8 1 2.4 0 7.3 0.7 10.8 1.5 3.5 0.9 9.3 3 12.8 4.8 3.6 1.8 6.6 3.9 6.9 4.7 0.2 0.9-4 5.7-11 12.4-6.2 6-15.6 14.3-20.8 18.5-5.2 4.2-12.9 10-17 12.8-4.1 2.8-9.3 6.1-11.5 7.3-2.2 1.3-10.5 5.9-18.5 10.2-8 4.3-15 7.8-15.5 7.8-0.6 0-3.7 1.1-7 2.4-3.3 1.4-6.3 2.3-6.8 2-0.4-0.2-0.7-5.2-0.7-11.2 0-5.9 0.5-13.5 1-17 0.6-3.4 1.6-7.2 2.4-8.5 0.7-1.2 1.9-4.5 2.6-7.2 0.8-3.3 2.9-7.2 6.1-11.3 2.7-3.4 4.9-6.5 4.9-7-0.1-0.4 3.2-3.5 7.2-6.9 4-3.4 10.2-7.6 13.8-9.3 3.6-1.7 9.3-3.8 12.7-4.6 3.5-0.7 8.3-1.4 10.8-1.4 2.5 0 4.7-0.5 5-1 0.4-0.6 1.9-1 3.5-1z"/>
	<path id="Path 0" fill-rule="evenodd" class="s1" d="m500.3 45c1.2 0 2.6 0.3 3 0.7 0.5 0.4 5.5 1.8 11 2.9 5.6 1.2 13.3 3.1 17.2 4.3 3.9 1.2 8.4 2.4 10 2.7 1.6 0.3 5.2 1.6 8 2.9 2.7 1.3 6.8 2.9 9 3.5 2.2 0.7 4.9 1.8 6 2.5 1.1 0.6 3.8 1.8 6 2.5 2.2 0.7 6.1 2.4 8.7 3.7 2.7 1.2 5.3 2.3 5.8 2.3 0.5 0 2.5 1.1 4.2 2.3 1.8 1.3 4.9 3 6.8 3.7 1.9 0.7 4.1 1.8 4.9 2.4 0.8 0.6 3.5 2 6 3.2 2.5 1.1 7.1 3.7 10.1 5.8 3 2 6.1 3.7 6.7 3.6 0.7 0 1.6 0.6 2 1.3 0.5 0.6 1.7 1.7 2.8 2.3 1.1 0.6 3.5 1.9 5.4 3 1.9 1 5 3.4 7 5.1 2 1.8 4.2 3.3 4.8 3.3 0.7 0 1.3 0.3 1.3 0.8 0 0.4 1.2 1.2 2.7 1.9 1.6 0.6 4.9 3.2 7.5 5.7 2.7 2.5 5.1 4.6 5.5 4.6 0.5 0 5.8 4.2 22.8 18.6l0.7 5.4c0.4 3 1 17.7 1.4 32.5 0.4 17.7 0.3 32.3-0.5 42.5-0.6 8.5-1.9 21.1-2.7 28-0.9 6.9-1.9 13.1-2.3 13.8-0.4 0.8-1.9-0.4-4.2-3.5-2-2.7-5.6-6.4-8-8.4-2.4-2-8.2-6-12.9-8.9-4.7-2.8-10.1-5.8-12-6.6-1.9-0.8-4.4-1.4-5.5-1.4-1.1 0-2.5-0.4-3-1-0.5-0.5-3.5-1.5-6.5-2.1-3.5-0.8-20.6-1.4-87.5-2.4l-1.9-6c-1-3.3-2.4-7.3-3.1-9-0.9-2.2-1-5.3-0.3-12 0.6-5.9 0.6-15.1-0.1-26.5-0.6-9.6-1.7-21.3-2.5-26-0.7-4.7-2.5-13.9-3.9-20.5-1.5-6.6-3.3-14-4.2-16.5-0.8-2.5-1.5-5.1-1.5-5.8 0-0.6-1.4-4.9-3.2-9.5-1.7-4.5-3.5-8.7-4-9.2-0.5-0.5-0.8-1.6-0.8-2.3 0-0.6-2.7-6.9-5.9-14-3.2-7-7.5-15.4-9.5-18.7-2-3.3-3.6-6.3-3.6-6.8 0-0.4 1-0.7 2.2-0.7zm-458.9 318.5l5.1 6c2.8 3.3 8.9 10 13.6 14.8 4.7 4.9 12.8 12.6 18 17.1 5.2 4.6 14.4 11.9 20.5 16.3 6 4.5 13.7 9.5 17 11.3 3.3 1.8 8.5 4.7 11.5 6.5 3 1.9 9 5 21 10.5v60.2c0 49.2 0.2 60.7 1.3 62.3 0.8 1.1 1.7 5.6 2.1 10 0.3 4.4 1.3 10.2 2.2 13 0.9 2.7 2.5 7.2 3.6 10 1.1 2.7 2.2 5.5 2.4 6 0.2 0.5-4 0-9.4-1.2-5.3-1.3-14.4-3.7-20.2-5.4-5.8-1.7-12.5-4-15-5.1-2.5-1.2-8.8-3.6-14-5.5-5.2-1.8-14.3-5.8-20.3-8.8-5.9-3-11.3-5.5-12-5.5-0.6 0-2.1-1.5-3.3-3.3-1.1-1.7-3.5-7.2-5.3-12.2-1.8-5-4.2-12.1-5.2-16-1.1-3.9-2.3-7.7-2.8-8.5-0.4-0.8-1.2-3.1-1.6-5-0.4-1.9-1.1-4-1.6-4.5-0.5-0.5-1.8-5.5-2.9-11-1.1-5.5-2.9-15-4-21-1.1-6.1-2.7-18.2-3.5-27-0.8-9-1.5-26.9-1.5-41 0-14.6 0.6-31.4 1.5-40.5 0.8-8.5 1.8-17.1 2.1-19zm142 95c0.7 0.3 6.9 1.8 13.8 3.4 6.8 1.7 17.2 3.8 23 4.7 5.7 0.9 16 1.7 22.7 1.8 10 0.1 12.3 0.4 12.7 1.6 0.2 0.8 1.2 5.5 2 10.5 0.9 4.9 2.5 11.2 3.5 14 1 2.7 2.6 7.5 3.5 10.5 1 3 4.2 10.5 7.2 16.5 3 6 6.4 12.8 7.7 15.1 1.2 2.2 3.8 6 5.9 8.5 2 2.4 3.7 4.9 3.7 5.4 0 0.5 1.4 2.4 3.1 4 1.6 1.6 3 3.5 3 4-0.1 0.5 4.5 5.4 10.2 10.7 5.6 5.3 13.4 12.1 17.3 15.1 3.8 3 7.9 5.7 9 6.1 1.1 0.3 3.4 1.9 5.2 3.6 1.8 1.6 3.5 3 3.8 3 0.2 0 5.3 2.3 11.2 5.1 7.9 3.7 10.4 5.3 9.3 6-0.9 0.4-3.3 1.1-5.5 1.5-2.2 0.3-4.5 1-5 1.4-0.6 0.4-6.4 1.7-13 2.9-6.6 1.1-17.9 2.8-25 3.6-7.2 0.8-22 2-33 2.5-14.3 0.8-26.1 0.8-41 0-19.9-1-21.3-1.2-25.5-3.7-2.5-1.4-7.7-5.8-11.5-9.7-3.9-4-8.7-10.3-10.9-14.1-2.1-3.9-4.1-8.7-4.5-10.9-0.3-2.1-1-4-1.4-4.2-0.4-0.2-0.7-2.2-0.7-4.4 0-2.2-0.5-4.2-1-4.5-0.7-0.3-1.1-19.9-1.1-55.5 0-44.6 0.2-54.9 1.3-54.5zm388.2-194.5c24 0 46.8 0.4 50.8 1 4 0.5 9.7 2.2 12.8 3.6 3 1.5 8.5 5.4 12.3 8.8 3.8 3.3 7.5 7.2 8.2 8.6 0.8 1.4 2.8 5.4 4.6 9 1.9 4 3.4 8.8 3.8 12.4 0.3 3.2 0.9 6 1.3 6.2 0.4 0.2 0.8 3.5 0.8 7.4 0 5.1-0.8 9.4-3 15.7-1.6 4.9-3.6 10.2-4.4 11.8-0.8 1.6-3.8 8.6-6.6 15.5-2.9 6.9-6.2 14.3-7.5 16.5-1.3 2.2-5 9.2-8.3 15.5-3.3 6.3-7.7 14.2-9.9 17.5-2.2 3.3-5.3 8.2-6.8 11-1.5 2.7-6.4 10.1-10.9 16.2-4.5 6.2-8.4 11.3-8.6 11.3-0.3 0-0.9-9.1-1.2-20.2-0.5-12.1-1.2-20.7-1.8-21.3-0.6-0.6-1.1-2.5-1.1-4.3 0.1-1.7-0.4-3.2-0.9-3.2-0.6 0-1-1.2-1.1-2.8 0-1.5-0.8-6.1-1.9-10.2-1-4.1-3.1-11.1-4.5-15.5-1.4-4.4-4.7-12.1-7.3-17-2.6-5-6-11.6-7.7-14.7-1.7-3.1-5.1-8.7-7.7-12.5-2.6-3.7-5.6-7.7-6.8-8.8-1.1-1.1-2.1-2.5-2.1-3 0.1-0.6-5.4-6.3-12.2-12.9-6.7-6.5-14.8-13.7-17.9-16-3.4-2.4-5.4-4.5-4.9-5.1 0.4-0.6 2-4.8 3.5-9.5 1.5-4.7 2.9-9.1 3.1-9.8 0.3-0.9 10-1.2 43.9-1.2zm34.1 44.2c-3.2 4-3.5 4.8-3.5 11.3-0.1 4.7 0.4 7.7 1.4 9 0.8 1.1 1.5 2.8 1.5 3.7 0 1 1.3 2.8 2.8 4.1 1.5 1.2 5.2 3.1 8.3 4.1 4.6 1.5 6.1 1.6 9.5 0.6 2.2-0.7 5.1-1.6 6.5-2.1 1.4-0.5 4.2-3.6 6.7-7.4 3.5-5.4 4.3-7.3 4.2-11.3 0-3.8-0.7-5.6-3.5-9.5-1.9-2.6-3.5-5-3.5-5.5 0-0.4-2.1-1.7-4.7-2.9-3-1.4-6.6-2.2-9.7-2.2-3 0-6.6 0.8-8.8 1.9-2.1 1.1-5.3 3.9-7.2 6.2zm-97.7 11.7c0.9 0.5 5.6 4.8 10.5 9.7 4.9 4.9 9.7 9.8 10.7 10.9 0.9 1.1 5.2 7.2 9.4 13.5 4.2 6.3 7.6 11.8 7.6 12.2 0 0.5 0.9 2 2 3.5 1.2 1.6 2.7 5 3.6 7.8 0.8 2.7 2 5.9 2.7 7 0.8 1.1 2 4.5 2.7 7.5 0.7 3 1.7 5.9 2.1 6.5 0.3 0.5 1.4 6.2 2.4 12.5 0.9 6.3 2.1 13.1 2.6 15 0.6 1.9 0.8 7.8 0.5 13-0.3 5.2-0.8 11.5-1.1 14-0.3 2.5-1.3 9-2.2 14.5-0.9 5.5-2.1 11.1-2.8 12.5-0.7 1.4-1.8 4.1-2.5 6-0.7 1.9-2 6-3 9-0.9 3-2.7 7.5-4 10-1.2 2.5-4.3 6.6-6.9 9.3-2.5 2.6-5.1 4.7-5.6 4.7-0.6 0-3.3 2.3-6 5-2.8 2.8-5.4 5-5.8 5-0.4 0-4.5 2.8-9 6.3-4.5 3.5-13.6 10-20.2 14.4-6.6 4.5-15.6 10-20 12.3-4.4 2.3-8.7 4.8-9.5 5.5-0.9 0.8-8.7 4.9-17.5 9.2-15.9 7.7-16.1 7.8-23.5 7.7-4.2-0.1-11.8-0.7-17-1.3-5.3-0.6-11.8-1.6-14.5-2.2-2.8-0.6-8.2-2.2-12-3.6-3.9-1.3-8.2-3.1-9.5-3.9-1.4-0.8-5.2-2.9-8.5-4.6-3.3-1.7-6.3-3.4-6.5-3.7-0.3-0.4-2.3-1.5-4.5-2.6-2.2-1-6.1-3.8-8.5-6.2-2.5-2.4-5-4.3-5.5-4.3-0.6 0-4.4-3.4-8.4-7.7-4.1-4.3-9.8-10.9-12.8-14.8-2.9-3.9-5.3-7.3-5.3-7.8 0-0.4-1.2-1.9-2.7-3.5-1.4-1.5-3.3-4.3-4.1-6.2-0.8-1.9-2.3-4.6-3.3-6-1-1.4-3.2-6.6-4.9-11.5-1.8-5-3.7-10.6-4.2-12.5-0.6-1.9-1.4-4-1.8-4.5-0.4-0.6-1.1-2.9-1.4-5.3-0.4-2.3-0.4-4.2-0.1-4.2 0.2 0 6.2-0.9 13.2-2 7-1.2 13.5-2.5 14.5-3 1-0.6 2.8-1 4-1 2 0 2.5 1 4.1 7.8 1.1 4.2 4.3 12.4 7.3 18.2 2.9 5.8 6.8 12.3 8.7 14.5 1.8 2.2 3.5 4.7 3.8 5.5 0.3 0.8 4.4 4.9 9 9.1 4.6 4.2 10.4 8.9 12.9 10.6 2.4 1.6 6.5 4.1 9 5.4 2.4 1.3 4.7 2.6 5 2.9 0.2 0.3 2 1.3 4 2.2 1.9 0.9 7.7 2.9 13 4.3 5.2 1.5 13.7 3.1 19 3.5 5.2 0.4 14.1 0.3 19.7-0.2 5.6-0.4 11-1.2 12-1.7 1-0.5 4.2-1.4 7.3-2 3-0.7 7.4-2.2 9.7-3.4 2.4-1.2 4.3-2.5 4.3-3 0-0.4 0.7-0.7 1.7-0.7 1 0 5.2-2.2 9.5-5 4.3-2.7 11.8-9 16.8-14 5-5 9.2-10.1 9.5-11.5 0.2-1.4 0.9-2.5 1.5-2.5 0.5 0 2.3-2.8 3.9-6.3 1.7-3.4 4.7-9.1 6.7-12.7 2-3.6 4-7.9 4.5-9.5 0.5-1.6 1.6-6.8 2.4-11.5 0.8-4.9 1.4-15.3 1.4-24.5 0-9.7-0.6-19.7-1.5-25.5-0.8-5.2-2.6-12-4-15-1.4-3-2.5-6.1-2.5-6.8 0-0.6-0.6-1.4-1.4-1.7-0.9-0.3-1.5-1.2-1.5-2 0-0.8-1.7-4.5-3.8-8.2-2.1-3.7-8.2-11.6-13.7-17.6-5.5-5.9-10.4-10.9-10.8-11-0.4-0.1 1.3-3.2 3.8-7 2.4-3.7 4.4-6.9 4.3-7.2-0.1-0.3 1.9-4.2 4.5-8.5 3.9-6.5 5.1-7.8 6.5-7.1zm-42.5 57.4l2.6 1.8c1.4 0.9 4.2 3.5 6.1 5.6 2 2.1 5.4 6 7.7 8.8 2.2 2.7 5 7.1 6.2 9.7 1.1 2.7 2.1 5.6 2 6.5 0 1 0.5 2.2 1 2.8 0.6 0.5 1.7 5.9 2.6 12 1.1 7.4 1.4 13.8 0.9 19.5-0.3 4.7-1.3 11.2-2 14.5-0.8 3.3-1.8 6.4-2.2 7-0.5 0.5-1.4 2.8-2.1 5-0.8 2.2-3.2 6.5-5.4 9.5-2.3 3-8 9.2-12.7 13.8-4.7 4.5-9.3 8.3-10.3 8.2-1 0-1.7 0.3-1.7 0.7 0 0.5-3 1.9-6.8 3.3-3.7 1.3-9 2.8-11.7 3.3-2.8 0.5-8.6 1.1-13 1.4-4.4 0.2-9.6 0-11.5-0.5-2-0.6-6.7-1.8-10.5-2.8-3.9-1-9.1-2.8-11.5-4.1-2.5-1.3-7.4-4.7-10.9-7.6-3.5-2.9-7.3-6.6-8.5-8.2-1.1-1.6-3.4-4.6-5.1-6.6-1.7-2-4.3-6.7-5.9-10.5-1.5-3.8-3.2-7.6-3.6-8.4-0.4-0.8-1.1-3.5-1.5-6-0.7-4.3-0.6-4.5 1.9-5.3 1.4-0.4 9.4-3.9 17.8-7.9 8.4-3.9 18.6-9.2 22.8-11.7 4.1-2.4 12.6-8.1 18.9-12.5 6.3-4.5 16.8-12.9 23.5-18.7 6.6-5.8 14.5-13.3 17.5-16.6z"/>
	<path id="Path 0" fill-rule="evenodd" class="s2" d="m686.7 142c0.5 0 2.4 1.6 4.3 3.6 1.9 2 8 8.2 13.5 13.8 5.5 5.7 13.2 14.1 17.1 18.7 3.9 4.6 7.8 9.7 8.7 11.4 0.9 1.7 3.7 5.3 6.2 8 2.6 2.7 6.1 7.3 7.7 10 1.6 2.7 5.4 8.4 8.4 12.5 3 4.1 6 8.6 6.6 10 0.7 1.4 3.7 6.6 6.7 11.5 2.9 4.9 7.3 13.5 9.8 19 2.4 5.5 4.8 10.4 5.4 11 0.5 0.6 0.9 1.7 0.9 2.5 0 0.8 1.3 3.5 2.9 6 1.6 2.5 3.7 7 4.6 10 0.9 3 2.1 6.4 2.6 7.5 0.5 1.1 1.8 5.6 3 10 1.2 4.4 2.8 9.1 3.6 10.5 0.7 1.4 1.3 3.5 1.3 4.8 0 1.2 0.3 2.4 0.7 2.6 0.5 0.2 1.4 3.7 2.2 7.7 0.8 4.1 1.8 8.1 2.2 8.9 0.5 0.8 2 9.8 3.3 20 1.4 10.2 2.8 20.3 3.1 22.5 0.4 2.2 0.7 6.2 0.8 9 0.1 3.5-0.9 7.8-3.5 14.5-1.9 5.2-5 12.6-6.8 16.5-1.8 3.9-5.2 11.5-7.7 17-2.4 5.5-7.8 16.3-11.8 24-4.1 7.7-9.1 16.9-11.1 20.5-2 3.6-3.9 6.7-4.2 7-0.4 0.3-1.8 2.5-3.1 5-1.3 2.5-5.9 9.8-10.2 16.3-4.4 6.4-7.9 11.9-7.9 12.2 0 0.3-3.9 5.8-8.7 12.3-4.8 6.4-13.7 17.7-19.7 25-6.1 7.4-12.8 15.5-14.8 18-2.1 2.6-4.1 4.8-4.5 4.9-0.4 0.2-0.5-1.6-0.1-4 0.4-2.3 1.2-14.6 1.8-27.2 0.5-12.6 1-72.4 1-132.8 0-72.1-0.3-109.9-1-110.2-0.6-0.3-1-1.6-1-3 0-1.4-0.7-6-1.6-10.2-0.8-4.3-2.2-9.8-3-12.3-0.9-2.5-2.7-6.7-4.2-9.5-1.4-2.7-3.9-6.8-8.1-13l1.4-9c0.7-4.9 1.9-14.6 2.6-21.5 0.8-7 1.3-25 1.4-41 0-15.7-0.3-33.6-0.8-39.7-0.4-6.2-0.4-11.3 0-11.3zm-20.9 202.1c0.2 6.3 0.1 61.6-0.1 122.9-0.3 61.3-0.7 112.4-0.9 113.5-0.3 1.1-0.8 2.9-1.2 4-0.4 1.1-1.6 3.6-2.6 5.5-1 1.9-2.9 5.5-4.2 7.9-1.4 2.6-5.7 7.4-10.8 11.8-4.7 4-10.8 8.4-13.5 9.8-2.8 1.3-5.6 2.5-6.3 2.5-0.6 0-1.2 0.3-1.2 0.8 0 0.4-1 0.8-2.3 1-1.2 0.2-23.4 0.5-49.2 0.8-27.7 0.3-48 0.9-49.5 1.4-1.4 0.6-3.4 2.4-4.5 4.1-1.1 1.6-4.5 4.5-7.5 6.4-3 1.8-7.4 5.1-9.6 7.4-2.3 2.3-4.7 4.1-5.3 4.1-0.6 0-2.6 1.3-4.4 3-1.7 1.6-3.8 3-4.5 3-0.6 0-1.9 1.1-2.7 2.5-1.2 2-1.3 2.8-0.3 4.1 1.2 1.5 6.4 1.6 60.8 1 32.7-0.3 62.6-0.9 73.5-1.8l-10.5 7.9c-5.8 4.3-16.4 11.9-23.5 16.7-7.2 4.9-13.7 9.1-14.5 9.4-0.8 0.3-5.3 2.9-10 5.8-4.7 2.9-12.8 7.6-18 10.6-5.2 2.9-18 9.5-28.5 14.5-10.5 5-24.4 11.2-31 13.8-6.6 2.5-14.5 5.7-17.5 7-3 1.2-8.2 3.2-11.5 4.3-3.3 1.2-13.2 4.4-22 7.1-8.8 2.8-21.9 6.4-29 8.1-7.2 1.7-18.6 4.2-25.5 5.6-6.9 1.4-18.4 3.6-25.5 4.9-7.2 1.3-20.4 3-29.5 3.9-9.1 0.9-20.1 2-24.5 2.6-4.4 0.5-11.4 1-15.5 1-6 0-8.4-0.5-12-2.4-2.5-1.3-6.1-2.7-8-3.2-1.9-0.4-4.6-1.8-6-3.1-1.4-1.4-3.6-2.7-5-3-1.4-0.4-5.9-2.4-10-4.7-4.1-2.2-8.7-5-10.3-6.3-1.5-1.3-3.3-2.3-4-2.3-0.6 0-2.8-1.1-4.7-2.3-1.9-1.3-6.4-4.1-10-6.2-3.6-2.2-10.2-6.7-14.8-10.2-4.5-3.5-8.7-6.3-9.2-6.3-0.6 0-1.7-1.1-2.5-2.5-0.8-1.4-2.2-2.5-3-2.5-0.8 0-2.4-1.1-3.5-2.5-1.1-1.4-2.3-2.5-2.8-2.5-0.4 0-3.4-2.4-6.7-5.4-3.3-2.9-13-12.4-21.5-21-8.5-8.7-15.9-16.5-16.4-17.4-0.5-0.9-3.8-4.8-7.3-8.7-3.5-3.9-6.4-7.3-6.3-7.7 0-0.5-1.1-2-2.5-3.5-1.4-1.6-2.5-3.4-2.5-4 0-0.7-0.6-1.6-1.3-2-0.7-0.5-3.2-3-5.5-5.8-2.3-2.7-4.3-5.8-4.2-6.7 0-1-1.1-2.6-2.5-3.5-1.3-1-2.2-2.1-1.8-2.5 0.3-0.5 0-0.8-0.7-0.8-0.7 0-1.1-0.3-0.7-0.7 0.3-0.5-1.1-3.3-3.2-6.3-2.1-3-5.8-9.3-8.3-14-2.5-4.7-6-10.6-7.7-13.2-1.7-2.7-3.1-5.1-3.1-5.5 0-0.5-1.5-3.9-3.4-7.8-1.9-3.9-3.7-8-4-9.2-0.6-2.2-0.5-2.3 2.6-0.9 1.8 0.7 8 3.6 13.8 6.4 5.8 2.8 15.2 6.8 21 9 5.8 2.1 11.8 4.2 13.5 4.6 1.6 0.4 5 1.7 7.5 2.8 2.5 1.1 11.1 3.8 19.2 5.9 8.2 2.2 14.8 3.6 14.8 3.2 0-0.5 0.7 0.3 1.5 1.7 0.8 1.4 1.7 3.3 2 4.3 0.3 0.9 0.9 1.7 1.5 1.7 0.5 0 1.5 1 2.1 2.3 0.5 1.2 1.6 3.3 2.4 4.7 0.7 1.4 3.5 4.5 6.2 6.8 2.6 2.4 7.5 6.8 10.8 9.8 3.3 3 6.4 5.5 7 5.5 0.5 0 4.1 2 8 4.4 3.8 2.5 7.7 4.5 8.5 4.5 0.8 0 2.4 0.6 3.5 1.4 1.1 0.7 4.5 1.9 7.5 2.6 3 0.6 11.8 1.7 19.5 2.3 7.7 0.5 20.7 1 29 0.9 8.2-0.1 23.8-0.4 34.5-0.7 12.7-0.3 19.8-0.2 20.5 0.5 0.6 0.6 8.7 1 21.2 1 15.2 0 20.5-0.3 20.9-1.2 0.4-0.8-0.7-2.4-2.7-4-1.9-1.5-4-2.8-4.7-2.8-0.6 0-1.2-0.5-1.2-1 0-0.5-1.7-2.1-3.8-3.4-2-1.3-5.8-4.4-8.3-6.8-2.6-2.3-7.6-6.5-11.2-9.3-3.6-2.7-6.8-5.8-7.1-6.7-0.6-1.7-3.6-1.8-44.9-1.8-26.1 0-46.9-0.4-50.7-1.1-3.6-0.5-7.9-1.9-12.5-5l8 0.5c4.4 0.3 13.8 0.8 21 1.1 7.1 0.3 21.5 0.1 32-0.5 10.4-0.5 22.8-1.5 27.5-2 4.7-0.5 12.1-1.5 16.5-2.1 4.4-0.6 8.9-1.4 10-1.9 1.1-0.5 7.2-1.8 13.5-3 6.3-1.2 12.3-2.6 13.2-3.1 1.1-0.5 2.3-0.5 3 0 0.7 0.5 5.3 2.3 10.3 3.9 4.9 1.7 12.4 3.6 16.5 4.2 4.1 0.6 9.3 1.7 11.5 2.3 2.5 0.8 11.7 1.2 24.5 1.2 12.4 0 22.1-0.5 24.5-1.1 2.2-0.7 8-1.9 13-2.9 4.9-0.9 10.3-2.3 12-3.1 1.6-0.8 3.4-1.4 4-1.4 0.5 0 3-1 5.5-2.1 2.5-1.1 7.8-3.7 11.8-5.7 4.1-2.1 7.6-4 7.8-4.4 0.2-0.5 1.3-0.8 2.4-0.8 1.1 0 4.1-1.8 6.7-4 2.7-2.2 5.1-4 5.5-4 0.5 0 3.5-2 6.8-4.5 3.3-2.5 6.5-5.4 7-6.5 0.5-1.1 1.6-2 2.2-2 0.7 0 4-2.7 7.3-5.9 3.3-3.2 8.1-8.2 10.7-11.2 2.6-3 6.5-8.1 8.6-11.4 2.1-3.3 4.6-6.7 5.6-7.5 0.9-0.8 1.7-1.7 1.6-2 0-0.3 2.2-4.5 5-9.5 2.7-5 5-9.8 5-10.7 0-1 0.3-1.8 0.7-1.8 0.5 0 1.6-1.4 2.5-3.2 1-1.8 3.3-8.5 5.3-14.8 2-6.3 4.3-15.8 5.1-21 0.9-5.2 2.2-10.4 2.9-11.5 0.7-1.1 1.5-4.5 1.9-7.5 0.5-4.5 1.5-6.6 5.6-12 2.7-3.6 5-6.8 5-7.2 0-0.5 2.5-4.3 5.6-8.5 3-4.3 8.3-12.4 11.7-18 3.4-5.7 7.8-13.3 9.7-17 1.9-3.8 5.4-10.4 7.6-14.8 2.3-4.4 5.8-11.8 7.9-16.5 2.1-4.7 4.9-11.6 6.2-15.5 1.4-3.9 3.2-8.6 4.1-10.5 0.8-1.9 2-4.1 2.6-4.9 0.8-1 1.2 1.6 1.4 10zm-121.6 168.5c0.4 0.2-0.2 1.9-1.5 3.7-1.2 1.9-3.8 5.8-5.8 8.8-2 3-4.4 6.1-5.3 6.9-0.9 0.8-1.7 2-1.6 2.5 0 0.5-0.8 1.7-1.7 2.6-1 0.9-4.7 4.7-8.3 8.3-3.6 3.7-6.6 6.7-6.8 6.6-0.1 0-3 2.3-6.5 5.1-3.4 2.8-9.8 6.8-14.2 9-4.4 2.1-10 5-12.5 6.4-2.5 1.4-5.7 2.7-7.3 3-1.5 0.3-2.7 1-2.7 1.5 0 0.5-0.5 0.8-1 0.5-0.6-0.3-1.2 0-1.5 0.5-0.3 0.5-1.3 0.8-2.3 0.5-0.9-0.3-2.2-0.1-2.7 0.4-0.6 0.5-3.5 1.4-6.5 2-3 0.6-8.3 1.4-11.8 1.8-4 0.5-6.2 0.4-6.2-0.2-0.1-0.5 4.3-3.1 9.7-5.6 5.4-2.5 15.3-7.8 22-11.7 6.8-4 12.7-7.2 13.3-7.2 0.5 0 1.2-0.6 1.4-1.2 0.2-0.7 2.1-2.2 4.2-3.3 2.2-1.1 7-4 10.9-6.6 3.8-2.5 11.7-8.2 17.5-12.6 5.8-4.4 14.1-11.2 18.4-15 4.4-3.9 8.3-6.9 8.8-6.7z"/>
	<path id="Path 0" class="s3" d="m805.5 414.2c-3.2 7.9-7.5 17.9-9.6 22.3-2 4.4-5.3 11.4-7.2 15.5-2 4.1-6.7 13.4-10.5 20.5-3.8 7.1-12.5 21.9-19.3 32.8-6.8 10.9-18.3 27.7-25.4 37.4-7.1 9.7-18.3 23.9-24.8 31.5-6.8 8.1-12 15.1-12.4 16.9-0.5 1.7-1.4 3.6-2.1 4.3-0.7 0.6-1.3 2.1-1.2 3.4 0 1.2-0.8 3.9-1.7 6-1 2-2.5 4.2-3.3 4.8-0.8 0.6-2.3 3-3.3 5.2-0.9 2.3-2.2 4.2-2.7 4.2-0.5 0-1 0.9-1 2 0 1.1-0.7 2-1.5 2-0.8 0-1.5 0.8-1.5 1.8 0 0.9-3.8 5.2-8.3 9.5-4.5 4.2-11.3 9.5-15.2 11.6-3.9 2.2-7.7 4.6-8.5 5.6-0.8 0.9-4 2.3-7 3.1-3 0.9-6 1.9-6.5 2.4-0.5 0.4-2.6 1-4.5 1.3-1.9 0.3-4.9 0.8-6.5 1.3-1.6 0.4-8.1 4.5-14.3 9.1-6.1 4.6-11.4 8.3-11.7 8.3-0.3 0-5.3 3.3-11.3 7.3-5.9 4.1-15.2 10.1-20.7 13.5-5.5 3.3-14.3 8.3-19.5 11.2-5.2 2.8-17.8 9.2-28 14.1-10.2 5-20.5 9.9-23 10.9-2.5 1-8.3 3.4-13 5.3-4.7 2-15 5.9-23 8.8-8 2.9-18.1 6.3-22.5 7.6-4.4 1.3-15.9 4.5-25.5 7-9.6 2.5-22.2 5.6-28 6.8-5.8 1.2-17.5 3.4-26 4.8-8.5 1.4-20 3-25.5 3.7-5.5 0.6-15.2 1.5-21.5 2.1-6.3 0.6-15.9 1.3-21.2 1.7-7.8 0.6-9.4 0.9-8.5 2 0.7 0.7 1.5 1.3 1.9 1.2 0.5 0 2.7 0.9 5 2.1 2.4 1.1 6.5 2.7 9.3 3.5 2.7 0.9 6.4 2.2 8 2.9 1.6 0.8 5.5 1.9 8.5 2.5 3 0.6 5.9 1.5 6.5 1.9 0.6 0.4 5.1 1.6 10 2.6 4.9 1 9.4 2.2 10 2.7 0.6 0.4 2.2 0.8 3.7 0.8 1.6 0 2.9 0.4 3 0.9 0.2 0.5 3.7 1.4 7.8 2 4.1 0.6 11.6 1.6 16.5 2.2 4.9 0.5 9.8 1.4 10.7 1.9 1 0.6 11.8 1.5 24.1 2 15.8 0.8 28.5 0.7 44.2-0.1 12.1-0.6 22.4-1.4 23-1.9 0.6-0.4 5.9-1.3 12-2 6.1-0.8 12.4-1.4 14.2-1.4 1.7-0.1 3.5-0.4 3.9-0.8 0.4-0.5 1.8-0.8 3.1-0.8 1.3 0 2.3-0.5 2.3-1 0-0.5 1.4-1 3-1 1.6 0 3.2-0.3 3.4-0.7 0.2-0.5 2.6-1.2 5.2-1.6 2.7-0.5 6.7-1.3 8.9-1.9 2.2-0.6 4.9-1.4 6-1.9 1.1-0.5 4.2-1.4 7-1.9 2.7-0.6 6.4-1.7 8-2.5 1.6-0.7 6.1-2.3 10-3.4 3.9-1.2 8.6-2.9 10.5-3.9 1.9-1.1 6.1-2.7 9.4-3.8 3.2-1 6.4-2.5 7-3.2 0.6-0.7 1.7-1.3 2.3-1.2 0.7 0 3.4-1 6-2.2 2.7-1.2 7.5-3.8 10.8-5.8 3.3-2 9.3-5.1 13.3-7 4-1.9 7.3-3.8 7.2-4.2 0-0.5 1.5-1.5 3.2-2.4 1.8-0.9 4.7-2.3 6.3-3.3 1.6-0.9 5.7-3.4 9-5.6 3.3-2.1 10-7 15-10.9 5-3.9 11.7-9.3 15-12.2 3.3-2.8 7.3-5.8 8.8-6.5 1.5-0.8 2.8-1.9 2.7-2.4 0-0.5 1.8-2.5 4-4.2 2.2-1.8 4.7-3.3 5.5-3.3 0.8 0 1.5-0.5 1.5-1 0-0.5 1.4-2.8 3-5 1.6-2.2 3.9-4.2 5-4.5 1.1-0.3 2.4-1.7 2.8-3.2 0.5-1.6 2.3-3.8 4-5 1.8-1.3 3.2-2 3.2-1.5-0.1 0.4 0.6 0 1.5-0.8 0.9-0.8 1.6-2.3 1.5-3.2 0-1 1.8-3.3 4-5 2.2-1.8 4-3.8 4-4.3 0-0.5 0.9-1.9 2-3 1.1-1.1 2.1-2.6 2-3.2 0-0.7 0.3-1.4 0.7-1.5 0.5-0.2 2.8-3 5.3-6.2 2.5-3.2 5.1-6 5.7-6.2 0.7-0.2 1.3-1.2 1.3-2.1 0-1 1.6-3.6 3.5-5.8 2-2.2 3.6-4.2 3.5-4.5 0-0.3 0.5-1.7 1.2-3.2 0.7-1.6 1.8-2.8 2.3-2.8 0.5 0.1 1.8-0.7 2.7-1.7 1-1 1.8-2.6 1.8-3.5 0-1 0.6-2.5 1.4-3.3 0.8-0.8 1.9-1.5 2.5-1.5 0.6 0 0.9-0.6 0.7-1.2-0.3-0.7 0.9-3.3 2.5-5.8 1.6-2.5 2.9-5.1 2.9-5.7 0-0.7 1.6-3.2 3.5-5.5 2.5-3 3.5-5.3 3.5-7.5 0-1.8 0.3-3.3 0.7-3.3 0.5 0 1.9-2.4 3.2-5.3 1.3-2.8 3-6.4 3.7-7.9 0.8-1.6 1.4-3.9 1.4-5.3 0-1.5 0.7-2.7 1.7-3 1-0.3 1.5-0.9 1-1.3-0.4-0.4 0-1.4 0.8-2.2 0.8-0.8 1.7-3.2 2-5.2 0.3-2.1 1.3-4.7 2.2-5.8 1-1.2 1.8-3.1 1.9-4.3 0.1-1.2 1.1-6 2.3-10.7 1.2-4.7 2.6-9.2 3-10 0.5-0.8 1.2-3.1 1.6-5 0.4-1.9 1.1-4 1.5-4.5 0.5-0.5 1.4-3 2-5.5 0.6-2.5 1.6-6.5 2.1-9 0.5-2.5 1.7-8.3 2.5-13 0.8-4.7 2.2-13.4 3-19.5 0.8-6 1.4-12.8 1.4-15 0-2.2 0.4-4.4 1-5 0.7-0.6 1.1-11.3 1.3-29.9 0.1-19.4-0.1-29-0.8-29.3-0.6-0.2-3.7 6.1-7 13.9z"/>
	<path id="Path 0" fill-rule="evenodd" class="s4" d="m430 0.5c34 0.2 49.2 0.7 56.5 1.8 5.5 0.8 15.9 2.7 23 4.1 7.1 1.5 13.8 3.1 14.8 3.6 0.9 0.6 2.4 1 3.2 1 0.8 0 1.5 0.4 1.5 1 0 0.6 1 1 2.2 1 1.3 0 4.8 0.7 7.8 1.5 3 0.9 6.4 2 7.5 2.5 1.1 0.4 4.2 1.4 7 2 2.7 0.6 6.4 1.8 8 2.5 1.6 0.8 4.9 1.9 7.2 2.4 2.4 0.6 4.3 1.5 4.3 2.1 0 0.6 0.6 1 1.2 1 0.7 0.1 3.1 0.9 5.3 2 2.2 1.1 4.3 1.9 4.7 2 0.5 0 3.7 1.4 7.3 3 3.6 1.6 7 3 7.5 3 0.5 0 2.5 0.7 4.2 1.6 1.8 0.9 3.5 2.1 3.8 2.5 0.3 0.5 5.2 3.1 11 5.8 5.8 2.7 11.6 5.9 13 7.2 1.4 1.2 5.4 3.7 9 5.6 3.6 1.9 8.8 4.9 11.5 6.6 2.8 1.8 7.9 5.3 11.3 8 3.4 2.6 6.7 4.7 7.2 4.7 0.5 0 1.9 1.2 3.1 2.8 1.2 1.5 3.5 3.6 5.3 4.7 1.7 1.1 4.9 2.9 7.1 4 2.2 1.1 5 3.6 6.3 5.5 1.3 1.9 3.4 4.1 4.5 4.7 1.2 0.7 3 1.5 3.9 1.8 1 0.3 1.8 1 1.8 1.5 0 0.5 1.4 2.2 3.2 3.8 1.8 1.5 4.6 4.2 6.3 6 1.6 1.8 3.5 3.3 4 3.3 0.5 0 6.3 5.2 12.7 11.7 6.4 6.4 11.7 12.4 11.8 13.2 0 0.8 2.7 4 5.8 7.2 3.1 3.1 6.9 7.1 8.4 9 1.5 1.8 2.7 3.9 2.8 4.6 0 0.6 1.4 2.3 3 3.7 1.6 1.4 3 2.8 3 3.3 0.1 0.4 1.8 2.7 3.9 5.2 2 2.5 4.5 6.1 5.4 8 0.9 1.9 3 4.8 4.7 6.5 1.7 1.7 3 3.3 3 3.8 0 0.4 2.1 4.2 4.7 8.5 2.7 4.2 5.8 9.1 7.1 10.7 1.3 1.7 2.6 3.9 2.9 5 0.3 1.1 1.8 3.8 3.3 6 1.5 2.2 3.2 5.6 3.8 7.5 0.6 1.9 2.3 4.6 3.7 6 1.4 1.4 2.7 3.5 3 4.8 0.3 1.2 1.8 5 3.4 8.5 1.7 3.4 4.1 9.1 5.5 12.7 1.4 3.6 2.6 7.3 2.6 8.3 0 0.9 0.5 1.8 1.1 2 0.6 0.1 2.4 4.3 4.1 9.2 1.6 4.9 3.3 9.4 3.8 10 0.4 0.6 1.9 5.9 3.4 12 1.4 6.1 2.6 12 2.6 13.3 0 1.2 0.6 2.5 1.4 3 0.8 0.4 2 3.4 2.5 6.7 0.6 3.3 1.6 10.1 2.3 15 0.6 4.9 1.7 9.4 2.3 10 0.7 0.6 1.7 4.8 2.3 9.5 0.6 4.7 1.7 14.6 2.4 22 0.7 7.5 1.2 27 1.1 44 0 20.8-0.6 35.8-1.7 47-1 9.1-2.4 19.9-3.2 24-0.8 4.1-1.9 9.8-2.5 12.5-0.5 2.8-1.7 8.8-2.6 13.5-0.8 4.7-2.2 9.2-2.9 10-0.7 0.8-1.4 2.2-1.4 3 0 0.8-0.4 2.9-1 4.5-0.5 1.6-1.5 5.6-2.2 8.8-0.7 3.1-1.5 5.7-1.8 5.7-0.3 0-1.2 2.7-2 6-0.8 3.3-1.7 6-2 6-0.3 0-1.4 2.8-2.4 6.2-1.1 3.5-2.7 7.2-3.7 8.3-0.9 1.1-1.9 4.1-2.3 6.8-0.4 2.9-1.2 4.9-2.1 5.2-0.8 0.3-1.5 1.4-1.5 2.5 0 1.1-0.6 3-1.2 4.3-0.7 1.2-1.9 2.5-2.5 3-0.7 0.4-1.6 2.4-1.9 4.5-0.4 2-1.8 4.7-3 6-1.3 1.2-2.4 2.9-2.4 3.7 0 0.8-2 4.4-4.5 8-2.5 3.6-4.5 6.8-4.5 7.3 0.1 0.4-0.6 1.4-1.5 2.2-0.9 0.8-2.5 3.2-3.6 5.3-1 2-1.9 4.8-1.9 6.2 0 1.8-0.7 2.7-2.3 3-1.4 0.4-3.1 2.3-4.7 5.8-2 4.2-3 5.2-5.3 5.5-2.1 0.1-2.7 0.7-2.7 2.5 0 1.2-0.6 4-1.2 6.2-0.7 2.2-1.8 4.3-2.5 4.8-0.7 0.4-1.3 1.6-1.3 2.7 0 1.1-0.7 2.2-1.5 2.5-0.8 0.3-1.5 1.3-1.5 2.3 0 0.9-1.5 3.1-3.3 4.8-1.7 1.7-4.6 5-6.2 7.2-1.6 2.3-3.5 4.1-4 4.2-0.5 0-1.6 1.2-2.3 2.7-0.6 1.6-5.6 7.4-11 13.1-5.3 5.6-10.6 11.3-11.7 12.7-1.1 1.3-2.5 2.4-3 2.5-0.5 0-1.6 0.9-2.3 2-0.6 1.1-1.7 2-2.2 2-0.5 0-1.8 0.8-2.8 1.8-1 0.9-2.1 2.5-2.5 3.5-0.4 0.9-1.5 2-2.5 2.4-0.9 0.4-4.4 3.4-7.7 6.7-3.3 3.3-8.4 7.8-11.3 10-3 2.3-7.2 5.6-9.5 7.4-2.3 1.7-6.9 4.7-10.2 6.6-3.3 1.8-7.6 4.8-9.5 6.5-1.9 1.8-5.1 4-7 5-1.9 1-6.4 3.6-10 5.8-3.6 2.2-8.5 5-11 6.4-2.5 1.3-5.6 3.2-7 4.2-1.4 1-3.9 2-5.5 2.2-1.6 0.3-3.7 1.2-4.5 2-0.8 0.9-1.8 1.6-2.3 1.5-0.4 0-3.3 1.5-6.5 3.3-3.1 1.8-8.3 4.1-11.5 5-3.1 0.9-5.9 2.2-6.2 2.7-0.3 0.5-1.2 1-2 1-0.8 0-4.3 1.3-7.8 2.9-3.4 1.6-8.6 3.9-11.5 5-2.8 1.2-6.3 2.1-7.7 2.1-1.4 0-2.7 0.3-2.9 0.8-0.2 0.4-4.6 1.8-9.7 3-5.2 1.3-10.4 3-11.7 3.8-1.2 0.8-7.3 2.3-13.5 3.5-6.1 1.1-11.9 2.4-12.7 2.9-0.8 0.4-7.6 1.5-15 2.4-7.4 0.9-14.9 2.2-16.5 2.8-2 0.7-18.4 1.3-47 1.5-27.3 0.3-46.7 0-51-0.6-3.9-0.6-14-1.9-22.5-3.1-8.5-1.1-16.4-2.4-17.5-2.9-1.1-0.5-7.3-1.9-13.8-3-6.4-1.2-12.7-2.8-14-3.6-1.2-0.8-6.3-2.4-11.2-3.6-4.9-1.2-9.7-2.5-10.5-3-0.8-0.4-4.4-1.7-8-2.9-3.6-1.2-7.5-2.3-8.8-2.6-1.2-0.2-2.2-0.7-2.2-1.1 0-0.5-2.7-1.7-6-2.8-3.3-1.1-6-2.3-6-2.7 0-0.5-1.5-1.1-3.3-1.4-1.7-0.3-5.5-1.7-8.2-3.1-2.8-1.3-7-3.5-9.5-4.9-2.5-1.3-7-3.6-10-5.1-3-1.4-7.8-3.7-10.5-5.1-2.8-1.4-5.7-3.3-6.5-4.2-0.8-1-2.6-2.1-4-2.5-1.4-0.4-4.8-2.2-7.5-3.9-2.8-1.7-6.7-4-8.8-5.1-2.1-1.1-3.7-2.3-3.7-2.7 0-0.5-2.1-2.2-4.8-4-2.6-1.8-6.1-3.9-7.9-4.8-1.7-0.8-4.6-2.7-6.5-4.2-1.8-1.5-8-6.5-13.8-11.1-5.8-4.7-15.2-13.1-21-18.8-5.8-5.7-15.3-15.4-21-21.6-5.8-6.1-12.6-13.6-15.3-16.7-2.6-3.1-4.7-5.9-4.7-6.3 0-0.5-1.7-2.4-3.7-4.4-2.1-2-4.5-4.9-5.3-6.5-0.8-1.6-4.1-6.5-7.3-10.9-3.2-4.4-7.3-10.1-9.2-12.7-1.9-2.7-3.8-6-4.3-7.5-0.4-1.5-1.8-3.9-3.2-5.4-1.4-1.4-3.3-4.1-4.3-5.8-0.9-1.7-1.7-3.8-1.7-4.6 0-0.8-0.3-1.5-0.8-1.5-0.4 0-2.7-3.9-5.1-8.7-2.5-4.9-4.7-9-5.1-9.3-0.3-0.3-1.6-2.2-2.8-4.2-1.2-2.1-2.2-4.4-2.2-5 0-0.7-1.1-3.5-2.5-6.3-1.4-2.7-2.5-5.6-2.5-6.2 0-0.7-1.5-4.3-3.4-8-1.9-3.8-4.4-9.6-5.5-13-1.2-3.5-2.5-7.1-3-8-0.5-1-1.8-4.7-2.9-8.3-1.1-3.6-2.3-8.3-2.7-10.5-0.4-2.2-1.4-4.7-2.1-5.5-0.7-0.8-2.3-6-3.4-11.5-1.2-5.5-2.5-11.4-3-13-0.5-1.6-1.6-6.8-2.4-11.5-0.7-4.7-1.9-13.4-2.5-19.5-0.7-6.1-1.5-12.4-1.9-14-0.3-1.6-0.6-22.6-0.7-46.5 0-31 0.3-44.6 1.2-47.5 0.7-2.2 2.2-11.2 3.4-20 1.2-8.8 2.5-16.7 2.9-17.5 0.5-0.8 1.7-6.4 2.8-12.5 1.2-6.1 3-12.8 4-15 1.1-2.2 3.4-9.2 5.2-15.5 1.7-6.3 4.2-14.4 5.6-18 1.4-3.6 3.1-7.9 3.9-9.5 0.7-1.6 2.2-5 3.3-7.5 1.1-2.5 3.7-8.3 5.8-13 2.1-4.7 4.4-9.2 5-10 0.6-0.8 3-5.3 5.3-10 2.2-4.7 5.3-10.5 6.7-13 1.4-2.5 4.3-6.7 6.5-9.5 2.1-2.7 3.8-5.7 3.8-6.5 0-0.8 1.6-3.6 3.6-6.2 1.9-2.7 3.5-5.2 3.5-5.8 0-0.6 0.3-1 0.7-1 0.5 0 1.3-0.8 1.8-1.9 0.5-1 3.4-5.4 6.4-9.8 3-4.3 7.3-9.9 9.7-12.5 2.4-2.7 4.4-5.2 4.4-5.8 0-0.6 2.7-3.7 6-7 3.3-3.3 6-6.6 6-7.2 0-0.7 4.9-6 10.8-11.8 6-5.8 15-14.3 20-19 5.1-4.7 10.1-8.8 11.2-9.2 1.1-0.5 2.6-1.6 3.2-2.7 0.7-1 3.7-3.7 6.5-6 2.9-2.2 5.6-4.1 6-4.1 0.5 0 2.9-1.9 5.4-4.2 2.6-2.4 7.5-6.1 11-8.2 3.5-2.2 8-5.2 9.9-6.8 1.9-1.5 4.1-2.8 4.9-2.8 0.8 0 2.2-0.8 3.1-1.8 0.9-0.9 2.9-2.5 4.5-3.5 1.7-1 4.9-2.7 7.2-3.7 2.4-1.1 4.3-2.4 4.3-3 0-0.5 5.9-3.8 13-7.2 7.2-3.5 13-6.6 13-7 0-0.5 0.6-0.8 1.2-0.8 0.7 0 4.5-1.6 8.3-3.5 3.9-1.9 7.6-3.5 8.2-3.5 0.7 0 3.5-1.1 6.3-2.5 2.7-1.4 5.9-2.5 6.9-2.5 1.1 0 2.6-0.6 3.3-1.3 0.7-0.7 3-2 5-3 2.1-0.9 4.4-1.7 5-1.7 0.7 0 3.5-0.7 6.3-1.6 2.7-0.8 5.9-2 7-2.5 1.1-0.5 5.6-1.8 10-2.9 4.4-1.1 8.8-2 9.7-2 1 0 1.8-0.4 1.8-1 0-0.5 1.7-1.4 3.7-1.9 2.1-0.6 7.9-1.7 12.8-2.6 4.9-0.9 10.6-2.1 12.5-2.7 1.9-0.6 10.2-1.9 18.5-2.9 12.9-1.5 21.4-1.7 61.5-1.4zm-42.5 39.9c-5 0.3-13.9 1.3-20 2.2-6.1 0.8-11.9 1.9-13 2.4-1.1 0.5-6.2 1.6-11.3 2.5-5 0.8-11.3 2.2-14 3.1-2.6 0.9-5.1 2-5.7 2.4-0.6 0.4-3.5 1.3-6.5 2.1-3 0.7-5.9 1.6-6.5 2-0.6 0.4-4.4 1.7-8.5 2.9-4.1 1.2-7.9 2.6-8.5 3-0.6 0.4-3.5 1.5-6.5 2.5-3 1-6.9 2.9-8.6 4.2-1.7 1.2-4 2.3-5 2.3-1.1 0-4.2 1.1-6.9 2.4-2.8 1.3-7.5 3.5-10.5 5-3 1.4-8.2 4.3-11.5 6.4-3.3 2.1-7.3 4.3-9 4.9-1.7 0.5-5.7 2.9-9 5.2-3.3 2.3-6.6 4.1-7.3 4.1-0.6 0-1.2 0.3-1.2 0.8 0 0.4-2.1 2-4.8 3.6-2.6 1.7-6.3 4.4-8.3 6-1.9 1.7-4.6 3.8-5.8 4.6-1.3 0.8-3.4 2.3-4.7 3.3-1.3 0.9-2.6 1.7-2.9 1.7-0.3 0-2.9 2.1-5.8 4.6-2.8 2.6-6.5 5.5-8.2 6.5-1.7 1-6.1 4.7-9.9 8.1-3.7 3.5-8.9 8.5-11.5 11.2-2.5 2.7-10.6 10.9-17.9 18.2-7.2 7.4-13.2 13.8-13.2 14.4 0 0.6-2.9 4.5-6.5 8.8-3.6 4.2-7.1 8.7-7.8 9.8-0.7 1.2-3.3 5-6 8.5-2.6 3.5-5.8 8-7.1 9.9-1.4 1.9-3.5 5.5-4.7 8-1.2 2.5-3.2 5.8-4.4 7.5-1.2 1.7-4.7 8.4-7.9 15-3.1 6.6-6.4 13.4-7.3 15-0.9 1.6-2.7 5-3.9 7.5-1.2 2.5-3 6.5-3.9 9-0.9 2.5-3 8.6-4.6 13.5-1.7 4.9-3.4 9.4-3.9 10-0.5 0.6-1.8 4.4-2.8 8.5-1.1 4.1-2.4 8.4-3 9.5-0.5 1.1-2 6.7-3.2 12.5-1.2 5.8-2.5 11.4-3 12.5-0.4 1.1-1.5 7.4-2.5 14-0.9 6.6-2.1 12.9-2.5 14-0.5 1.1-1.3 7.5-1.9 14.3-0.6 6.7-1.1 22.4-1.1 35 0 12.5 0.5 29 1.1 36.7 0.6 7.7 1.4 14.9 1.9 16 0.4 1.1 1.6 6.9 2.5 13 0.9 6.1 2 12.4 2.5 14 0.5 1.6 2.1 8.6 3.5 15.5 1.5 6.9 3.1 13 3.6 13.5 0.5 0.5 0.9 1.7 0.9 2.5 0 0.8 0.6 2.6 1.3 4 0.8 1.4 1.7 4.1 2.2 6 0.4 1.9 1.3 4.6 2.1 6 0.7 1.4 2.4 5.9 3.8 10 1.4 4.1 3.9 10.4 5.6 14 1.7 3.6 3.5 7.2 4 8 0.5 0.8 1.7 3.1 2.6 5 0.9 1.9 2.6 5.5 3.9 8 1.2 2.5 6.1 10.9 10.8 18.8 4.8 7.8 8.7 14.4 8.7 14.7 0 0.3 1 1.5 2.1 2.7 1.2 1.3 2.8 3.8 3.5 5.5 0.8 1.8 3.9 6.3 7 10 3.1 3.8 6.5 7.8 7.5 9 1.1 1.3 1.9 2.6 1.9 3 0 0.5 2.9 4.1 6.5 8 3.6 4 6.5 7.6 6.5 8 0 0.5 8.5 9.4 18.8 19.9 10.3 10.5 20.5 20.4 22.7 22 2.2 1.5 6.5 5 9.5 7.6 3 2.6 6.1 4.7 6.7 4.8 0.7 0 1.6 0.6 2 1.3 0.5 0.8 3.3 3.1 6.3 5.2 3 2.1 6.6 4.6 8 5.6 1.4 0.9 6.6 4.4 11.5 7.6 4.9 3.3 10.1 6.3 11.5 6.8 1.4 0.4 3.2 1.3 4 2 0.8 0.7 6.2 3.7 12 6.7 5.8 3 12.1 6.5 14 7.7 1.9 1.1 4.2 2.1 5 2.1 0.8 0 2.9 0.7 4.5 1.6 1.6 0.9 6.8 3.2 11.5 5.1 4.7 1.9 8.9 3.9 9.5 4.3 0.6 0.4 3.2 1.3 6 2 2.7 0.7 5.4 1.7 6 2.1 0.6 0.4 4.1 1.5 8 2.4 3.9 0.9 7.4 2 8 2.4 0.6 0.4 5.1 1.6 10 2.6 4.9 1 9.4 2.2 10 2.7 0.6 0.4 2.2 0.8 3.7 0.8 1.6 0 2.9 0.4 3 0.9 0.2 0.5 3.7 1.4 7.8 2 4.1 0.6 11.6 1.6 16.5 2.2 4.9 0.6 9.9 1.4 11 2 1.1 0.5 11.6 1.3 23.2 1.9 14.9 0.7 27.9 0.7 43-0.1 12-0.6 22.2-1.4 22.8-1.9 0.6-0.4 3.9-1 7.5-1.4 3.6-0.4 11.3-1.4 17.3-2.4 5.9-0.9 10.7-2 10.7-2.4 0-0.5 1.4-0.8 3-0.8 1.6 0 3.2-0.3 3.4-0.7 0.2-0.5 2.6-1.2 5.2-1.6 2.7-0.5 6.7-1.3 8.9-1.9 2.2-0.6 4.9-1.4 6-1.9 1.1-0.4 4.9-1.6 8.5-2.5 3.6-0.8 7-1.9 7.5-2.4 0.5-0.4 2.4-1 4-1.4 1.6-0.4 5.5-1.6 8.5-2.8 3-1.1 6.4-2.5 7.5-3.1 1.1-0.5 4.7-1.9 8-2.9 3.3-1.1 6.7-2.6 7.5-3.3 0.8-0.7 3.3-1.8 5.5-2.5 2.2-0.7 6.5-2.7 9.5-4.3 3-1.7 6.6-3.8 8-4.7 1.4-1 4.5-2.6 7-3.7 2.5-1.1 6.5-3.4 9-5.2 2.5-1.7 5.1-3.1 5.7-3.1 0.7 0 1.5-0.6 1.8-1.2 0.2-0.7 1.5-1.6 2.7-2 1.3-0.4 5.2-2.6 8.8-5 3.6-2.4 10.8-7.7 16-11.7 5.2-4 12.8-10.1 16.8-13.5 4.1-3.3 9.5-8 12-10.3 2.6-2.4 5.5-4.3 6.4-4.3 1 0 1.8-0.7 1.8-1.5 0-0.8 1.5-3.1 3.2-5.1 1.8-1.9 4.1-3.7 5-4 1-0.2 2.1-1.6 2.5-3.1 0.5-1.4 2.2-3.6 3.8-4.8 1.6-1.2 3.8-2.5 4.7-2.9 1-0.3 1.8-1.5 1.8-2.6 0-1.1 1.7-3.4 4-5.3 2.2-1.7 4-3.7 4-4.2 0-0.5 0.9-1.9 2-3 1.1-1.1 2.1-2.6 2-3.2 0-0.7 0.3-1.4 0.7-1.5 0.5-0.2 2.8-3 5.3-6.2 2.5-3.2 5.1-6 5.7-6.2 0.7-0.2 1.3-1.2 1.3-2.1 0-1 1.6-3.6 3.5-5.8 2-2.2 3.6-4.2 3.5-4.5 0-0.3 0.5-1.7 1.2-3.1 0.7-1.5 2.2-3.1 3.3-3.5 1.1-0.5 2.4-2.3 3-3.9 0.5-1.6 1.7-3.7 2.7-4.5 0.9-0.8 1.7-2 1.8-2.5 0-0.5 1.4-3 3-5.5 1.6-2.5 3-5.2 3-6 0-0.8 1.6-3.4 3.5-5.7 2.3-2.8 3.5-5.4 3.5-7.3 0-1.6 0.3-3.1 0.7-3.2 0.5-0.2 1.8-2.1 3-4.3 1.2-2.2 2.2-4.8 2.3-5.7 0-1 0.7-2.5 1.5-3.3 0.8-0.8 1.5-2.9 1.5-4.5 0-1.6 0.5-3 1-3 0.5 0 1-0.6 1-1.2-0.1-0.7 0.5-1.8 1.2-2.4 0.7-0.7 1.7-3.1 2.1-5.5 0.5-2.4 1.2-4.6 1.7-4.9 0.5-0.3 1.6-3 2.5-6 0.8-3 2.2-8.6 3.1-12.5 0.9-3.9 2-7.5 2.4-8 0.4-0.5 1.1-2.6 1.5-4.5 0.4-1.9 1.3-4.9 2-6.5 0.7-1.6 2-5.9 2.9-9.5 0.9-3.6 2.3-10.6 3.1-15.5 0.9-4.9 2.3-13.9 3.1-20 0.8-6.1 1.4-12.8 1.4-15 0-2.2 0.4-4.4 1-5 0.6-0.6 1.2-11.4 1.6-26 0.3-14.9 0.1-28.8-0.5-34.5-0.6-5.2-1.7-14.2-2.5-20-0.7-5.8-2.1-15.7-3-22-0.9-6.3-2.1-12.4-2.6-13.5-0.4-1.1-1.8-6.7-3-12.5-1.1-5.8-2.7-11.2-3.4-12-0.7-0.8-1.6-2.9-2-4.5-0.4-1.6-2.1-7.5-3.8-13-1.7-5.5-6.1-16.3-9.8-24-3.8-7.7-8.5-17.4-10.4-21.5-2-4.1-5-10-6.7-13-1.7-3-3.7-6.2-4.5-7-0.7-0.8-1.4-1.9-1.4-2.5 0-0.6-1.7-3.5-3.7-6.5-2.1-3-5.2-7.3-6.9-9.5-1.7-2.2-3.8-5.6-4.6-7.5-0.9-1.9-4.4-6.9-8-11-3.5-4.1-6.8-8.3-7.4-9.2-0.5-0.9-4-5.4-7.9-9.9-3.9-4.5-11.5-12.9-17-18.5-5.5-5.7-10.7-11.1-11.6-12.1-0.9-1-5.2-5.1-9.5-9.1-4.4-4-8.9-7.8-10.1-8.5-1.2-0.6-6.8-4.9-12.5-9.5-5.7-4.6-11-8.9-11.9-9.5-0.8-0.7-2.2-1.7-3.1-2.2-0.8-0.5-3.7-2.7-6.4-4.7-2.7-2-6.8-4.6-9.2-5.7-2.3-1.2-4.2-2.4-4.2-2.8 0-0.5-5-3.4-11.2-6.7-6.2-3.2-12.2-6.6-13.3-7.6-1.1-0.9-3.6-2.3-5.5-3-1.9-0.7-4.7-2.2-6.3-3.2-1.5-1-3.5-1.8-4.5-1.8-0.9 0-4.2-1.3-7.2-2.9-3-1.5-6.6-3.2-8-3.6-1.4-0.4-3.6-1.6-5-2.6-1.4-0.9-5-2.4-8-3.2-3-0.8-7.1-2.1-9-3-1.9-0.9-7.5-2.5-12.5-3.7-5-1.2-9.7-2.8-10.5-3.5-0.8-0.8-6.7-2.3-13-3.5-6.3-1.1-12.3-2.5-13.3-3-0.9-0.6-8.3-1.7-16.5-2.6-8.1-0.9-15.6-2-16.7-2.5-1.1-0.4-4.3-1.1-7-1.5-2.8-0.3-17.1-0.8-32-1-21.7-0.3-27.2-0.1-28 1-0.7 0.8-4.4 1.6-10 2zm110 123.2l6 2.4c3.3 1.4 7.5 3.5 9.3 4.7 1.7 1.3 3.7 2.3 4.2 2.3 0.5 0 1.5 1 2.1 2.2 0.7 1.3 2 3.2 3 4.3 1 1.1 3 3.1 4.3 4.5 1.4 1.4 2.6 3.2 2.6 4 0 0.8 0.6 2.2 1.4 3 0.7 0.8 2.2 4.7 3.4 8.5 1.2 3.8 2.5 8.5 2.9 10.4 0.5 1.8 1.1 3.5 1.5 3.7 0.5 0.2 0.8 1.3 0.8 2.4 0 1.1 0.9 3.7 2 5.7 1.1 2.1 2 4.4 2 5 0 1 7.9 1.3 36.2 1.3 25.9 0 39.3 0.5 46.8 1.5 5.8 0.8 11 1.9 11.5 2.5 0.5 0.6 1.8 1 2.7 1 1 0 4.8 1.6 8.5 3.6 3.8 2 9.5 5.1 12.8 7 3.3 1.8 8 5.5 10.5 8.2 2.5 2.6 6.1 6.6 8.1 8.7 1.9 2.2 6 8.3 9 13.5 3 5.2 6 11.3 6.6 13.5 0.6 2.2 1.6 5.8 2.2 8 0.5 2.2 1.3 6.5 1.6 9.5 0.4 3 1.1 6.4 1.6 7.5 0.7 1.3 0.9 46 0.6 129-0.3 83.1-0.8 129.6-1.5 134.5-0.6 4.1-1.7 10.1-2.4 13.4-0.7 3.2-1.9 6.3-2.6 7-0.7 0.6-1.3 2.1-1.2 3.3 0 1.3-0.8 4-1.8 6-0.9 2.1-2.4 4.3-3.2 4.9-0.8 0.6-2.3 3-3.3 5.2-0.9 2.3-2.2 4.2-2.7 4.2-0.5 0-1 1.1-1 2.5 0 1.6-0.6 2.5-1.5 2.5-0.8 0-1.5 0.6-1.5 1.2 0 0.7-3.8 4.9-8.4 9.3-4.7 4.4-11.3 9.5-14.8 11.4-3.5 1.8-7.2 4.2-8.3 5.2-1.1 1-4.5 2.6-7.5 3.5-3 0.9-6 1.9-6.5 2.4-0.5 0.4-3.7 1.2-7 1.8-3.3 0.7-17.9 1.7-32.5 2.2-14.6 0.6-45.1 1-67.9 0.8-37.5-0.3-41.5-0.5-42.5-2-0.8-1.3-0.7-2.3 0.4-4.4 0.8-1.5 2.2-2.9 3-3.2 0.8-0.3 3.1-1.8 5-3.4 1.9-1.5 4.1-2.8 4.8-2.8 0.6 0 1.8-0.8 2.5-1.8 0.7-0.9 1.9-2.2 2.8-2.7 0.9-0.5 4.2-3.1 7.5-5.6 3.2-2.5 7.8-6.4 14.4-12.9h44.8c42.3 0 45.2-0.1 53.2-2.1 4.7-1.2 8.7-2.4 9-2.8 0.3-0.3 2.3-1.5 4.5-2.6 2.2-1.1 7.5-5.3 11.8-9.5 5.4-5.1 8.6-9.2 10.3-13 1.4-3 3.1-6.2 3.9-7 0.8-0.9 1.8-6.3 2.5-14 0.8-8.8 1-49.8 0.8-139.5-0.3-115.6-0.5-127.4-2-132-0.9-2.8-3.3-7.1-5.2-9.8-2-2.6-3.6-4.9-3.6-5.2 0-0.3-1.2-2.1-2.8-4.2-1.5-2-4.4-4.8-6.6-6.2-2.1-1.4-6.4-4.1-9.5-6-3.1-1.8-7-3.8-8.6-4.4-1.9-0.7-21.9-1.3-105.8-2.2l-1.8-2.5c-1.1-1.4-3.3-6.3-5-11-1.6-4.7-4.2-12.1-5.6-16.5-1.4-4.4-3.6-10.3-4.8-13-1.3-2.8-2.7-6.3-3-8-0.4-1.7-1.8-4.5-3.1-6.3-1.3-1.7-4.2-4.1-6.4-5.2-3.9-1.9-6-2-65.8-2-58.4 0-61.9 0.1-65.7 1.9-2.2 1-5.1 3.1-6.5 4.7-1.4 1.6-3.4 5.6-4.5 8.9-1 3.3-2.7 7.3-3.6 9-0.9 1.7-2.4 5.7-3.4 9-0.9 3.3-3 9.8-4.7 14.5-1.7 4.7-3.9 10.2-4.9 12.2-1.1 2.1-2 3.9-2.2 4-0.1 0.1-21.6 0.5-47.7 0.8-32.1 0.4-49.3 1.1-53 1.9-3 0.7-9.8 3.3-15.1 5.9-7.5 3.7-10.4 5.7-13.5 9.6-2.1 2.7-4.8 5.9-5.9 7-1.1 1.2-3.2 4.8-4.8 7.9-1.5 3.1-3.2 7.8-3.8 10.4-0.8 3.1-1.3 21.3-1.5 50.8-0.2 25.3-0.6 46.2-0.9 46.5-0.3 0.3-0.5 37.1-0.5 81.8 0 47.9 0.4 81.9 0.9 83 0.5 0.9 1.4 5 2 9 0.8 5.2 2.1 8.9 4.8 13.5 2 3.4 6.6 9.5 10.2 13.4 3.6 4 6.9 7.3 7.3 7.3 0.5 0 2.3 1.1 4 2.4 1.8 1.3 6 3.6 9.3 5 3.3 1.5 8.5 3.1 11.5 3.6 3.1 0.6 25.1 1 49.8 1 42.4 0 44.3 0.1 45.5 1.9 0.6 1.1 2.9 3.2 4.9 4.8 2 1.5 8.7 7.2 15 12.5 6.2 5.4 11.6 9.7 12.1 9.8 0.4 0 2.3 1.6 4.2 3.5 2 2 3.3 4.1 3 5-0.4 1.3-3.5 1.4-22.2 1-12-0.3-30.6-0.5-41.3-0.5-10.7 0-26.5 0.1-35 0.2-8.5 0.1-21.8-0.4-29.5-0.9-7.7-0.6-16.5-1.7-19.5-2.4-3-0.7-6.6-2-8-2.8-1.3-0.9-3.8-2.1-5.5-2.6-1.6-0.6-6.6-3.3-10.9-6-4.5-2.8-12.7-9.6-18.7-15.5-6-5.8-10.9-11.3-10.9-12.2 0-1-0.6-2.1-1.3-2.5-0.8-0.5-2.6-3.5-4.1-6.8-1.6-3.3-3.6-7.8-4.6-10-1-2.2-2.3-5.4-3-7-0.7-1.6-2-7.7-2.8-13.5-1.3-8.9-1.6-29.7-1.9-135.5-0.3-82.7 0-128.1 0.7-134.3 0.5-5 2.1-12.7 3.5-16.9 1.4-4.3 3-8.9 3.6-10.3 0.6-1.4 1.7-3.6 2.5-5 0.7-1.4 2.4-4.5 3.6-7 1.1-2.5 6.7-9.2 12.2-15 5.6-5.8 11.7-11.3 13.6-12.4 1.9-1 4.2-2.4 5-3.1 0.8-0.6 4.7-2.8 8.5-4.7 3.8-2 10.6-4.3 15-5.2 4.4-0.8 11-1.6 14.7-1.6 3.8 0 7-0.4 7.3-1 0.3-0.6 12.5-1 33.8-1 25.9 0.1 33.5-0.2 34.4-1.2 0.6-0.7 2.3-5.8 3.8-11.3 1.4-5.5 3.3-11.3 4-13 0.8-1.6 2.4-5.5 3.6-8.5 1.2-3 3-6.3 4-7.2 1.1-1 1.9-2.2 1.9-2.8 0-0.5 2.7-3.7 6-7 3.3-3.3 6.4-6 7-6 0.5 0 2.9-1 5.3-2.1 2.3-1.2 6.7-2.8 9.7-3.5 4.3-1 21-1.2 145.5-0.8zm-67 90.9c12.8 0.3 22.1 1 26 1.9 3.3 0.8 9 2.2 12.8 3 3.7 0.9 8.4 2.5 10.5 3.7 2 1.2 5.7 2.8 8.2 3.6 2.5 0.9 7.4 3 11 4.8 3.6 1.8 7.2 4 8 4.9 0.8 0.9 1.9 1.7 2.5 1.6 0.6 0 4.4 2.3 8.5 5 4.1 2.8 10.8 7.8 14.9 11.3 4.1 3.4 8.8 7.6 10.5 9.3 1.7 1.6 5.4 5.4 8.1 8.4 2.8 2.9 5.5 6.1 6 7 0.5 0.9 3.1 4.6 5.7 8.1 2.6 3.5 5.6 7.5 6.6 8.9 1.1 1.4 3.5 5.6 5.5 9.5 2 3.9 5.1 10.4 7 14.5 1.9 4.1 4.2 9.2 5.1 11.3 0.9 2 1.6 4.1 1.6 4.7 0 0.6 0.6 2.5 1.4 4.3 0.7 1.7 1.8 5 2.4 7.2 0.6 2.2 1.6 7.6 2.3 12 0.6 4.4 1.6 8.4 2 9 0.5 0.6 1.3 11.8 1.8 25 0.5 13.9 0.5 24.4 0 25-0.5 0.6-0.9 2.7-0.9 4.8 0 2-0.3 3.9-0.7 4.1-0.5 0.2-1.2 2.8-1.6 5.7-0.4 3-1.5 8.8-2.4 12.9-0.8 4.1-1.9 8.2-2.3 9-0.5 0.8-2 5.3-3.4 10-1.4 4.7-3.1 9-3.8 9.6-0.7 0.6-2.1 3.3-3.2 6-1 2.7-2.5 6-3.4 7.4-0.9 1.4-2.8 4.8-4.2 7.5-1.5 2.8-5 8.1-7.9 12-2.8 3.9-5.1 7.2-5.1 7.5 0 0.3-2.1 2.8-4.8 5.5-2.7 2.8-5.1 5.5-5.3 6-0.2 0.6-2.9 3.4-5.9 6.2-3 2.9-6.2 5.3-7 5.3-0.8 0-2.4 1.4-3.5 3-1.1 1.7-6.5 6.1-12 9.8-5.5 3.7-11.4 7.4-13 8.3-1.6 0.9-5.7 3-9 4.7-3.3 1.7-8.9 4.1-12.5 5.3-3.6 1.2-7.2 2.7-8 3.4-0.8 0.6-3.5 1.7-6 2.4-2.5 0.8-8.1 2-12.5 2.8-4.4 0.8-11.8 1.9-16.5 2.5-4.7 0.5-15.7 0.7-24.5 0.5-8.8-0.3-17.4-1-19-1.6-1.6-0.5-6.4-1.5-10.5-2.1-4.1-0.7-9.5-1.9-12-2.7-2.5-0.8-6.3-2.3-8.5-3.2-2.2-1-6.5-2.8-9.5-4-3-1.3-7.3-3.2-9.5-4.2-2.2-1.1-6-3.1-8.5-4.5-2.5-1.4-6.7-4-9.5-5.9-2.7-1.8-7.9-5.6-11.5-8.5-3.6-2.8-10.9-9.2-16.2-14.1-5.4-4.9-9.8-9.5-9.8-10.1 0.1-0.7-0.7-2-1.6-2.8-1-0.8-3.3-3.6-5.3-6.1-2-2.5-4.1-5.5-4.8-6.5-0.7-1-2.8-4.3-4.8-7.1-1.9-2.9-3.5-5.8-3.5-6.3 0-0.5-1.3-3.6-2.9-6.7-1.6-3.2-3.5-7.4-4.4-9.3-0.9-1.9-2-5.2-2.6-7.2-0.6-2.1-1.5-4-2.1-4.3-0.6-0.3-1-1.3-1-2.2 0-1-0.8-3.8-1.9-6.3-1.1-2.5-2.9-9.7-4-16-1.2-6.3-2.1-13.1-2.1-15 0-1.9-0.4-3.9-1-4.5-0.7-0.6-1.1-9.1-1-24 0-12.6 0.4-23.4 0.8-24 0.5-0.6 1.4-5.3 2.1-10.5 0.7-5.2 2-12 2.8-15 0.8-3 1.9-5.9 2.4-6.5 0.5-0.6 0.9-1.9 0.9-3 0.1-1.1 0.7-2.9 1.5-4 0.9-1.1 1.5-2.8 1.5-3.7 0-1 1.4-4.8 3.1-8.5 1.7-3.8 3.8-8.6 4.6-10.8 0.8-2.2 4-7.8 7.1-12.4 3.1-4.6 6.9-10.2 8.5-12.5 1.5-2.2 8.1-9.6 14.7-16.3 6.5-6.8 12.3-12.3 12.7-12.3 0.4 0 2.2-1.5 4-3.3 1.7-1.7 4-3.9 5.1-4.7 1-0.8 3.4-2.4 5.3-3.4 1.9-1.1 5.7-3.6 8.4-5.6 2.8-2 6.8-4.6 9-5.8 2.2-1.1 8.7-3.9 14.5-6.2 5.8-2.2 11.9-4.7 13.5-5.5 1.6-0.7 4.8-1.7 7-2 2.2-0.4 4.4-1.1 5-1.5 0.6-0.4 4.8-1.3 9.5-1.9 4.7-0.6 9.9-1.3 11.5-1.5 1.6-0.3 12-0.3 23-0.1zm-31.5 40.1c-5.8 0.9-11.9 2.4-13.5 3.4-1.6 0.9-5.5 2.4-8.5 3.3-3 0.9-8 3-11 4.7-3 1.7-7.8 4.6-10.6 6.3-2.9 1.8-7.1 4.5-9.5 6.1-2.4 1.6-8.3 6.8-13.2 11.5-4.8 4.7-8.7 9-8.7 9.6-0.1 0.6-2.5 3.8-5.5 7.3-3 3.4-5.5 6.4-5.5 6.7 0 0.3-1.4 2.6-3.2 5.3-1.8 2.6-5.4 9.1-8 14.5-2.6 5.3-4.8 10.3-4.8 11 0 0.6-0.9 3-2 5.2-1.1 2.2-2.9 8.7-4 14.5-1.2 5.8-2.4 15.4-2.7 21.5-0.3 6.1-1 11.8-1.4 12.8-0.5 0.9-0.6 1.9-0.1 2.1 0.4 0.2 1 5.7 1.4 12.2 0.3 6.6 1.6 16 2.8 20.9 1.2 4.9 2.8 10.5 3.6 12.3 0.8 1.7 1.4 3.8 1.4 4.5 0 0.6 0.6 2.1 1.5 3.2 0.8 1.1 1.4 2.7 1.5 3.5 0 0.8 1.5 4 3.3 7 1.8 3 3.6 6.6 4 8 0.3 1.4 1.8 3.7 3.2 5.3 1.4 1.5 2.5 3 2.5 3.5 0 0.4 1.9 3 4.3 5.7 2.4 2.8 5.4 6.6 6.8 8.5 1.3 1.9 5.3 6.2 8.9 9.6 3.6 3.3 9 8.1 12 10.6 3 2.5 7.5 5.6 9.9 6.9 2.4 1.3 4.5 2.7 4.7 3.2 0.2 0.4 3.9 2.4 8.2 4.6 4.2 2.1 10.2 4.6 13.2 5.6 3 1 5.9 2.1 6.5 2.5 0.6 0.4 3 1.1 5.5 1.5 2.5 0.4 4.9 1.1 5.5 1.6 0.6 0.4 7.8 1.4 16 2.1 11.4 0.9 15.9 0.9 19 0.1 2.2-0.7 7.1-1.5 11-1.8 3.9-0.3 10.1-1.3 14-2.1 3.9-0.8 8.1-2.1 9.5-2.8 1.4-0.8 4.3-1.9 6.5-2.5 2.2-0.5 5.6-2.1 7.5-3.3 1.9-1.3 6.6-3.9 10.5-5.7 3.9-1.9 9.5-5.2 12.5-7.5 3-2.2 5.8-4.7 6.3-5.3 0.4-0.7 1.1-1.3 1.6-1.3 0.5 0 4.5-3.7 9-8.2 4.5-4.6 8.2-8.8 8.1-9.3 0-0.5 1.1-2.1 2.6-3.5 1.4-1.4 3.5-4.1 4.6-6 1.2-1.9 2.9-4.4 3.9-5.5 1-1.1 4.3-7.1 7.4-13.2 3-6.2 5.8-12.5 6.1-14 0.4-1.6 1.1-3.2 1.5-3.8 0.5-0.6 1.8-4.6 2.9-9 1.1-4.4 2.3-10.2 2.6-13 0.4-2.7 1.2-5.6 1.8-6.4 0.7-0.9 1.1-7.8 1.1-20.1 0-12.3-0.4-19.5-1.2-21.1-0.6-1.3-1.9-6.9-2.8-12.4-0.9-5.5-2.2-11.8-2.8-14-0.6-2.2-2.1-5.7-3.4-7.7-1.3-2.1-2.3-4.2-2.3-4.8 0-0.6-2.1-4.9-4.6-9.7-2.5-4.9-5.5-10.4-6.7-12.4-1.2-2-4-5.8-6.1-8.5-2.2-2.7-4.5-5.6-5.2-6.4-0.7-0.8-3.6-4.1-6.6-7.4-2.9-3.2-8.7-8.6-12.8-12.1-4.1-3.4-9.5-7.5-11.9-9.1-2.4-1.6-8.3-5-13-7.6-4.7-2.5-10.1-4.9-11.8-5.2-1.8-0.3-3.3-1-3.3-1.6 0-0.6-1-1-2.2-1-1.3 0-2.7-0.4-3.3-0.9-0.6-0.6-4.3-1.7-8.2-2.6-4-0.8-9.1-1.5-11.3-1.5-2.2 0-4.2-0.4-4.5-1-0.3-0.6-5.5-1-12.7-0.9-6.8 0.1-13.4 0.5-14.8 0.9-1.4 0.5-7.2 1.6-13 2.6zm-173 3.5c1.4-0.1 4.1 0.2 6 0.6 1.9 0.5 5.6 2.7 8.2 5.1 3.5 3 5.1 5.4 5.9 8.5 0.6 2.3 0.9 7.3 0.7 11.2-0.3 5.1-1 7.8-2.6 10-1.2 1.6-4.3 4-6.9 5.3-2.6 1.3-5.6 2.7-6.5 3.3-1 0.5-3 0.9-4.5 0.9-1.6 0-5-1.1-7.8-2.4-2.7-1.3-6.2-3.7-7.6-5.3-1.5-1.5-3.1-4.4-3.8-6.3-0.6-1.9-1.1-5.6-1.1-8.2 0-2.7 0.9-7.3 2-10.3 1.2-3.3 3.1-6.3 4.8-7.5 1.5-1.2 3.5-2.1 4.5-2 0.9 0 1.7-0.4 1.7-1 0-0.6 1-1.2 2.3-1.4 1.2-0.2 3.3-0.4 4.7-0.5zm395.5 1c3.3 0 6.7 0.8 10.3 2.4 2.8 1.4 5.2 2.9 5.2 3.5 0 0.6 1.4 2.9 3 5.3 2.7 3.6 3.1 5.1 3.1 10.7 0 5.6-0.4 7.1-3.1 10.8-1.6 2.3-3 4.5-3 5 0 0.4-2 1.6-4.3 2.7-3 1.4-6.2 2-11.2 2-5.9 0-7.7-0.5-11.2-2.8-2.4-1.5-4.6-3.3-5-3.9-0.4-0.7-1.3-2.9-2-4.8-0.7-1.9-1.3-6.6-1.3-10.5 0-4.2 0.5-8.2 1.4-10 0.8-1.6 2.5-4 3.8-5.2 1.3-1.2 3.9-2.8 5.8-3.6 1.9-0.9 5.8-1.6 8.5-1.6zm-197 29c8.3-0.1 17.7 0.4 21 1 3.3 0.6 8 1.7 10.5 2.5 2.5 0.9 4.9 1.9 5.5 2.3 0.6 0.5 2.8 1.4 5 2.1 2.2 0.7 5.7 2.4 7.8 3.7 2 1.2 4 2.3 4.5 2.3 0.4 0 3 1.6 5.7 3.6 2.8 2 9.2 7.8 14.3 12.8 5 5 9.2 9.5 9.2 10.1 0 0.6 0.9 1.9 2 3 1.2 1.1 3 3.8 4.1 6 1 2.2 2.3 4.7 2.8 5.5 0.5 0.8 1.7 3.3 2.6 5.5 0.9 2.2 2.2 5.1 2.9 6.5 0.8 1.4 1.7 4.1 2.1 6 0.4 1.9 1.1 3.9 1.5 4.5 0.4 0.6 1.2 4.3 1.9 8.3 0.6 3.9 1.1 14.7 1.1 24 0 9.2-0.5 19.6-1.1 23.2-0.6 3.6-1.4 7.4-1.9 8.5-0.5 1.1-1.2 3.1-1.6 4.5-0.4 1.4-2.2 5.6-4.1 9.5-1.9 3.9-4.8 9.7-6.5 13-1.7 3.3-3.6 6.6-4.2 7.2-0.6 0.7-2.5 3.1-4.1 5.3-1.6 2.3-4.6 5.9-6.5 8.1-1.9 2.2-3.9 4-4.5 4-0.6-0.1-2.8 1.7-5 3.9-2.2 2.1-4.4 3.9-5 3.9-0.6 0-1.7 0.8-2.5 1.7-0.8 0.9-6.4 4-12.5 6.9-6.1 2.9-12.8 5.7-15 6-2.2 0.4-4.9 1.2-6 1.8-1.1 0.5-6.7 1.3-12.5 1.7-5.8 0.4-14.8 0.4-20 0-5.2-0.4-12-1.6-15-2.5-3-1-5.9-2.2-6.5-2.7-0.6-0.4-1.9-0.8-3-0.8-1.1 0-3.6-0.8-5.5-1.9-1.9-1-4.6-2.2-6-2.6-1.4-0.4-5.9-3.1-10-5.8-4.1-2.8-9.2-6.5-11.2-8.2-2-1.6-5-3.9-6.5-5.1-1.5-1.1-4.5-4.6-6.5-7.7-2.1-3.2-4.2-5.7-4.8-5.7-0.6 0-1-0.4-1-1 0-0.6-1.6-3.1-3.5-5.7-1.9-2.7-3.4-5.1-3.5-5.5 0-0.5-1.3-3.6-2.9-7-1.6-3.5-3.4-8.3-4.1-10.8-0.6-2.5-1.6-5.3-2.1-6.2-0.5-1-1.4-5.7-2-10.5-0.7-5.1-1-16.2-0.7-26.3 0.3-9.9 0.9-18.4 1.6-19.5 0.6-1.1 1.6-4.2 2.2-7 0.7-2.7 2.6-8.6 4.4-13 1.7-4.4 4.5-10 6.1-12.4 1.7-2.4 3.7-5.4 4.5-6.6 0.8-1.3 2.4-3.5 3.5-5.1 1.1-1.6 6.1-6.8 11-11.6 5.8-5.6 12.1-10.5 17.8-13.7 4.8-2.8 9.1-5.1 9.7-5.1 0.6 0 2.9-0.8 5.3-1.9 2.3-1 5.6-2.4 7.2-3.1 1.6-0.7 5.7-1.9 9-2.6 3.3-0.6 12.8-1.3 21-1.3zm-6.2 37.9c-2.7 0.1-7.3 0.7-10.3 1.4-3 0.7-8.9 2.9-13 5-4.1 2-10.6 6.2-14.3 9.4-3.8 3.1-7.4 6.6-8 7.8-0.7 1.1-2.8 4.5-4.8 7.5-2 3-4.2 7.2-4.9 9.4-0.7 2.2-2.1 5.5-3.1 7.3-1 1.7-2.3 6-2.9 9.5-0.5 3.4-1 10-1 14.7 0 4.7 0.5 11.2 1 14.5 0.6 3.3 1.8 7.6 2.7 9.5 0.9 1.9 2.9 6.2 4.5 9.5 1.6 3.3 4.1 7.5 5.6 9.4 1.5 1.8 5.9 6.5 9.7 10.5 4.1 4.1 9.5 8.4 13 10.2 3.3 1.8 9.4 4.2 13.5 5.4 4.1 1.2 9.1 2.6 11 3.2 1.9 0.5 6.2 0.7 9.5 0.5 3.3-0.3 8.3-1 11-1.5 2.8-0.5 8-2 11.7-3.3 3.6-1.3 7.2-3 7.9-3.6 0.7-0.7 1.8-1.3 2.3-1.3 0.6 0.1 2.3-1.1 3.9-2.5 1.5-1.4 2.9-2.5 3.2-2.5 0.3 0 3.4-3 6.9-6.7 3.6-3.8 7.9-9 9.7-11.8 1.7-2.7 3.8-6.8 4.6-9 0.8-2.2 1.8-4.4 2.3-5 0.6-0.5 1.6-3.7 2.4-7 0.8-3.3 1.7-8.9 2.1-12.5 0.3-3.6 0.1-10.5-0.5-15.5-0.6-4.9-2-11.6-3.1-14.7-1-3.2-3-7.9-4.3-10.5-1.3-2.7-4.6-7.7-7.2-11.2-2.7-3.6-7.4-8.6-10.4-11.3-3-2.6-8.5-6.4-12.2-8.3-3.8-1.9-9.4-4.2-12.5-5-3.2-0.8-8-1.5-10.7-1.5-2.7 0-5.1-0.4-5.3-1-0.1-0.5-1.2-1-2.3-1-1 0-2.1 0.5-2.5 1-0.3 0.6-2.6 1-5.2 1z"/>
</svg>