<svg version="1.2" xmlns="http://www.w3.org/2000/svg" viewBox="0 0 850 850" width="850" height="850"><style>.a{fill:#fbc332}.b{fill:#fff}.c{fill:#68d2a8}.d{fill:#d89b02}.e{fill:#56476e}.f{fill:#32374d}</style><path fill-rule="evenodd" class="a" d="m206.1 117l0.5 11.3c0.3 7.2 1.1 13.5 2.4 17.7 1.1 3.6 3.8 9.4 6 13 2.2 3.6 6.4 8.9 9.3 11.8 2.8 3 8.9 7.7 13.4 10.5 5.8 3.7 8.6 6.1 9.5 8.2 0.6 1.7 3.1 5 5.4 7.5 2.3 2.5 8.5 9 13.8 14.5 5.3 5.5 9.6 10.6 9.6 11.3 0 0.6 0.4 1.2 1 1.2 0.6 0 7.2 6.3 14.8 14.1 7.5 7.8 15.3 15.8 17.2 17.8 1.9 2 4.3 4 5.3 4.4 1 0.4 1.7 1.8 1.7 5.7h-43.2c-23.8-0.1-44.3-0.1-45.5 0-1.4 0-4.6 2.2-7.8 5.2-4 3.8-6 6.6-7 10-0.8 2.7-1.5 5.7-1.5 6.8 0 1.1 0.4 2.2 1 2.5 0.6 0.3 1 1.3 1 2.2 0 1 1.9 3.7 4.2 5.9 2.4 2.3 5.9 4.9 7.8 5.8 3.2 1.5 19.1 1.6 199.3 1.6 185.7 0 195.7 0.1 195.7 1.7 0.1 1 20.4 22.2 45.3 47.2 24.9 24.9 46.8 46.8 48.7 48.7 1.9 1.9 3.7 3.4 4 3.4 0.3 0 0.8 13.8 1.3 30.7 0.4 17 0.4 32.3 0 34.1-0.6 2.6-1.3 3.2-3.3 3.2-1.4 0-4.1-1.1-6-2.6-1.9-1.4-4-3.3-4.5-4.3-0.5-0.9-2.1-3.5-3.5-5.7-1.4-2.1-3.9-7.3-5.5-11.4-1.7-4.1-4.6-9.8-6.5-12.5-1.9-2.8-6.3-8.1-9.9-11.9-3.6-3.7-9.5-8.7-13.1-11.1-3.6-2.3-9.2-5.4-12.5-6.9-3.3-1.5-9.6-3.4-14-4.3-6.1-1.2-10.9-1.4-20.2-0.9-10.2 0.5-13.6 1.1-20 3.6-4.3 1.6-9.9 4.4-12.5 6.2-2.5 1.8-39.4 37.8-82 79.9-42.5 42.1-91.7 90.7-109.3 108.1-17.6 17.3-34.8 33.8-38.3 36.7-3.4 2.8-7.1 6.6-8.2 8.3-1.1 1.8-2.7 5.8-3.6 8.8-0.8 3-1.9 6.4-2.4 7.5-0.5 1.1-3.8 11.2-7.4 22.5-3.5 11.3-7.2 23-8.1 26-0.9 3-3.7 12-6.1 20-2.5 8-6.2 19.6-11.9 37l1.9 3.8c1 2 4.2 6.1 7 9.1 2.8 2.9 6.2 5.9 7.6 6.6 1.4 0.7 4 1.1 5.8 0.9 2.2-0.3 3.4 0.1 3.7 1.1 0.3 0.8 1.6 1.5 3 1.5 1.4 0 3.5 0.6 4.8 1.2 1.2 0.7 2.5 1.8 2.9 2.3 0.5 0.5-0.2 1.8-1.5 2.8-2.1 1.7-6.2 1.8-68.5 1.7-54.2 0-66.7-0.2-69-1.4-1.5-0.7-3.4-2.2-4.2-3.1-0.8-1-4-3.4-7-5.3-3-1.9-7.5-5.7-10-8.3-2.5-2.6-6.2-8-8.2-12.1-2-4-4.6-10-5.8-13.3-1.1-3.3-2-7.2-2-8.8 0-1.5-0.4-2.9-1-3.2-0.7-0.3-1-98.7-1-292 0-264.7 0.1-292 1.6-296.8 0.9-2.8 2.7-7.6 4-10.4 1.3-2.9 2.4-5.6 2.4-6 0-0.5 1.3-2.1 3-3.8 1.7-1.7 3-3.4 3-4 0-0.6 1.9-2.9 4.2-5.1 2.4-2.3 6.1-5.1 8.3-6.2 2.2-1.2 5.5-2.1 10.6-2.2zm12.5 246c-2 1.9-4 4.6-4.5 6-0.4 1.4-1.4 4.3-2 6.5-0.9 2.9-1 4.3-0.2 5 0.6 0.6 1.1 2.1 1.1 3.5 0 1.7 1.6 4.1 5.1 7.5 2.7 2.8 6.7 5.6 8.7 6.2 2.9 1 40.3 1.3 167.9 1.3 108.6 0 164.5-0.3 164.8-1 0.3-0.6 1.7-1 3.2-1 2 0 4.1-1.4 7-4.5 2.4-2.5 5-6.2 5.8-8.2 0.9-2.1 1.5-5.4 1.5-7.3 0-1.9-0.6-5.1-1.3-7.1-0.6-2-1.9-4.4-2.7-5.3-0.8-1-3.7-3.2-6.5-4.9l-5-3.2c-317-0.3-330.4-0.2-334.7 1.3-2.5 0.9-6.2 3.3-8.2 5.2zm1.2 91c-2.6 1.9-5.6 5.4-6.7 7.8-1.2 2.3-2.1 5.2-2.1 6.5 0 1.2 0.9 4.5 1.9 7.2 1.3 3.4 3.5 6.4 6.7 9.3 2.7 2.3 6.2 4.5 7.9 4.7 1.6 0.3 58.8 0.4 127 0.3l124-0.3c6.2-4.4 8.9-6.6 10-7.8 1.1-1.2 2.6-3.3 3.3-4.7 0.8-1.4 1.6-4.5 1.9-7 0.4-3.4 0-5.5-1.6-8.8-1.1-2.3-4-5.8-6.4-7.7-2.3-1.9-4.9-3.4-5.7-3.4-0.8 0-1.7-0.3-2-0.6-0.3-0.3-56.1-0.6-124-0.7-80.3-0.2-124.6 0-126.6 0.7-1.7 0.6-5.1 2.6-7.6 4.5zm-0.9 91.6c-2.3 2.2-4.8 5.7-5.6 7.9-0.8 2.2-1.7 5.1-2 6.5-0.3 1.4 0 2.8 0.6 3.3 0.6 0.4 1.1 1.6 1.1 2.7 0 1.1 2.1 4.3 4.7 7.1 2.7 2.8 6.5 6 8.5 7 3.6 1.8 7.3 1.9 78.3 1.9h74.5c8.8-5 12.8-8.3 14.5-10.5 2.1-2.8 3.3-5.6 3.8-9.2 0.5-4.1 0.3-6.2-1.2-9.5-1-2.4-3.4-5.5-5.2-6.9-1.9-1.4-4.9-3.3-6.7-4.3-2.9-1.4-10.6-1.6-80-1.5-42.2 0-77.7 0.4-79 0.8-1.3 0.5-4.1 2.6-6.3 4.7zm1.7 129.1c-1.7 1.1-4.2 4.1-5.5 6.9-1.4 2.7-2.9 5.9-3.5 7.2-0.8 1.7-0.7 3.3 0.4 6.4 0.8 2.3 2.7 5.9 4.2 8q2.8 3.8 8.5 6.3c5.7 2.5 6.1 2.6 32.5 2.5 14.8 0 27-0.3 27.2-0.7 0.2-0.5 1.9-1.1 3.7-1.5 2.1-0.4 4.8-2.3 7.1-4.8 2.1-2.2 4.2-5.1 4.8-6.5 0.5-1.4 1-4.4 1-6.7 0-2.4-0.7-6.1-1.6-8.3-0.9-2.2-2.6-4.9-3.8-6.1-1.1-1.1-3.8-2.8-5.9-3.7-2-0.9-4.4-1.7-5.2-1.7-0.8 0-1.7-0.5-2-1-0.3-0.6-9.8-1-25.8-0.9-17.6 0.1-26.4 0.5-29.1 1.4-2.2 0.7-5.3 2.2-7 3.2z"/><path class="b" d="m584.7 486.9c-17.2 17-33.5 33.1-36.2 35.7-2.8 2.6-35.1 34.7-71.8 71.3l-66.8 66.6c3.6 2.7 4.9 3.5 5.3 3.5 0.5 0 2.3-1.2 4-2.6 1.8-1.4 20.8-19.7 42.1-40.7 21.4-21 66.7-65.9 100.8-99.7 35.8-35.6 61.8-62.1 61.7-63-0.2-1-1.7-1.6-4.1-1.8-3.8-0.3-4.1-0.1-35 30.7zm-218.7 221.9c-4.2 12.6-7 22.4-6.6 23.5 0.3 0.9 0.9 1.7 1.3 1.7 0.5 0 1.6-1.4 2.5-3 1-1.7 2.9-3.5 4.3-4 1.4-0.5 3-2 3.7-3.2 0.6-1.3 3.1-4.5 5.6-7.3 2.4-2.7 4.8-6 5.3-7.2 0.5-1.3 2.1-3.1 3.6-4 1.6-1 3.1-2.2 3.5-2.8 0.4-0.5-2.5-4.3-6.5-8.3-4-4-7.7-7.2-8.3-7.2-0.6 0-4.4 9.8-8.4 21.8z"/><path class="c" d="m625.5 455.4c-1.1 0.7-1.9 1.9-1.7 2.7 0.1 0.8-27.4 29-61.1 62.7-33.6 33.6-61.7 61.2-62.2 61.2-0.6 0-18.4 17.3-39.5 38.5-21.2 21.2-40.2 39.8-42.3 41.3-2.1 1.5-3.8 3.5-3.7 4.5 0 0.9 2.8 4.4 6.3 7.7 3.4 3.3 7 6 8 6 0.9 0 2.3-1 3.1-2.2 0.8-1.3 47.2-48.3 103.2-104.4 56.1-56.2 103-103.3 104.4-104.7l2.5-2.6c-4.3-4.7-5.5-6.5-5.5-7.1 0-0.5-1.5-1.9-3.3-3-1.7-1.1-3.9-2-4.7-2-0.8 0.1-2.4 0.7-3.5 1.4zm-239.8 249.6c-2 1.7-3.7 3.7-3.7 4.5 0 0.8-0.7 1.7-1.5 2-0.8 0.3-1.5 1.1-1.5 1.8 0 0.6-4 5.4-9 10.5-4.9 5-9 9.8-9 10.5 0 0.6 1.2 2.7 2.5 4.5 1.4 1.7 3.4 3.2 4.5 3.2 1.1 0 2.2-0.3 2.4-0.7 0.2-0.5 2.6-1.2 5.2-1.7 2.7-0.4 6.3-1.4 7.9-2.1 1.6-0.7 7.7-2.8 13.5-4.5 5.8-1.8 12.2-4 14.3-4.9 2-0.9 3.7-1.9 3.7-2.3 0-0.5-5.2-5.9-11.6-12-6.3-6.2-12-11.4-12.7-11.5-0.7-0.2-2.9 1.1-4.9 2.7z"/><path class="d" d="m261.3 51.5c-1.8 0.8-3.8 2.4-4.3 3.5-0.6 1.2-1 15.5-1 36.5 0 31.6 0.1 34.6 1.7 36.2 1 0.9 2.7 2.2 3.8 3 1.2 0.9 3.2 1.2 5 0.9 1.6-0.3 4.3-1.8 5.8-3.3l2.8-2.8c-0.6-68.9-0.7-70.5-2.6-72.4-1.1-1.1-3.4-2.3-5-2.6-1.7-0.3-4.4 0.2-6.3 1zm159.3 0.4c-1.6 1-3.6 3.4-4.3 5.2-0.9 2.5-1.2 11.8-1.2 34.7 0 20.5 0.4 32.1 1.1 34 0.6 1.5 2.1 3.5 3.3 4.4 1.1 1 3.5 1.8 5.1 1.8 1.9 0 4.3-1 6.3-2.7l3.3-2.8c0-54.3-0.2-70.7-0.5-71.5-0.3-0.8-2.1-2.3-4.1-3.3-1.9-0.9-4.1-1.7-4.8-1.7-0.6 0-2.6 0.9-4.2 1.9zm159 0.1c-1.7 1.1-3.6 3.6-4.3 5.7-0.9 2.8-1.2 11.7-1.1 33.8 0.1 22.6 0.5 30.9 1.5 33.5 0.8 2.2 2.7 4.3 4.9 5.5l3.6 2c6.6-3.8 7.6-5.2 8.2-8.2 0.5-2.1 0.7-18.3 0.5-36-0.3-30.8-0.4-32.3-2.4-35-1.3-1.7-3.2-2.9-5-3.1-1.6-0.1-4.2 0.6-5.9 1.8zm-251.6 52.6c-1 1.2-1.6 6.6-2.1 19.3-0.3 9.7-1.2 19.4-1.8 21.6-0.7 2.2-2.3 6.1-3.6 8.7-1.3 2.7-4.1 7.2-6.2 10.2-2 2.9-6 7.3-8.7 9.8-2.8 2.4-7.3 5.8-10 7.6-2.8 1.7-7.9 4.1-11.5 5.2-4.7 1.5-10 2.2-19 2.5-9.7 0.3-13.2 0.1-15.5-1.1-1.7-0.8-3.8-1.4-4.8-1.4-0.9 0-2 0.6-2.3 1.2-0.3 0.7 0 2.6 0.6 4.3 0.7 1.7 7.9 9.7 15.9 18 8.1 8.2 23.1 23.8 33.4 34.5l18.8 19.5 311.5 1c6.5 4.3 9.5 7 10.9 8.7 1.4 1.9 2.9 5.8 3.5 9 0.9 5.3 0.8 6.2-1.5 10.8-1.4 2.7-3.7 5.8-5.3 6.7-1.5 1-2.9 2-3.2 2.3-0.3 0.3-2.3 1.3-4.5 2.2-2.2 0.9-4.8 1.9-5.8 2.2-0.9 0.3-1.6 1.3-1.5 2.1 0.2 0.8 22.8 24 50.3 51.5 29.2 29.2 50.5 49.9 51.2 49.5 1-0.4 1.2-26.8 1-128.3-0.3-116.9-0.4-128.2-2-133.4-0.9-3.2-3.1-8.4-4.8-11.5-1.7-3.2-4.1-7.1-5.2-8.8-1.2-1.6-4.6-5.3-7.7-8.2-3-2.8-7.2-6.3-9.3-7.7-2-1.4-4.2-2.6-4.7-2.6-0.5 0-2.5-0.9-4.3-2-1.7-1.1-6.4-2.6-10.2-3.5-3.9-0.8-10.4-1.5-14.5-1.5-5-0.1-7.9 0.3-8.6 1.2-0.7 0.8-1.6 9.6-2.2 21.3-0.9 17.7-1.3 20.8-3.6 26.8-1.4 3.7-5 9.7-7.9 13.5-3 3.7-7.8 8.6-10.8 10.9-3 2.3-7.7 5.3-10.4 6.6-2.8 1.4-7.3 3.3-10 4.3-3.6 1.3-8.2 1.8-16.5 1.8-8.7 0-12.8-0.4-17-1.8-3-1-7.8-3-10.5-4.3-2.8-1.4-7.2-4.4-10-6.7-2.7-2.2-6.3-5.6-8-7.5-1.6-1.9-4.3-5.3-5.9-7.5-1.6-2.3-3.9-6.3-5.1-9.1-1.3-2.7-2.7-7.4-3.4-10.2-0.6-2.9-1.1-12.4-1.1-21 0-11.4-0.3-16.2-1.2-17.1-1-0.9-5.8-1.2-17.8-1.3-12.3 0-16.8 0.3-17.6 1.3-0.7 0.8-1.5 9.1-2.1 20.3l-1 19c-7.8 18.8-9.1 20.8-15.3 27-3.9 3.9-7.6 7.2-8.3 7.4-0.6 0.2-2.6 1.4-4.2 2.6-1.7 1.3-4.6 3.1-6.5 4-1.9 1-6 2.4-9 3.2-3 0.8-8.7 1.7-12.5 2-3.9 0.3-9.3 0-12-0.5-2.8-0.6-7.3-1.6-10-2.3-2.9-0.7-8.1-3.4-12.5-6.4-4.1-2.8-9.7-7.4-12.4-10.1-2.6-2.7-6.7-8-9-11.9-2.3-3.8-5.1-10.1-6.1-14-1.3-4.9-2-12.2-2.4-24l-0.6-17c-32.1-0.5-34.4-0.3-35.6 1.1zm373.9 358.1c0.4 2.7 0.7 9.7 0.7 15.8 0 6.4-0.6 13.1-1.4 16-0.8 2.7-2.9 8.1-4.7 12-2 4.3-6.1 10.3-10.6 15.5-4.1 4.7-23.8 24.5-43.7 44-19.9 19.5-50 49.2-66.9 65.8-16.9 16.7-48.2 47.9-69.7 69.3-21.4 21.4-40.8 40.7-43 43-2.2 2.3-5.6 4.9-7.5 5.9-1.9 1-7.5 3-12.5 4.5-4.9 1.4-13.7 4.2-19.5 6-5.8 1.9-13.2 4.1-16.5 5-3.3 0.9-6.9 2-8 2.5-1.1 0.4-2.9 1-4 1.3-1.1 0.3-10.3 3-20.5 6.1-10.2 3.1-24.4 7.5-31.5 9.8-7.1 2.2-13.1 4.1-13.3 4.2-0.2 0-0.1 1.1 0.2 2.3 0.3 1.3 1.3 2.3 2.1 2.3 0.8 0 1.5 0.5 1.5 1 0 0.5 1.4 1 3 1 1.6 0 3 0.5 3 1 0 0.7 54.4 1 161.3 1h161.2c10.9-3.3 16.3-5.4 19-6.8 2.8-1.3 7.5-4.4 10.5-6.7 3-2.3 7.5-6.4 9.8-9.1 2.4-2.7 5.6-6.7 7.1-8.9 1.5-2.2 3.9-7.4 5.4-11.5 1.5-4.1 3.2-10 3.7-13 0.6-3.5 1-54.6 1-138 0-109.8-0.2-132.6-1.3-133-0.7-0.3-2.5-1.5-4-2.8-1.5-1.2-2.7-2.5-2.7-3 0-0.4-1.4-2.2-3-4-1.7-1.7-3.7-3.2-4.5-3.2-1.2 0-1.3 0.9-0.7 4.7z"/><path class="e" d="m182.5 100.7c-1.7 0.2-3.9 0.8-5 1.3-1.1 0.5-3.8 1.4-6 1.9-2.2 0.6-5.7 2.2-7.8 3.6-2 1.4-4.1 2.5-4.5 2.5-0.4 0-3.9 2.8-7.7 6.3-3.9 3.5-9.1 9.6-11.8 13.5-2.6 4-5 8.4-5.3 9.9-0.4 1.6-1.1 3.2-1.5 3.8-0.5 0.6-1.2 3.4-1.6 6.4-0.5 2.9-1.1 5.5-1.5 5.7-0.5 0.2-0.8 131.8-0.8 292.4 0 160.6 0.3 292.2 0.8 292.4 0.4 0.2 1.1 2.3 1.5 4.7 0.5 2.4 1.2 4.9 1.6 5.4 0.5 0.5 1.1 2.4 1.5 4 0.4 1.7 1.4 4.6 2.4 6.5 0.9 1.9 3.4 5.6 5.4 8.3 2.1 2.6 3.8 5 3.8 5.5-0.1 0.4 2.4 3 5.3 5.7 3 2.8 7.4 6.4 9.8 8.2 2.4 1.7 6.5 4.3 9.2 5.7 2.6 1.4 5.5 2.6 6.5 2.6 0.9 0 3.4 0.6 5.5 1.5 2.1 0.8 6.7 1.5 10.7 1.5 3.8 0 7.2 0.5 7.5 1 0.3 0.5 2.5 1 5 1 2.5 0 5.2-0.2 6-0.5 0.8-0.3 1.5-1.4 1.5-2.5 0-1.1-1.2-2.8-2.7-3.7-1.6-1-3.1-2.3-3.5-3-0.5-0.7-1.8-1.8-3-2.3-1.3-0.6-3.2-1.6-4.3-2.3-1.1-0.7-3.5-2.3-5.2-3.7-1.8-1.4-3.5-3.3-3.8-4.2-0.3-1-1.1-1.8-1.7-1.8-0.7 0-2.3-1.3-3.5-3-1.3-1.6-2.5-4.1-2.8-5.5-0.3-1.4-0.9-2.5-1.5-2.5-0.6 0-1-0.6-1-1.2 0-0.7-1-3.3-2.2-5.8-1.1-2.5-2.5-5.5-2.9-6.7-0.5-1.3-1.5-3.5-2.1-5-1-2.1-1.3-63.5-1.3-296.8 0-207.3 0.3-294.9 1.1-296.6 0.6-1.3 2.2-4.9 3.7-7.9 1.5-3 2.7-5.9 2.7-6.5 0.1-0.5 1.3-2.5 2.8-4.4 1.5-1.8 5.1-5.6 8-8.5 2.9-2.8 7.9-6.5 11-8.1l5.7-3c1.2-10.9 1.3-14.6 1-15.2-0.4-1-3.5-1.3-11.3-1.2-5.9 0.1-12 0.4-13.7 0.6zm41.5 163.8c-2.5 1.2-5.6 3.3-7 4.6-1.4 1.3-3.4 3.8-4.4 5.4-1 1.7-2.1 5.3-2.4 8-0.2 2.8-0.2 7 0.2 9.5 0.5 3.2 1.7 5.6 4.3 8.5 2 2.2 5.5 4.8 7.7 5.8 3.9 1.7 14.4 1.8 201.3 1.7h197.3c6.6-3.3 8.7-4.6 9-5 0.3-0.3 1.2-0.9 2-1.2 0.8-0.3 2.5-2.5 3.7-4.9 1.6-3.2 2.3-6.2 2.3-10.9 0-4.9-0.6-7.5-2.2-10.7-1.3-2.3-4-5.3-6.1-6.7-2-1.4-4.4-2.6-5.2-2.6-0.8 0-1.7-0.4-2-1-0.3-0.7-66-1-194-1-128 0-193.7-0.3-194-1-0.3-0.5-1.7-1-3.3-0.9-1.5 0.1-4.7 1.1-7.2 2.4zm3.5 90.2c-1.1 0.3-2.4 0.9-3 1.4-0.5 0.5-1.6 0.9-2.5 0.9-0.9 0-3.3 1.7-5.3 3.8-2 2-3.7 4.3-3.7 5 0 0.6-0.6 1.4-1.3 1.5-0.8 0.3-1.2 3.2-1.2 10.5v10.1c7.7 7.9 11.6 10.9 13.5 11.7 3 1.2 26.7 1.4 170.2 1.4 159.4 0 167-0.1 171-1.8 2.5-1.1 6-3.9 8.3-6.7l4-4.8c0-22.6 0-22.7-3-25.4-1.6-1.6-4.5-3.9-6.5-5.3l-3.5-2.5c-259.6-0.2-335.9-0.1-337 0.2zm-3.2 93c-1.2 0.2-2.8 1.1-3.5 1.9-0.7 0.8-1.8 1.5-2.4 1.4-0.6 0-2 1-3.1 2.3-1.1 1.2-2.7 3.9-3.6 6-1 2-1.7 6.3-1.7 9.5q0 5.7 2.2 10.9c1.8 4.2 3.4 6 7.8 8.8l5.5 3.5c197.1 0 252.3-0.4 253.3-0.9 0.9-0.5 3.4-1.7 5.6-2.7 2.1-1.1 5.3-3.7 7.2-5.9 1.8-2.2 3.6-5.6 3.9-7.5 0.2-1.9 0.5-5.4 0.5-7.7 0-2.4-0.9-6.3-2-8.8-1.4-3.1-3.5-5.5-6.8-7.7l-4.7-3.3c-198.4-0.2-257 0-258.2 0.2zm-1.8 92.3c-1.7 1.1-4.2 2.6-5.8 3.5-1.5 0.8-3 2.7-3.4 4.3-0.3 1.5-1.3 3.8-2.1 5.2-1.2 1.8-1.4 4.2-1 9 0.3 3.8 1.2 7.7 2.3 9.5 1.1 1.7 3.2 4.2 4.7 5.8 1.5 1.5 4.4 3.4 6.3 4.2 3 1.3 14.4 1.5 81.2 1.5h77.8c7-3.7 10.7-6.7 12.8-9.1 3.8-4.3 3.8-4.5 4-13.4 0.2-7.9-0.1-9.4-2.1-12.2-1.2-1.8-4.9-4.9-8.2-6.8l-6-3.5c-154.3 0.1-157.6 0.2-160.5 2zm4.9 128.9c-0.4 0.4-2 1.1-3.6 1.5-1.5 0.3-4.1 1.4-5.6 2.4-1.5 1-3.8 4.1-5.2 6.8-2 4-2.5 6.3-2.5 12.9 0 7.4 0.2 8.3 3 11.8 1.6 2.1 5.4 5.2 8.2 6.8l5.3 2.9c57.1 0 58.7-0.1 63-2.1 2.5-1.2 6.2-3.8 8.2-5.8 3.4-3.2 3.9-4.4 4.7-10.6 0.6-4.7 0.6-8.5-0.1-11.5-0.6-2.5-2.3-5.7-3.7-7.1-1.4-1.4-3.8-3.3-5.4-4.2-1.5-0.9-4.6-2.4-7-3.2-3.3-1.2-9.9-1.5-31.4-1.5-15 0-27.5 0.4-27.9 0.9z"/><path fill-rule="evenodd" class="f" d="m265.5 0c21.7 0 33.5 0.4 33.5 1 0 0.5 1.4 1.5 3 2 1.6 0.5 5 2.9 7.5 5.3 2.5 2.3 4.7 5.2 5 6.5 0.3 1.2 1.3 2.4 2.3 2.7 0.9 0.3 2.8 2.9 4.1 5.8 1.3 2.8 2.6 6.9 3 9 0.3 2 0.9 3.7 1.4 3.7 0.4 0 0.9 2.3 1.7 10l35.5-0.5 1-5.2c0.6-2.8 1.3-5.5 1.8-6 0.4-0.4 0.7-1.6 0.7-2.5 0-1 0.4-1.8 1-1.8 0.6 0 1-0.7 1-1.5 0-0.8 0.3-1.5 0.8-1.5 0.4 0 1.4-2 2.2-4.5 0.8-2.5 2.1-4.8 2.8-5 0.6-0.3 1.2-0.9 1.2-1.5 0-0.6 1-2.4 2.3-4 1.2-1.7 2.5-3 3-3 0.4 0 1.7-1 3-2.3 1.2-1.3 3.9-3.3 6-4.5 3.6-2.1 4.5-2.2 36.7-2.2 21.3 0 33 0.4 33 1 0 0.5 0.8 1.2 1.7 1.4 1 0.3 4.8 3.3 8.5 6.8 3.7 3.5 6.7 6.7 6.7 7.3 0.1 0.6 1 2 2.1 3.3 1.1 1.2 2.8 3.7 3.9 5.5 1 1.7 2.3 5.6 3 8.5 0.6 2.8 1.1 6.6 1.1 8.2 0 1.7 0.6 3.2 1.4 3.5 0.8 0.3 8.7 0.5 17.5 0.5 14.4 0 16.2-0.2 16.8-1.7 0.3-1 0.9-2 1.3-2.3 0.4-0.3 1.2-3.9 1.9-8 0.7-4.1 1.9-8.2 2.6-9 0.8-0.8 1.5-2.1 1.5-2.7 0-0.7 1.6-2.9 3.5-4.8 1.9-1.9 3.5-4.1 3.5-4.7 0-0.7 1.7-2.8 3.7-4.7 2.1-1.8 5.5-4.1 7.6-5 2-0.9 3.7-1.9 3.7-2.3 0-0.5 14.6-0.8 32.5-0.8 29.1 0 32.8 0.2 35.6 1.8 1.7 0.9 4.1 2.6 5.3 3.8 1.1 1.1 4.9 5.2 8.3 9.2 4.4 5 6.5 8.3 6.8 10.7 0.3 1.9 0.8 3.5 1.2 3.5 0.5 0 1.7 3.5 2.7 7.7 1.1 4.3 2.5 8.1 3 8.5 0.6 0.4 7.5 0.8 15.3 0.8 8.5 0 14.5 0.4 14.8 1 0.3 0.5 2.7 1 5.5 1 2.7 0 7.3 0.6 10 1.3 2.8 0.6 5 1.4 5 1.7 0 0.3 1.8 0.8 4 1.3 2.2 0.4 4.3 1.3 4.7 2 0.5 0.7 3.9 2.5 7.8 4.1 3.9 1.5 7.2 3.1 7.5 3.4 0.3 0.4 2 1.7 3.7 3 1.8 1.2 3.6 2.2 4 2.2 0.5 0 2 1.2 3.4 2.7 1.5 1.6 4.7 4.4 7.3 6.3 2.5 1.9 4.6 4.1 4.6 4.8 0 0.6 1.6 2.7 3.5 4.5 1.9 1.7 3.4 3.7 3.5 4.2 0 0.5 1.2 2 2.5 3.3 1.4 1.2 2.5 2.9 2.5 3.7 0 0.8 0.3 1.5 0.7 1.5 0.5-0.1 2.1 2.5 3.8 5.7 1.6 3.2 3.2 6 3.6 6.3 0.3 0.3 1.2 2.8 1.9 5.5 0.7 2.8 1.9 5.3 2.7 5.8 0.7 0.4 1.6 2.6 1.9 5 0.4 2.3 1 4.6 1.5 5.2 0.5 0.6 1.4 7.2 2.1 14.8 0.7 7.5 1.6 13.7 2 13.7 0.5 0 0.8 2.5 0.8 5.5 0 3-0.5 5.5-1 5.5-0.7 0-1 51-1 151 0 100 0.3 151 1 151 0.6 0 1 3.2 1 7.5 0 4.3-0.4 7.5-1 7.5-0.7 0-1 34-1 100 0 66 0.3 100 1 100 0.6 0 1 7.8 1 21.5 0 11.8-0.3 21.5-0.8 21.5-0.4 0-1 6.6-1.4 14.7-0.6 10.5-1.2 15.4-2.3 17.1-0.8 1.2-1.8 4.1-2.2 6.5-0.4 2.3-1.5 5-2.5 6-1 0.9-1.8 2.9-1.8 4.5-0.1 1.5-1.1 4.5-2.3 6.7-1.2 2.2-2.5 4.1-3 4.3-0.4 0.1-0.7 1-0.7 2 0.1 0.9-0.9 2.6-2 3.7-1.1 1.1-2.1 2.6-2 3.3 0 0.6-0.8 1.8-1.8 2.5-0.9 0.6-2.4 2.6-3.2 4.2-0.8 1.6-2.1 3.3-2.7 3.8-0.7 0.4-1.3 1.5-1.3 2.5 0 0.9-0.9 2.5-2 3.5-1.1 0.9-2.6 1.7-3.3 1.7-0.6 0-2.4 1.3-4 2.8-1.5 1.5-2.7 3.3-2.7 4 0 0.6-0.6 1.8-1.3 2.5-0.7 0.6-2.3 1.8-3.5 2.5-1.2 0.6-2.9 1.2-3.7 1.2-0.8 0-1.7 0.9-2 2-0.3 1.2-1.3 2-2.5 2-1.1 0-2 0.5-2 1 0 0.5-0.6 1-1.3 1-0.6 0.1-2.8 1.4-4.7 3.1-1.9 1.6-4.3 2.9-5.3 2.9-1 0-2.5 0.7-3.3 1.5-0.9 0.8-2.9 1.5-4.5 1.5-1.6 0-2.9 0.3-2.9 0.8 0.1 0.4-1.2 1.3-2.7 2-2.2 1-56.8 1.2-271.3 1-244.2-0.3-268.8-0.4-271-1.9-1.4-0.9-4.2-1.9-6.3-2.2-2-0.4-3.7-1.2-3.7-1.7 0-0.5-0.7-1-1.5-1-0.8 0-2.6-1.1-4-2.5-1.4-1.4-3.3-2.5-4.3-2.5-0.9 0.1-2.6-0.9-3.7-2-1.1-1.1-2.6-2.1-3.3-2-0.6 0-1.7-0.9-2.2-2-0.6-1.1-1.8-2-2.8-2-0.9-0.1-2.7-1.3-4-2.8-1.3-1.5-4-4.5-6.1-6.7-2-2.2-4.5-4.3-5.4-4.7-0.9-0.5-2.6-2.6-3.7-4.8-1.1-2.2-2.3-4-2.8-4-0.4 0-1.3-1.5-2.1-3.2-0.8-1.8-2-3.8-2.5-4.4-0.6-0.7-1.8-2-2.6-3-0.9-1.1-2.2-3.4-3-5.2-0.8-1.7-1.8-3.2-2.3-3.2-0.4 0-1-1.7-1.4-3.7-0.3-2.1-1.2-4.7-1.9-5.8-0.7-1.1-1.7-3.9-2.1-6.3-0.4-2.3-1.4-4.4-2.1-4.7-0.6-0.3-1.5-2.9-1.8-5.7-0.3-2.9-1.1-5.9-1.8-6.7-0.8-1-1.1-79.8-1.1-306.1 0-228.4 0.3-305 1.2-306.1 0.6-0.8 1.5-4.5 2-8.3 0.4-4 1.3-7 2-7.2 0.7-0.2 1.6-2.3 1.9-4.6 0.3-2.4 1.2-5.3 2-6.5 0.8-1.3 1.4-2.9 1.4-3.5 0-0.7 1.1-3.5 2.5-6.3 1.3-2.7 3.8-6.5 5.5-8.2 1.6-1.8 3-4 3-4.8 0-0.8 0.9-2.1 2-2.7 1.1-0.7 2-1.7 2-2.3 0-0.5 3.6-4.7 8-9.2 4.4-4.6 8.5-8.3 9-8.3 0.6 0 2.2-1.3 3.7-2.8 1.6-1.6 4.3-3.7 6.2-4.8 1.8-1 5.2-2.9 7.5-4.1 2.2-1.3 4.8-2.3 5.6-2.3 0.8 0.1 2.6-0.8 4-1.8 1.4-1.1 4.1-2.3 6-2.7 1.9-0.4 3.7-1.1 4-1.6 0.3-0.5 4.5-1.4 9.5-2 4.9-0.6 9.8-1.5 10.7-2 1-0.5 7.8-0.8 15-0.8 7.3 0.1 13.7 0 14.3-0.3 0.5-0.3 1.3-3.4 1.7-6.9 0.4-3.5 1.2-6.8 1.6-7.4 0.5-0.5 1.4-3 2.2-5.5 0.7-2.5 1.8-5.1 2.4-5.9 0.6-0.7 2.3-2.6 3.8-4.1 1.5-1.6 2.7-3.3 2.7-3.9 0.1-0.6 1-1.5 2.1-2.1 1.1-0.5 3.4-2.3 5.1-3.8 1.7-1.6 3.9-3.2 5-3.5 1-0.4 1.9-1.1 1.9-1.7 0-0.6 11.8-1 33.5-1zm-9 55.8v69.4c6.5 5.9 8.1 6.6 9.7 6.2 1.3-0.3 3.5-1.8 5-3.3 1.9-1.8 2.7-3.8 2.9-6.6 0.1-2.2 0.2-17.7 0.1-34.5l-0.2-30.5c-4.8-5.2-7-6.5-8.5-6.5-1.3 0-3.9 1.3-5.7 2.9zm160.9 0c-1.6 3.2-1.9 7.4-2.2 34.2-0.4 28.2-0.3 30.8 1.4 34.4 1 2.1 3.1 4.8 4.6 6 2.5 1.9 2.9 2 5.8 0.6 1.8-0.8 4-2.9 5-4.5 1.8-2.8 1.9-5.6 1.9-34.8 0.1-23.9-0.3-32.5-1.2-35-0.8-1.8-2.5-4-3.8-5-1.3-0.9-3.3-1.7-4.4-1.7-1.1 0-2.8 0.5-3.7 1.1-0.9 0.6-2.4 2.7-3.4 4.7zm158.1 0.3c-0.5 47.6-0.4 63.3-0.1 65.6 0.3 2.4 1.6 5.5 2.8 6.9 1.4 1.6 3.3 2.6 5.1 2.6 1.9 0 3.9-1 6-3.1l3.2-3.2-0.7-68.4c-4.9-5.1-7.3-6.5-8.4-6.5-1.1 0-3.4 1.4-5 3zm-396 47.8c-1.1 0.5-3.1 1.3-4.5 1.9-1.4 0.6-3.6 1.4-5 1.8-1.4 0.4-5.2 2.5-8.5 4.7-3.3 2.3-8.4 6.4-11.3 9.2-2.9 2.7-5.2 5.6-5.2 6.3 0 0.7-0.7 1.5-1.5 1.8-0.9 0.3-1.8 1.3-2 2.2-0.3 1-1.4 3.3-2.6 5.2-1.2 1.9-2.8 5.5-3.7 8-0.8 2.5-1.9 6.5-2.5 9-0.6 2.8-0.9 114.7-0.8 292.5 0.1 158.4 0.5 290 0.8 292.5 0.3 2.5 0.9 5 1.3 5.5 0.5 0.6 1.1 2.7 1.4 4.8 0.3 2 0.9 3.7 1.3 3.7 0.5 0 1.3 1.9 2 4.3 0.6 2.3 3.1 6.9 5.5 10.1 2.4 3.3 6.4 8 8.9 10.5 2.5 2.6 6.8 6.2 9.5 8.2 2.7 2 7.4 4.9 10.4 6.3 3 1.5 6.2 2.7 7 2.7 0.8 0 3.3 0.7 5.5 1.5 3.4 1.3 14.8 1.5 80.5 1.3 42.1-0.2 148.5-0.3 236.6-0.3 119.9-0.1 160.4-0.4 161.5-1.2 0.8-0.7 3.2-1.5 5.4-1.9 2.2-0.5 5.8-1.7 8-2.8 2.2-1.2 6.2-3.6 9-5.5 2.7-1.9 7.6-5.9 10.8-9 3.2-3.1 7.6-8.4 9.7-11.7 2.2-3.3 4-6.4 4-7 0-0.5 1.1-3.7 2.6-7 1.8-4.3 2.8-8.9 3.5-16.5 0.5-6.2 0.9-123.2 1-284.5 0-150.7-0.3-278.3-0.7-283.5-0.3-5.2-1.3-12.2-2.1-15.5-0.8-3.3-2.1-7.1-2.8-8.5-0.7-1.4-2.3-4.6-3.6-7.3-1.3-2.6-4.7-7.3-7.4-10.4-2.8-3.1-7.3-7.3-10-9.3-2.8-2-7.7-5-11-6.7-3.3-1.6-8-3.5-10.5-4.2-2.5-0.7-9-1.3-14.5-1.4l-10-0.2c-0.9 33-1.6 42.6-2.4 45-0.7 2.2-2.5 6.3-3.8 9-1.4 2.8-4.1 7-6.1 9.5-1.9 2.5-4.5 5.4-5.6 6.5-1.2 1.1-4.2 3.6-6.6 5.5-2.5 1.9-6.9 4.5-9.8 5.7-2.8 1.3-8.1 3-11.7 3.8-3.6 0.8-10.7 1.5-15.8 1.5-6.2 0-11.5-0.6-16.2-2-3.9-1.1-9.5-3.2-12.5-4.7-3-1.5-8.8-5.9-12.9-9.7-4.4-4.3-8.7-9.6-10.9-13.6-2-3.6-4.2-8.5-5-11-1-2.9-1.7-11.3-2.1-24.2-0.3-10.8-1-20.1-1.6-20.7-0.6-0.7-7.2-1-18.5-0.8l-17.5 0.2c-1 32.4-1.7 39.8-2.9 44-1 3.3-3.2 8.7-4.9 12-1.8 3.3-6.4 9.2-10.2 13-4.5 4.5-9.5 8.4-14 10.7-3.9 2-9.9 4.4-13.5 5.2-3.6 0.9-10.6 1.6-15.5 1.6-5.7 0-11.7-0.7-16.5-1.9-4.1-1.1-9.9-3.2-12.9-4.8-3-1.5-8.6-5.7-12.4-9.3-3.8-3.6-8.9-9.6-11.3-13.5-2.4-3.8-5.1-9.2-6-12-1.1-3.6-1.7-10.1-2-23-0.3-9.9-0.7-19-0.9-20.2-0.5-2.3-0.6-2.3-18.3-2l-17.7 0.2c-1.2 30.3-2.1 39-3.1 42.5-0.9 3-3 8.4-4.7 12-1.9 3.9-6 9.4-10.2 13.8-4.1 4.3-9.5 8.8-13 10.7-3.3 1.9-9.4 4.3-13.5 5.4-5.2 1.5-10.4 2.1-17.3 2.1-5.7 0-12.5-0.7-16.5-1.7-3.7-0.9-9.4-3.1-12.7-4.9-3.3-1.8-8.9-6.1-12.5-9.6-3.6-3.4-8.2-9-10.2-12.3-2-3.3-4.6-8.5-5.6-11.5-1.1-3-2.2-7.5-2.6-10-0.3-2.5-0.8-11.9-1.1-21l-0.4-16.5c-12.9-0.2-18 0-19.6 0.2-1.7 0.2-3.9 0.8-5 1.2zm444.7 298.2c12.4-0.1 17.3 0.3 22.5 1.8 3.8 1 9.7 3.2 13.3 4.9 3.6 1.7 8.2 4.3 10.3 5.9 2.1 1.5 6.3 5.1 9.4 7.8 3 2.8 7.4 7.7 9.8 11 2.3 3.3 5.6 8.7 7.2 12 1.6 3.3 3.8 9.4 4.8 13.5 1.4 6.1 1.7 10.2 1.3 22-0.4 10.2-1.1 15.9-2.3 19-0.9 2.5-2.6 6.3-3.7 8.5-1.1 2.2-3.7 6.3-5.7 9-1.9 2.8-20.2 21.4-40.5 41.5-20.3 20.1-67.9 67.3-105.9 105-37.9 37.7-72.4 72.1-76.6 76.4-4.2 4.3-9.6 8.8-12.1 10-2.5 1.3-9 3.7-14.5 5.4-5.5 1.7-13.4 4.1-17.5 5.3-4.1 1.2-11.6 3.5-16.5 5.1-5 1.6-17.3 5.3-27.5 8.3-10.2 3-19.9 5.9-21.5 6.6-1.7 0.6-5 1.7-7.5 2.4-2.5 0.7-8.7 2.5-13.8 3.9-5.5 1.6-10.1 2.3-11.5 1.9-1.2-0.3-4-2.2-6.1-4.2-2.2-2-5.2-5.4-6.8-7.6-2.2-3.1-2.9-5.1-2.8-9 0-2.7 0.9-8.1 2.1-12 1.1-3.8 2.5-7.9 2.9-9 0.5-1.1 2.8-8.1 5-15.5 2.3-7.4 4.6-15.5 5.2-18 0.6-2.5 1.4-4.9 1.9-5.5 0.5-0.5 0.9-1.7 0.9-2.5 0-0.8 2.3-8.7 5.1-17.5 2.8-8.8 5.4-16.9 5.9-18 0.4-1.1 2.2-6.5 4-12 1.8-5.5 3.9-11.2 4.7-12.7 0.7-1.5 2.4-3.9 3.8-5.3 1.4-1.4 3.1-2.8 3.9-3.2 0.8-0.4 22.6-21.7 48.6-47.3 26-25.6 75-74.1 108.9-107.8 33.9-33.7 64.4-63.8 67.8-66.7 3.5-3 8-6.2 10-7.1 2.1-0.9 6.9-2.7 10.8-4 6.1-2 9-2.3 22.7-2.3zm-2.8 53.9h-5.6c-46.6 46.1-61.5 61.1-63.2 62.9-1.7 1.9-4.2 4.4-5.6 5.5-1.3 1.2-21.1 20.6-43.8 43.1-22.8 22.6-53.1 52.6-67.3 66.8-24.9 24.7-25.8 25.8-24.2 27.6 1 1 2.4 2.7 3.1 3.7 0.6 1.1 1.7 2.9 2.2 4.2 0.6 1.2 2.8 3.3 5 4.7 2.2 1.4 4 2.9 4 3.3 0 0.4 0.8 1.3 1.7 1.9 1.6 1 2.3 0.5 5.8-4.3 2.2-3 4.3-5.5 4.7-5.4 0.4 0 12.2-11.6 26.4-25.7 14.1-14.2 27.3-27.7 29.3-30.1 2-2.3 4-4.3 4.4-4.2 0.5 0 1.4-0.5 2-1.2 0.7-0.7 3-3.4 5.2-6.1 2.2-2.6 4.4-4.7 5-4.7 0.5 0.1 2.7-2.1 4.7-4.7 2.1-2.6 4.1-5.1 4.5-5.6 0.4-0.4 2.4-1.7 4.3-3 1.9-1.2 4.4-3.9 5.5-6 1.1-2 2.7-3.9 3.5-4.2 0.8-0.3 2.9-1.9 4.7-3.7 1.8-1.8 5.6-5.8 8.5-8.8 2.9-3 7.1-7.5 9.4-10 2.3-2.5 14.3-14.4 26.7-26.5 12.4-12.1 23.8-23.1 25.4-24.5 1.5-1.4 4.2-4.1 5.9-6 1.7-1.9 4.9-5.1 7.2-7 2.3-1.9 4.8-4.7 5.4-6.3 0.7-1.5 1.7-2.7 2.3-2.7 0.5 0 2.6-1.4 4.5-3.2 1.9-1.7 4.5-4.7 5.7-6.5 1.3-1.8 2.3-3.6 2.3-4 0-0.4-1.9-2.9-4.2-5.5-2.4-2.5-5.3-4.9-6.4-5.3-1.2-0.3-2.5-0.1-2.8 0.5-0.3 0.5-3.1 1-6.2 1zm-253.6 247c-0.4 0.8-2.3 6.4-4.2 12.3-1.9 6-3.4 11.6-3.5 12.5 0 1-0.5 2.2-1.1 2.7-0.8 0.7 0.2 2.5 3.2 5.8l4.3 4.9c10.8-2 14.9-3.1 16-3.9 1.1-0.7 3.2-1.3 4.7-1.3 1.6 0 3-0.3 3.2-0.7 0.2-0.4 2.1-1.2 4.2-1.6 2.2-0.5 4.3-1.2 4.9-1.6 0.5-0.3 3.7-1.5 7-2.5 3.3-1.1 6.6-2.4 7.3-3 1-0.8-2.6-4.8-16-17.6-9.5-9.1-18.3-17.7-19.6-19.2-1.2-1.5-2.8-2.8-3.5-2.8-0.8 0-2.4 3.1-3.7 7.3-1.3 4-2.8 7.9-3.2 8.7z"/></svg>