<svg version="1.2" xmlns="http://www.w3.org/2000/svg" viewBox="0 0 1000 1000" width="1000" height="1000">
	<title>plumTopicBox</title>
	<style>
		.s0 { fill: #463a5d } 
		.s1 { fill: #5c4974 } 
		.s2 { fill: #c8b7ca } 
		.s3 { fill: #fcfefb } 
	</style>
	<path id="Path 0" class="s0" d="m0 500v500h1000v-1000h-1000z"/>
	<path id="Path 0" class="s1" d="m0 345.3c0.1 294.6 0.3 345.3 1.5 346.2 0.7 0.5 4.2 6 7.6 12 3.4 6 9.7 16.4 13.9 23 4.3 6.6 9 12.8 10.4 13.8 1.4 0.9 2.6 2.5 2.6 3.4 0 1 4.5 7.7 9.9 14.8 5.4 7.1 14.5 18.4 20.2 25 5.7 6.6 16.7 18.3 24.4 26 7.7 7.7 19.4 18.7 26 24.4 6.6 5.7 18.1 14.9 25.5 20.5 7.4 5.6 17.8 13.1 23 16.6 5.2 3.5 15.8 10.2 23.5 14.8 7.7 4.6 21 11.8 29.5 16.2 8.5 4.3 21.8 10.5 29.5 13.8 7.7 3.3 20.4 8.3 28.3 11.1 7.8 2.8 21.3 7.1 29.9 9.6 8.7 2.5 23.2 6.1 32.3 8.1 9.1 1.9 23.7 4.6 32.5 5.9 8.8 1.3 21.6 3 28.5 3.7 7.6 0.8 25.6 1.3 46 1.3 20.4 0 38.4-0.5 46-1.3 6.9-0.7 19.7-2.4 28.5-3.7 8.8-1.3 23.4-4 32.5-5.9 9.1-2 23.6-5.6 32.3-8.1 8.6-2.5 22.1-6.8 30-9.6 7.8-2.8 20.5-7.8 28.2-11.1 7.7-3.3 21-9.5 29.5-13.8 8.5-4.4 21.8-11.6 29.5-16.2 7.7-4.6 18.3-11.3 23.5-14.8 5.2-3.5 15.6-11 23-16.6 7.4-5.6 18.9-14.8 25.5-20.5 6.6-5.7 18.3-16.7 26-24.4 7.7-7.7 18.7-19.4 24.4-26 5.7-6.6 14.9-18.1 20.5-25.5 5.6-7.4 13.1-17.8 16.6-23 3.5-5.2 10.2-15.8 14.8-23.5 4.6-7.7 11.8-21 16.2-29.5 4.3-8.5 10.5-21.8 13.8-29.5 3.3-7.7 8.3-20.4 11.1-28.3 2.8-7.8 7.1-21.3 9.6-29.9 2.5-8.7 6.1-23.2 8.1-32.3 1.9-9.1 4.6-23.7 5.9-32.5 1.3-8.8 3-21.6 3.7-28.5 0.8-7.6 1.3-25.6 1.3-46 0-20.4-0.5-38.4-1.3-46-0.7-6.9-2.4-19.7-3.7-28.5-1.3-8.8-4-23.4-5.9-32.5-2-9.1-5.6-23.6-8.1-32.3-2.5-8.6-6.8-22.1-9.6-30-2.8-7.8-7.8-20.5-11.1-28.2-3.3-7.7-9.5-21-13.8-29.5-4.4-8.5-11.6-21.8-16.2-29.5-4.6-7.7-11.3-18.3-14.8-23.5-3.5-5.2-11-15.6-16.6-23-5.6-7.4-14.8-18.9-20.5-25.5-5.7-6.6-16.7-18.3-24.4-26-7.7-7.7-19.4-18.7-26-24.4-6.6-5.6-16.7-13.9-22.5-18.2-5.8-4.4-11.1-8-11.7-7.9-0.7 0-1.8-0.9-2.3-2-0.5-1.1-8.1-6.7-16.7-12.4-8.7-5.7-21-13.3-27.3-16.9-6.3-3.5-17-9.2-23.7-12.6l-12.3-6.1h-657z"/>
	<path id="Path 0" class="s2" d="m0 345c0 189.8 0.3 345 0.8 345 0.4-0.1 3.3 4.5 6.6 10.2 3.2 5.7 9.2 15.7 13.3 22.3 4.1 6.6 9.1 13.7 11.2 15.8 2 2 3.9 3.7 4.4 3.7 0.4 0 5.8 3.3 11.9 7.3 6.2 4.1 16.7 10.4 23.3 14.2 6.6 3.8 19.7 10.6 29 15.1 9.3 4.5 22.6 10.4 29.5 13.2 6.9 2.8 18.6 7.1 26 9.7 7.4 2.5 19.6 6.3 27 8.5 7.4 2.1 19.8 5.2 27.5 6.9 7.7 1.6 21 4.2 29.5 5.6 8.5 1.3 22.7 3.2 31.5 4 10.4 1 27.1 1.5 47.5 1.5 20.4 0 37.1-0.5 47.5-1.5 8.8-0.8 23-2.7 31.5-4 8.5-1.4 21.8-4 29.5-5.6 7.7-1.7 20.1-4.8 27.5-6.9 7.4-2.2 19.6-6 27-8.5 7.4-2.6 19.1-6.9 26-9.7 6.9-2.8 20.1-8.7 29.5-13.2 9.4-4.5 22.4-11.3 29-15.1 6.6-3.7 18.5-11.1 26.5-16.3 8-5.2 19.5-13.1 25.5-17.6 6-4.5 16.6-12.9 23.5-18.7 6.9-5.7 19.4-17.1 27.8-25.4 8.5-8.3 20.4-20.8 26.6-27.9 6.1-7 14.8-17.6 19.4-23.5 4.6-5.8 13.9-18.9 20.6-29.1 6.8-10.2 15.4-23.9 19.2-30.5 3.7-6.6 10.5-19.6 15-29 4.5-9.4 10.4-22.6 13.2-29.5 2.8-6.9 7.1-18.6 9.7-26 2.5-7.4 6.3-19.6 8.5-27 2.1-7.4 5.2-19.8 6.9-27.5 1.6-7.7 4.2-21 5.6-29.5 1.3-8.5 3.2-22.7 4-31.5 1-10.4 1.5-27.1 1.5-47.5 0-20.4-0.5-37.1-1.5-47.5-0.8-8.8-2.7-23-4-31.5-1.4-8.5-4-21.8-5.6-29.5-1.7-7.7-4.8-20.1-6.9-27.5-2.2-7.4-6-19.6-8.5-27-2.6-7.4-6.9-19.1-9.7-26-2.8-6.9-8.7-20.2-13.2-29.5-4.5-9.3-11.3-22.4-15.1-29-3.8-6.6-9.3-15.7-12.2-20.3-2.9-4.5-5.3-8.5-5.3-8.9 0.1-0.5-1.7-2.5-4-4.5-2.2-2.1-8.4-6.6-13.8-10.1-5.3-3.5-14.9-9.4-21.2-13.2-6.3-3.7-18.4-10.3-26.8-14.6l-15.2-7.9h-657z"/>
	<path id="Path 0" class="s3" d="m0 161.5v161.5c5 3.8 10.3 7.2 15 10 4.7 2.8 12.1 6.5 16.5 8.2 4.4 1.7 12.5 4.2 18 5.5 5.5 1.4 10.1 2.6 10.2 2.7 0.1 0-0.8 2.8-1.9 6.1-1.4 4-2.1 8.6-2.1 14-0.1 4.7 0.6 10.3 1.5 13.5 0.9 3 3.6 8.4 6 12 2.7 4 6.5 8 10.3 10.8 3.3 2.4 8.5 5.2 11.5 6.3 3 1.1 8.4 2.3 12 2.6 3.6 0.3 9 0 12-0.6 3-0.6 8.2-2.4 11.5-4 3.3-1.6 8.4-5.2 11.3-8 3.4-3.4 6.5-7.7 8.9-12.8 3.3-6.9 3.8-8.9 4.1-16.8 0.3-6.6-0.1-10.8-1.4-15.5-1-3.8-3.6-9.1-6.1-12.7-2.4-3.5-4.2-6.4-4.1-6.6 0.2-0.2 3.5-2.2 7.3-4.4 3.8-2.3 9.8-6.2 13.2-8.7 3.5-2.5 9.7-8.1 13.9-12.3 4.2-4.3 10.5-12.1 14-17.3 3.4-5.2 7.8-12.9 9.7-17 1.9-4.1 4.5-10.8 5.8-14.8 2.4-7.3 2.4-7.4 5.4-6.7 1.7 0.3 6.6 1.1 11 1.7 4.5 0.6 13.7 0.8 21 0.5 7.2-0.3 15.3-1 18-1.7 4.2-1 6.3-0.9 13 0.7 6.1 1.4 12.1 1.8 25.5 1.8 13.6 0 19.3-0.4 25.5-1.9 4.4-1 11.8-3.2 16.5-4.8 4.7-1.7 11-4.3 14-5.8 3-1.5 9.6-5.5 14.5-8.8 4.9-3.3 13-9.9 17.9-14.8 4.9-4.9 11.5-13 14.8-17.9 3.3-4.9 7.3-11.5 8.8-14.5 1.5-3 4-8.9 5.4-13 1.5-4.1 3.6-11.1 4.7-15.5 1.2-4.8 2.2-13.4 2.6-21.5 0.3-8.4 0.1-16.9-0.7-22.5-0.6-5-2.3-12.8-3.7-17.5-1.3-4.7-3.7-11.7-5.3-15.5-1.6-3.8-5.5-11.2-8.7-16.2-3.2-5.1-8.4-12.3-11.5-16-3.2-3.8-8.9-9.5-12.8-12.8-3.9-3.3-11.2-8.6-16.3-11.8-5-3.2-12.3-7.1-16.2-8.7-3.9-1.6-11.1-4-16-5.4-4.9-1.5-11.7-3-14.9-3.4l-5.9-0.7-3.4-10-300.3-0.5z"/>
</svg>