<svg version="1.2" xmlns="http://www.w3.org/2000/svg" viewBox="0 0 850 850" width="850" height="850"><style>.a{fill:#34364d}.b{fill:#6e1414}.c{fill:#fff}.d{fill:#dd5656}.e{fill:#c01515}.f{fill:#861515}</style><path fill-rule="evenodd" class="a" d="m616.9 0.4c48.2 0.1 61.5 0.4 61.8 1.4 0.2 0.6 1.8 1.2 3.8 1.2 1.9 0 3.5 0.5 3.5 1 0 0.5 1.1 1 2.5 1 1.4 0 2.5 0.5 2.5 1 0 0.5 2 1.2 4.5 1.5 2.5 0.3 4.5 0.9 4.5 1.5 0 0.6 0.9 1 2 1 1.1 0 2 0.4 2 1 0 0.6 1.1 1 2.5 1 1.4 0 2.5 0.4 2.5 1 0 0.6 0.9 1 2 1 1.1 0 2 0.4 2 1 0 0.6 1.5 1.3 3.3 1.6 1.7 0.4 4.8 1.6 6.7 2.7 1.9 1.1 4.6 2.6 6 3.4 1.4 0.7 3.2 1.3 4 1.3 0.8 0 2.2 0.9 3 2 0.8 1.1 2.3 2 3.3 2 0.9 0 1.7 0.4 1.7 1 0 0.6 0.7 1 1.5 1 0.8 0 1.5 0.4 1.5 1 0 0.5 1 1.3 2.3 1.6 1.2 0.4 2.9 1.5 3.7 2.5 0.8 1 2.2 1.8 3 1.8 0.8 0.1 3.1 1.7 5 3.6 1.9 1.9 4 3.5 4.5 3.5 0.5 0 2.9 1.9 5.1 4.2 2.3 2.4 5.8 5.7 7.8 7.3 2.1 1.6 4.7 4 5.9 5.3 1.2 1.3 2.7 2.9 3.4 3.5 0.6 0.7 2.2 2.2 3.5 3.4 1.3 1.3 3.2 3.3 4.4 4.5 1.2 1.3 3.1 3 4.3 3.8 1.2 0.8 2.1 2.2 2.1 3 0.1 0.8 2 3.3 4.4 5.5 2.4 2.2 4.6 5 4.9 6.3 0.4 1.2 1.2 2.2 1.7 2.2 0.5 0 1 0.8 1 1.8 0.1 0.9 0.9 2.4 1.9 3.2 1 0.8 2.1 2.5 2.5 3.8 0.3 1.2 1.1 2.2 1.6 2.2 0.5 0 1 0.6 1 1.3 0 0.6 0.9 1.9 2 2.7 1.1 0.8 2 2.3 2 3.2 0 1 0.5 1.8 1 1.8 0.5 0 1.2 1.1 1.5 2.5 0.3 1.4 1 2.5 1.5 2.5 0.5 0 1 0.9 1 2 0 1.1 0.5 2 1 2 0.5 0 1 0.7 1 1.5 0 0.8 0.5 1.5 1 1.5 0.5 0 1.2 1.6 1.5 3.5 0.3 1.9 1 3.5 1.5 3.5 0.5 0 1 0.9 1 2 0 1.1 0.5 2 1 2 0.5 0 1 0.9 1 2 0 1.1 0.5 2 1 2 0.5 0 1 0.7 1 1.5 0 0.8 0.5 1.5 1 1.5 0.5 0 1.2 2.5 1.5 5.5 0.3 3 1 5.5 1.5 5.5 0.5 0 1 1.1 1 2.5 0 1.4 0.5 2.5 1 2.5 0.5 0 1 1.1 1 2.5 0 1.4 0.4 3.3 0.9 4.2 0.5 1 1.5 3.1 2.2 4.7 1.1 2.4 1.4 14.9 1.4 66.9 0 50.4-0.3 64.1-1.2 64.4-0.7 0.1-1.3 1.7-1.3 3.3 0 1.6-0.5 3-1 3-0.5 0-1 1.6-1 3.5 0 1.9-0.5 3.5-1 3.5-0.5 0-1 0.8-1 1.7 0 1-0.6 3.2-1.5 4.8-0.8 1.6-1.5 3.8-1.5 4.7 0 1-0.9 3.5-2.1 5.5-1.1 2.1-2.5 4.2-3 4.8-0.5 0.5-0.9 1.8-0.9 2.7 0 1-0.5 1.8-1 1.8-0.5 0-1.2 1.6-1.5 3.5-0.3 1.9-1 3.5-1.5 3.5-0.5 0-1 0.9-1 2 0 1.1-0.5 2-1 2-0.5 0-1 0.7-1 1.5 0 0.8-0.5 1.5-1 1.5-0.5 0-1.2 1.5-1.5 3.2-0.3 1.8-1.4 4-2.5 4.8-1.1 0.8-2 2.3-2 3.2 0 1-0.9 2-2 2.3-1.2 0.3-2 1.3-2 2.5 0 1.1-1.1 3-2.5 4.2-1.4 1.3-2.5 2.9-2.5 3.5 0 0.7-0.5 1.3-1 1.3-0.5 0-1.3 1-1.7 2.2-0.3 1.3-2.6 4.2-5 6.5-2.4 2.4-4.3 4.7-4.3 5.3 0 0.5-1.5 2.3-3.2 4-1.8 1.6-3.8 3.5-4.3 4-0.5 0.6-10 10.1-21 21.1-11 11-20.5 20.4-21 20.9-0.5 0.5-4 3.9-7.6 7.7-3.7 3.7-12.7 12.6-20 19.6-7.4 7-13.7 13.1-14.1 13.5-0.4 0.4-4.4 4.4-8.8 8.9-4.4 4.6-8 8.7-8 9.3 0 0.5-1.1 2.1-2.5 3.5-1.4 1.4-3.1 2.5-3.8 2.5-0.7 0-1.9 0.9-2.7 2-0.8 1.1-2.3 2-3.2 2-1 0-1.8 0.5-1.8 1 0 0.5-0.7 1-1.5 1-0.8 0-1.7 0.6-1.8 1.2-0.3 1-5.1 1.4-37.7 1.8v3c0 1.6-0.5 3.1-1.1 3.2-0.5 0.2-1.3 2.2-1.7 4.6-0.4 2.3-1 4.2-1.4 4.2-0.5 0-0.8 1.1-0.8 2.5 0 1.4-0.5 2.5-1 2.5-0.5 0-1 0.9-1 2 0 1.1-0.5 2-1 2-0.5 0-1 0.7-1 1.5 0 0.8-0.5 1.5-1 1.5-0.5 0-1 0.8-1 1.7 0 1-1 3.8-2.3 6.3-1.3 2.5-2.8 5.4-3.5 6.5-0.6 1.1-2 4-3.1 6.5-1.1 2.5-3.6 6.2-5.6 8.2-1.9 2.1-3.5 4.5-3.5 5.3 0 0.8-2 4.2-4.5 7.5-2.5 3.3-4.5 6.2-4.5 6.5 0 0.3-1.3 1.9-3 3.5-1.6 1.6-3 3.5-3 4 0 0.5-1.6 2.5-3.6 4.2-1.9 1.8-4.1 3.9-4.7 4.6-0.7 0.7-10 10-20.7 20.8-10.7 10.7-19.9 19.8-20.3 20.2-0.5 0.4-6.1 6-12.5 12.5-6.4 6.5-12.2 12.3-12.7 12.9-0.5 0.6-10 10-21 20.9-11 11-20.4 20.4-21 20.9-0.5 0.6-9.5 9.5-19.9 19.8-10.3 10.3-28.3 28.2-40 39.9-11.6 11.7-21.9 21.2-22.8 21.3-1 0-1.8 0.5-1.8 1 0 0.5-0.6 1.7-1.4 2.5-0.8 0.8-2.2 1.5-3 1.5-0.9 0-1.8 0.9-2.1 2-0.3 1.1-1.4 2.2-2.5 2.5-1.1 0.3-2 1-2 1.5 0 0.5-0.9 1-2 1-1.1 0-2.4 0.8-2.9 1.7-0.5 1-3 2.7-5.5 3.8-2.6 1.1-4.6 2.3-4.6 2.7 0 0.5-0.9 0.8-2 0.8-1.1 0-2 0.5-2 1 0 0.5-0.7 1-1.5 1-0.8 0-1.5 0.5-1.5 1 0 0.5-1.8 1.2-4 1.5-2.2 0.3-4 1-4 1.5 0 0.5-0.7 1-1.5 1-0.8 0-1.5 0.5-1.5 1 0 0.5-0.9 1-2 1-1.1 0-2 0.5-2 1 0 0.5-0.7 1-1.5 1-0.8 0-1.5 0.5-1.5 1 0 0.5-1.6 1.2-3.5 1.5-1.9 0.3-3.5 1-3.5 1.5 0 0.5-1.3 1-3 1-1.6 0-3 0.5-3 1 0 0.5-0.7 1-1.5 1-0.8 0-1.5 0.5-1.5 1 0 0.5-2.9 1.2-6.5 1.5-3.6 0.3-6.5 1-6.5 1.5 0 0.5-1.1 1-2.5 1-1.4 0-2.5 0.5-2.5 1 0 0.5-1.1 1-2.5 1-1.4 0-2.5 0.5-2.5 1 0 0.5-2.5 1-5.5 1-3.6 0-5.6 0.4-5.8 1.2-0.3 1-11.1 1.3-49.7 1.3-38.6 0-49.4-0.3-49.7-1.3-0.2-0.7-2-1.2-4.8-1.2-2.5 0-4.5-0.5-4.5-1 0-0.5-1.6-1-3.5-1-1.9 0-3.5-0.5-3.5-1 0-0.5-1.1-1-2.5-1-1.4 0-2.5-0.5-2.5-1 0-0.5-2.5-1.2-5.5-1.5-3-0.3-5.5-1-5.5-1.5 0-0.5-1.1-1-2.5-1-1.4 0-2.5-0.5-2.5-1 0-0.5-1.1-1-2.5-1-1.4 0-2.5-0.5-2.5-1 0-0.5-0.7-1-1.5-1-0.8 0-3.3-0.8-5.5-1.8-2.2-0.9-4-2-4-2.5 0-0.4-0.7-0.7-1.5-0.7-0.8 0-2.7-0.9-4.2-1.9-1.6-1.1-3.9-2.2-5.3-2.5-1.4-0.3-3.4-1.5-4.5-2.6-1.1-1.1-2.8-2.1-3.7-2-1 0-1.8-0.5-1.8-1 0-0.5-1.1-1.2-2.5-1.5-1.4-0.3-2.5-1-2.5-1.5 0-0.5-0.9-1-2-1-1.2 0-2.2-0.8-2.5-2-0.3-1.1-1.3-2-2.2-2-1 0-2.2-0.4-2.8-1-0.5-0.5-2-1.6-3.1-2.3-1.2-0.6-5.5-3.9-9.5-7.1-4.1-3.3-8.2-6.7-9.2-7.5-1-0.9-3.2-3.1-5-5-1.8-1.8-3.8-3.8-4.5-4.5-0.7-0.6-2.3-2.1-3.5-3.3-1.2-1.2-2.7-2.8-3.3-3.5-0.6-0.7-2.5-2.4-4.2-3.8-1.8-1.4-3.2-3.2-3.2-4 0-0.8-1.6-2.9-3.5-4.5-1.9-1.6-3.5-3.7-3.5-4.5 0-0.8-2-3.3-4.4-5.5-2.4-2.2-4.6-5-4.9-6.3-0.4-1.2-1.1-2.2-1.7-2.2-0.5 0-1-0.9-1-2 0-1.2-0.8-2.2-2-2.5-1.2-0.3-2-1.3-2-2.5 0-1.1-0.4-2-1-2-0.5 0-1-0.9-1-2 0-1.1-0.7-2.2-1.5-2.5-0.8-0.3-1.5-1.4-1.5-2.5 0-1.1-0.4-2-1-2-0.5 0-1-0.7-1-1.5 0-0.8-0.4-1.5-1-1.5-0.5 0-1.2-1.8-1.5-4-0.3-2.2-0.9-4-1.5-4-0.5 0-1-0.7-1-1.5 0-0.8-0.4-1.5-1-1.5-0.5 0-1-0.9-1-2 0-1.1-0.4-2-1-2-0.5 0-1-0.7-1-1.5 0-0.8-0.3-1.5-0.7-1.5-0.5 0-1.1-1.9-1.5-4.2-0.4-2.4-1.2-4.4-1.7-4.6-0.6-0.1-1.1-1.6-1.1-3.2 0-1.6-0.4-3-1-3-0.5 0-1-0.7-1-1.5 0-0.8-0.4-1.5-1-1.5-0.5 0-1.2-2.6-1.5-5.8-0.4-3.1-1-6.5-1.5-7.5-0.6-0.9-1-3.1-1-4.7 0-1.6-0.4-3-1-3-0.5 0-1-1.6-1-3.5 0-2-0.6-3.6-1.2-3.8-1-0.3-1.3-11.2-1.3-50.5 0-39.1 0.3-50.4 1.3-51.4 0.7-0.7 1.2-3.2 1.2-5.6 0-2.3 0.5-4.2 1-4.2 0.6 0 1-1.1 1-2.5 0-1.4 0.5-2.5 1-2.5 0.6 0 1.2-2.9 1.5-6.5 0.3-3.6 1-6.5 1.5-6.5 0.6 0 1-0.9 1-2 0-1.1 0.4-2.8 0.9-3.8 0.5-0.9 1.6-3.4 2.5-5.5 0.9-2 1.6-4.4 1.6-5.2 0-0.8 0.5-1.5 1-1.5 0.6 0 1-1.4 1-3 0-1.6 0.5-3 1-3 0.6 0 1-0.7 1-1.5 0-0.8 0.5-1.5 1-1.5 0.6 0 1-0.9 1-2 0-1.1 0.5-2 1-2 0.6 0 1.3-1.5 1.6-3.3 0.4-1.7 1.5-3.9 2.5-4.7 1-0.8 1.8-2.1 1.9-2.8 0-0.6 0.5-1.2 1-1.2 0.6 0 1-0.8 1-1.8-0.1-0.9 0.6-2.4 1.5-3.2 0.9-0.8 1.6-2 1.5-2.5 0-0.6 0.9-1.7 2-2.5 1.1-0.8 2-2.3 2-3.3 0-0.9 0.7-1.9 1.5-2.2 0.8-0.3 1.5-1.3 1.5-2.3 0-0.9 0.9-2.4 2-3.2 1.1-0.8 2-1.8 2-2.3 0-0.4 1.1-1.8 2.5-3.2 1.4-1.4 2.5-3 2.5-3.5 0-0.6 1.5-2.7 3.4-4.8 1.9-2 3.8-4.1 4.3-4.5 0.4-0.5 6-6 12.3-12.3 6.3-6.4 12.1-12.1 12.8-12.7 0.7-0.7 3.8-3.7 7-6.8 3.1-3.1 6.9-6.9 8.3-8.5 1.5-1.6 10.2-10.1 19.4-18.9 9.1-8.8 23.7-23.1 32.3-31.7 8.7-8.7 16.2-16.3 16.9-17 0.6-0.7 2.3-2.3 3.7-3.6 1.4-1.2 2.8-2.2 3.1-2.2 0.4 0 1.3-0.7 2.1-1.5 0.9-0.8 2.4-1.5 3.5-1.5 1 0 1.9-0.5 1.9-1 0-0.6 0.7-1 1.5-1 0.8 0 1.5-0.5 1.5-1 0-0.6 1.4-1 3-1 1.7 0 3-0.5 3-1 0-0.6 5.2-1 13.6-1 10.7 0 13.8-0.3 15-1.5 0.8-0.8 1.4-2.9 1.4-4.5 0-1.6 0.5-3 1-3 0.6 0 1.2-2 1.5-4.5 0.3-2.5 1-4.5 1.5-4.5 0.6 0 1-1.1 1-2.5 0-1.4 0.5-2.5 1-2.5 0.6 0 1-0.9 1-2 0-1.1 0.3-2 0.8-2 0.4 0 1.2-0.9 1.7-1.9 0.6-1.1 2.5-4.9 4.3-8.5 1.7-3.6 4.3-7.8 5.7-9.4 1.4-1.5 2.6-3.5 2.5-4.5 0-0.9 0.5-1.7 1-1.7 0.6 0 1-0.5 0.9-1.1 0-0.7 0.8-1.9 1.8-2.8 1-0.9 2.8-3.6 4-6.1 1.2-2.5 2.9-5.2 3.8-6 0.9-0.8 1.6-2.1 1.5-2.8 0-0.6 0.5-1.2 1-1.2 0.6 0 1.2-0.8 1.5-1.8 0.3-0.9 1.8-2.6 3.5-3.7 1.6-1.1 3-2.7 3-3.5 0-0.8 2.2-3.6 4.8-6.2 2.6-2.6 5.3-5.3 6-6 0.7-0.7 4.4-4.5 8.3-8.3 3.8-3.9 7.3-7.3 7.7-7.7 0.4-0.4 5.9-5.9 12.2-12.3 6.3-6.3 12-11.9 12.5-12.5 0.6-0.5 4.3-4.2 8.3-8.2 4-4 7.7-7.8 8.1-8.3 0.5-0.6 6.2-6.3 12.8-12.8 6.5-6.6 12.3-12.4 13-13 0.6-0.7 4.4-4.4 8.3-8.2 3.9-3.9 7.4-7.3 7.8-7.7 0.4-0.4 5.9-5.9 12.2-12.3 6.3-6.3 12.1-12 12.7-12.7 0.7-0.7 5.1-4.9 9.8-9.3 4.7-4.4 13.7-13.2 20-19.5 6.2-6.3 11.9-12 12.5-12.5 0.6-0.6 5.3-5.4 10.4-10.8 5.2-5.3 10-9.7 10.7-9.7 0.8 0 2.4-1.3 3.7-3 1.2-1.6 3-3 4-3 0.9 0 3.6-1.6 6-3.5 2.3-1.9 4.5-3.5 5-3.5 0.4 0.1 1.4-0.6 2.2-1.5 0.8-0.9 2.3-1.6 3.3-1.5 0.9 0 1.7-0.5 1.7-1 0-0.6 0.6-1 1.3-1 0.6-0.1 1.9-0.9 2.7-1.9 0.8-1 3-2.1 4.8-2.5 1.7-0.3 3.2-1.1 3.2-1.6 0-0.6 0.9-1 2-1 1.1 0 2-0.5 2-1 0-0.6 0.7-1 1.5-1 0.8 0 1.5-0.5 1.5-1 0-0.6 1.8-1.2 4-1.5 2.2-0.3 4-1 4-1.5 0-0.6 0.7-1 1.5-1 0.8 0 1.5-0.5 1.5-1 0-0.6 0.9-1 2-1 1.1 0 2-0.5 2-1 0-0.6 0.7-1 1.5-1 0.8 0 1.5-0.5 1.5-1 0-0.6 2.5-1.2 5.5-1.5 3-0.3 5.5-1 5.5-1.5 0-0.6 1.1-1 2.5-1 1.4 0 2.5-0.5 2.5-1 0-0.6 1.6-1 3.5-1 1.9 0 3.5-0.5 3.5-1 0-0.6 1.9-1.2 4.3-1.3 2.3-0.2 31.8-0.4 65.6-0.3zm-11.1 181.6c-2.7 0-5.1 0.4-5.5 1-0.3 0.6-1.4 1-2.5 1-1 0-1.8 0.4-1.8 1 0 0.6-1.5 1.2-3.2 1.5-1.8 0.3-4 1.4-4.8 2.5-0.8 1.1-2 2-2.7 2-0.6 0-12.2 11-25.7 24.5l-24.6 24.5c8.5 7 11.7 9 12.5 9 0.8 0 2 0.9 2.5 2 0.5 1.1 1.6 2 2.3 2 0.6 0 5.4 4.2 10.5 9.5 5 5.2 9.8 9.5 10.5 9.5 0.6 0.1 2.4 1.4 4 3 1.5 1.7 2.7 3.4 2.7 4 0 0.6 3.1 4 7 7.7 3.8 3.8 6.9 7.5 7 8.3 0 0.8 1.6 3.1 3.5 5 2 1.9 3.6 4.3 3.5 5.2 0 1 0.9 2 2 2.3 1.2 0.3 2 1.3 2 2.5 0 1.1 0.5 2 1 2 0.5 0 1.2 1.1 1.5 2.5 0.4 2.1 0.7 2.3 2 1.2 0.9-0.6 2.1-1.8 2.8-2.5 0.7-0.7 2.2-2.3 3.5-3.5 1.3-1.2 2.8-2.6 3.3-3.2 0.5-0.6 5.2-5.5 10.4-11 5.2-5.5 10.3-10.9 11.4-12 1.1-1.1 2.5-2.4 3-3 0.6-0.6 2.6-2.6 4.5-4.5 1.9-1.9 4.1-4 4.8-4.7 0.7-0.7 1.9-1.9 2.6-2.8 0.6-0.8 1.2-1.8 1.2-2.3 0.1-0.4 0.9-1.4 1.9-2.2 0.9-0.8 2.9-4 4.4-7 1.5-3 2.7-6.5 2.7-7.8 0-1.2 0.5-2.4 1-2.7 0.5-0.3 1-1.6 1-3 0-1.4 0.5-2.7 1-3 0.5-0.3 1-1.8 1-3.5 0-1.7-0.5-3-1-3-0.5 0-1-1.3-1-3 0-1.7-0.5-3-1-3-0.5 0-1-1.2-1-2.8 0-1.5-1.1-5-2.5-7.7-1.4-2.8-2.5-5.6-2.5-6.3 0-0.6-0.9-1.6-2-2.2-1.1-0.6-2-1.6-2-2.3 0.1-0.6-1.6-2.9-3.7-5-2.1-2-4.4-3.7-5-3.7-0.7 0-1.5-0.6-1.8-1.3-0.2-0.6-3.2-3.3-6.5-6-3.3-2.6-6.7-4.7-7.5-4.7-0.8 0-3-0.8-4.7-1.8-1.8-1.1-5.5-2.2-8.3-2.5-2.7-0.3-5.2-1.1-5.6-1.7q-0.5-1.1-2 0.5c-0.9 1-3 1.6-6.1 1.5zm-209.8 205c0 1.1-0.4 2-1 2-0.6 0-1 4-1 10 0 5.5 0.5 10.9 1 12 0.6 1.1 1.5 2.9 2 4 0.6 1.1 1 2.7 1 3.5 0 0.8 0.5 1.5 1 1.5 0.6 0 1.3 1.5 1.6 3.2 0.4 2.1 2.3 4.8 5.1 7.3 2.4 2.2 4.3 4.8 4.3 5.7 0 1.1 0.7 1.8 1.8 1.8 0.9 0 3.5 2 5.7 4.4 2.2 2.5 4.8 4.6 5.8 4.6 0.9 0 1.9 0.7 2.2 1.5 0.3 0.8 1.4 1.5 2.5 1.5 1.1 0 2 0.4 2 1 0 0.6 0.7 1 1.5 1 0.8 0 1.5 0.4 1.5 1 0 0.6 1.2 1 2.8 1 1.5 0 3.6 0.7 4.7 1.5 1.1 0.9 2.6 1.5 3.3 1.5 0.6 0 3.3 1.6 6 3.6 3.7 2.9 4.8 3.3 5 2 0.1-0.9 0.7-1.6 1.2-1.6 0.6 0 1-1.1 1-2.5 0-1.4 0.5-2.5 1-2.5 0.6 0 1-1.4 1-3 0-1.6 0.5-3 1-3 0.6 0 1-1.6 1-3.5 0-1.9-0.4-3.5-1-3.5-0.5 0-1-1.1-1-2.5 0-1.4-0.4-2.7-1-3-0.5-0.3-1-1.9-1-3.5 0-1.6-0.3-3.2-0.7-3.4-0.5-0.2-1.1-1.9-1.5-3.7-0.4-1.9-1.7-4.1-2.8-4.9-1.1-0.8-2-1.9-2-2.5 0-0.6-2-3.1-4.5-5.8-2.5-2.6-4.5-5.1-4.5-5.7 0-0.6-0.4-1-1-1-0.5 0-3.1-2-5.7-4.5-2.7-2.5-5.4-4.5-6-4.5-0.7 0-1.3-0.4-1.3-1 0-0.6-0.9-1-2-1-1.1 0-2-0.4-2-1 0-0.6-1.5-1.3-3.2-1.6-1.8-0.3-5.7-1.6-8.5-3-2.9-1.3-5.4-2.8-5.5-3.3-0.1-0.5-1.9-1.7-4-2.8-3.1-1.5-4-1.6-4.8-0.6-0.6 0.7-1 2.2-1 3.3zm-188.2 180.1c-7.6 7.7-13.8 14.6-13.8 15.4 0 0.8-0.7 1.7-1.5 2-0.8 0.3-1.5 1.3-1.5 2.3 0 0.9-0.9 2.8-2 4.2-1.1 1.4-2 3.4-2 4.5 0 1.1-0.5 2.6-1.2 3.3-0.9 0.9-1.2 4.5-1.1 12 0.1 6.5 0.6 10.8 1.2 11 0.6 0.1 1.1 0.9 1.1 1.7 0 0.8 0.5 1.5 1 1.5 0.6 0 1 1 1 2.3 0.1 1.2 0.9 2.9 1.9 3.7 1 0.8 2.1 2.7 2.4 4.3 0.4 1.5 1.2 2.7 1.7 2.7 0.6 0 2.1 1.1 3.5 2.5 1.4 1.4 2.8 3.5 3.2 4.8 0.4 1.2 2.2 3.6 4.1 5.2 1.9 1.6 5.8 4.3 8.6 5.8 2.8 1.6 6 3.7 7.1 4.7 1.1 1 4.6 2.4 7.8 3.2 3.1 0.7 5.7 1.6 5.7 2.1 0 0.4 2.3 0.7 5 0.7 2.8 0 5-0.5 5-1 0-0.5 0.8-1 1.8-1 0.9 0 3.3-0.5 5.2-1.2 1.9-0.6 4.7-1.6 6.3-2.2 1.5-0.6 2.7-1.4 2.7-1.8 0-0.5 0.5-0.8 1-0.8 0.6 0 2.2-1.1 3.6-2.5 1.4-1.4 3.4-2.5 4.4-2.5 1.1 0 2.2-0.8 2.5-1.7 0.2-1 1.4-2.5 2.6-3.3 1.2-0.8 3.1-2.5 4.3-3.8 1.2-1.2 3.1-3.2 4.4-4.5 1.3-1.2 2.8-2.7 3.3-3.2 0.6-0.5 2.7-2.7 4.7-4.7 2-2 4.2-4.1 4.7-4.7 0.6-0.5 2-2 3.3-3.3 1.3-1.3 2.8-2.8 3.3-3.3 0.6-0.5 2.6-2.6 4.5-4.5 1.9-1.9 4-4 4.5-4.5 0.6-0.5 2.1-2.2 3.5-3.7l2.4-2.8c-3.5-2.9-6.1-4.6-8.1-5.6-1.9-1.1-4.8-3.4-6.2-5.1-1.5-1.8-3.3-3.3-3.9-3.3-0.7 0-5.5-4.2-10.5-9.5-5.1-5.2-9.7-9.5-10.3-9.5-0.5 0-2.3-1.4-4-3-1.6-1.6-3-3.5-3-4 0-0.5-3.3-4.3-7.3-8.2-4.1-4-7.7-8.5-8-10-0.4-1.6-1.1-2.8-1.7-2.8-0.5 0-1-0.5-1-1 0-0.5-1.3-2.4-3-4-1.6-1.6-3-3.7-3-4.5 0-0.8-0.6-1.8-1.4-2.2-0.8-0.5-1.7-1.5-2-2.3-0.5-1.2-3.6 1.5-11.9 10.4-6.2 6.5-17.4 18.1-24.9 25.7z"/><path class="b" d="m599.5 39.9c-0.6 0.5-3 1.2-5.5 1.5-2.5 0.4-7.6 1.1-11.5 1.6-3.9 0.5-8.8 1.4-11 2-2.2 0.7-5.5 1.4-7.3 1.6-1.7 0.2-3.4 0.9-3.7 1.4-0.3 0.5-1.6 1-3 1-1.4 0-4.1 0.9-6 2-1.9 1.1-4.5 2-5.8 2-1.2-0.1-2.9 0.6-3.7 1.5-0.8 0.9-2.2 1.6-3 1.5-0.8 0-2.7 0.5-4.2 1.2-1.6 0.7-2.8 1.6-2.8 2.1 0 0.4-0.9 0.7-2 0.7-1.1 0-2 0.5-2 1 0 0.5-0.5 1-1 1-0.5 0-2.7 0.8-4.8 1.7-2 0.9-4.5 2.5-5.4 3.5-0.9 1-2.1 1.8-2.7 1.8-0.6 0-2.4 0.8-4.1 1.8-1.6 0.9-3 2-3 2.5 0 0.4-0.7 0.7-1.5 0.7-0.8 0-2.3 0.9-3.2 2-1 1.2-2.4 2.1-3.1 2-0.7 0-2.2 1.1-3.5 2.5-1.2 1.4-2.8 2.5-3.4 2.5-0.7 0-1.3 0.7-1.3 1.5 0 0.8-1 1.9-2.3 2.4-1.2 0.5-43.1 42.1-93.2 92.6-50.1 50.4-91.2 92.2-91.4 92.8-0.3 0.7-3.3 4.1-6.8 7.7-3.4 3.6-6.3 6.9-6.3 7.5 0.1 0.6-0.9 1.9-2 3-1.1 1.1-2 2.4-2 3 0 0.6-0.9 1.9-2 3-1.1 1.1-2.1 2.6-2 3.3 0 0.6-1 2.4-2.3 4-1.3 1.5-3.1 4.5-4.1 6.7-0.9 2.2-2.3 5.1-2.9 6.5-0.7 1.4-2 3.2-2.9 4-0.9 0.8-1.7 2.9-1.7 4.5 0 1.6-0.7 3.7-1.6 4.5-0.9 0.8-1.6 2.7-1.5 4.3 0 1.5-0.4 2.9-1 3.2-0.6 0.3-1 1.5-1 2.8 0 1.2-0.3 2.6-0.7 3.1-0.4 0.4-1.4 2.5-2 4.5-0.7 2-1.3 4.5-1.3 5.6 0 1.1-0.5 2.6-1.2 3.3-0.8 0.8-1.5 5.3-1.8 11.9-0.3 5.8-0.8 10.7-1.2 10.9-0.5 0.2-0.8 2.5-0.8 5.2 0 2.6-0.4 5.1-1 5.7-0.7 0.6-0.9 4.2-0.6 9.5 0.3 4.7 0.8 11.5 1.1 15.3 0.3 3.7 0.9 6.7 1.5 6.7 0.6 0 1.1 4 1.3 9.4 0.1 6 0.7 10 1.5 10.8 0.7 0.7 1.2 3.2 1.2 5.6 0 2.3 0.4 4.2 1 4.2 0.6 0 1 1.1 1 2.5 0 1.4 0.4 2.7 1 3 0.6 0.3 1 1.6 1 3 0 1.4 0.4 2.7 1 3 0.6 0.3 1 1.3 1 2.3 0 0.9 0.7 3.1 1.5 4.7 0.9 1.6 1.5 3.7 1.5 4.5 0 0.8 0.9 2.4 2 3.5 1.1 1.1 2 2.7 2 3.5 0 0.8 1 3.1 2.2 5 1.3 1.9 3.3 5.5 4.6 8 1.3 2.5 3.6 6.3 5.2 8.5 1.6 2.2 4.9 6.9 7.4 10.5 2.4 3.6 7.2 9.2 10.5 12.5 3.4 3.3 6.1 6.6 6.1 7.3 0 0.6 0.6 1.2 1.3 1.2 0.6 0 5.3 4 10.2 9 4.9 5 9.4 9 10 9 0.6 0 2.4 1.4 4 3.1 1.6 1.7 4.9 3.9 7.3 5 2.3 1 5.4 3.2 7 4.7l2.7 2.8c4.3-5.1 6.2-6.6 7-6.6 0.8 0 1.5-0.6 1.5-1.2 0-0.7 1.4-2.8 3.2-4.5 1.8-1.8 3.9-3.3 4.6-3.3 0.6 0 1.2-0.6 1.2-1.2 0-0.7 7.1-8.4 15.8-17.1 8.6-8.6 16.3-15.7 17-15.7 0.6 0 1.6-0.8 2.1-1.7 0.5-1 4.1-4.9 8-8.8 3.9-3.9 7.1-7.6 7.1-8.2 0-0.7-0.7-1.3-1.5-1.3-0.8 0-2.3-0.4-3.2-0.9-1-0.5-3.2-1.5-4.8-2.2-1.6-0.8-5.1-2.8-7.7-4.6-2.7-1.8-5.5-3.3-6.3-3.3-0.8 0-3.4-1.8-5.7-4-2.4-2.2-7.7-7.3-11.9-11.2-4.2-4-9.9-10.2-12.5-13.8-2.7-3.6-5.4-7.4-6.1-8.5-0.7-1.1-1.7-3.1-2.4-4.5-0.6-1.4-1.5-3.2-2-4-0.5-0.8-1.2-2.2-1.5-3-0.3-0.8-1-2.3-1.5-3.2-0.5-1-0.9-2.4-0.9-3 0-0.7-0.6-2.7-1.5-4.3-0.8-1.6-1.5-5.4-1.5-8.2 0-2.9-0.4-5.5-1-5.8-0.6-0.3-1-6-1-14 0-8.3 0.4-13.5 1-13.5 0.6 0 1-2.9 1-6.7 0.1-4 0.7-7.8 1.5-9.3 0.8-1.4 1.4-3.5 1.5-4.7 0-1.3 0.3-2.3 0.8-2.3 0.4 0 1.5-1.8 2.5-4 0.9-2.2 1.7-4.6 1.7-5.2-0.1-0.7 0.8-2.5 2-4 1.1-1.6 2-3.1 2-3.5 0-0.5 0.9-1.5 2-2.3 1.1-0.8 2-1.9 2-2.5 0-0.6 3.6-4.6 8-9 4.4-4.4 8-8.6 8-9.2 0-0.7 0.6-1.4 1.4-1.5 0.7-0.2 23.6-22.3 50.7-49.2 27.2-26.8 49.7-49.7 50.2-50.7 0.4-1 1.3-1.9 2-1.9 0.6 0 8-6.9 16.3-15.2 8.3-8.4 15.4-16.1 15.8-17 0.3-1 1.5-2.1 2.5-2.5 1.1-0.5 7.2-5.9 13.5-12 6.4-6.2 11.6-11.7 11.6-12.3 0-0.5 0.5-1 1-1 0.5 0 2.2-1.3 3.8-2.8 1.5-1.6 4.2-3.7 6-4.8 1.8-1 3.2-2.2 3.2-2.6 0-0.5 0.6-0.8 1.3-0.8 0.6 0 2.3-1.1 3.7-2.5 1.4-1.4 3.4-2.5 4.5-2.5 1.1 0 2.7-0.9 3.5-2 0.8-1.1 2.5-2 3.8-2 1.2 0 2.4-0.3 2.6-0.7 0.2-0.5 2.4-1.1 5-1.5 2.5-0.5 4.8-1.2 5.1-1.8 0.3-0.5 3-1 6-1 3 0 5.5-0.4 5.5-1 0-0.6 5.3-1 14-1 8.3 0 14.2 0.4 14.5 1 0.3 0.6 2.8 1 5.5 1 2.8 0 5.2 0.5 5.5 1 0.3 0.6 1.4 1 2.5 1 1.1 0 3.7 0.7 5.8 1.6 2 0.9 6 2.7 8.7 4.1 2.8 1.3 6.6 3.3 8.5 4.4 1.9 1.2 4.4 2.9 5.5 4 1.1 1 2.5 1.9 3 1.9 0.5 0 2 1.2 3.3 2.5 1.2 1.4 2.2 3 2.2 3.5 0 0.6 0.6 1 1.3 1 0.6 0 4.2 2.9 8 6.5 3.7 3.6 6.7 6.8 6.7 7.3-0.1 0.4 0.9 1.6 2 2.7 1.1 1.1 2 2.5 2 3 0 0.6 1.1 2.1 2.5 3.5 1.4 1.4 2.5 3.4 2.5 4.5 0 1.1 0.9 2.9 2 4 1.1 1.1 2 2.7 2 3.5-0.1 0.8 0.6 2.2 1.5 3 0.9 0.8 1.6 2.5 1.5 3.8 0 1.2 0.5 2.4 1 2.7 0.5 0.3 1 2.1 1 4 0 1.9 0.9 5.1 2 7 1.8 3.1 2 5.3 2 19.8 0 10.2-0.5 17.6-1.3 19.8-0.6 2-1.6 4.1-2 4.5-0.4 0.5-0.7 1.8-0.7 2.9 0 1.1-0.9 4.5-2.1 7.5-1.1 3-2.3 6.4-2.6 7.5-0.3 1.1-1.3 2.8-2.2 3.9-0.9 1-2.1 2.8-2.8 4-0.7 1.1-1.7 3.1-2.3 4.4-0.5 1.2-2.1 2.9-3.5 3.7-1.4 0.8-2.5 2.1-2.5 2.8 0.1 0.6-13.1 14.6-29.2 31.1-16.1 16.4-29.4 30.4-29.5 31.2-0.2 0.8 0.4 2.9 1.2 4.7 0.9 1.7 1.5 4.2 1.5 5.5 0 1.2 0.5 3.1 1 4.2 0.5 1.1 1.5 2.9 2 4 0.5 1.1 1.3 4.8 1.6 8.3 0.4 3.4 1.5 7.9 2.5 10 1.3 2.5 1.9 5.9 1.9 10.7 0 3.9 0.5 7.2 1 7.5 0.5 0.3 1 2.9 1 5.8 0.1 2.8 0.7 6.3 1.5 7.7 1.1 1.9 1.4 6.5 1.5 18.8 0 9.8-0.4 16.4-1 16.7-0.5 0.3-1 1.9-1 3.5 0 1.6 0.6 3.6 1.3 4.3 0.6 0.8 1.8 1.2 2.5 1 0.6-0.2 1.2-0.9 1.2-1.5 0-0.7 24-25.2 53.3-54.4 29.2-29.2 55.1-55.3 57.4-58 2.3-2.7 4.3-5.3 4.3-5.9 0-0.6 2-3.2 4.3-6 2.3-2.7 5.5-6.8 7-9 1.4-2.2 2.7-4.8 2.7-5.7 0-1 0.5-2 1-2.3 0.5-0.3 3.3-5 6-10.5 2.8-5.5 5-10.6 5-11.2 0-0.7 0.5-2.5 1.2-4 0.7-1.6 1.6-2.8 2.1-2.8 0.4 0 0.7-1.6 0.7-3.5 0-1.9 0.3-3.7 0.8-3.9 0.4-0.2 1-2.4 1.5-5 0.4-2.5 1.2-4.8 1.7-5.1 0.5-0.3 1-3 1-6 0-3 0.5-5.5 1-5.5 0.5 0 1-1.1 1-2.5 0-1.4 0.5-2.5 1-2.5 0.6 0 1-10.5 1-29.5 0-18.7-0.4-29.7-1-30-0.5-0.3-1-1.8-1-3.5 0-1.6-0.5-3.2-1-3.5-0.5-0.3-1-2.5-1-5 0-2.5-0.3-4.7-0.7-4.9-0.5-0.2-1.1-2.7-1.5-5.5-0.5-2.8-1.2-5.9-1.6-6.8-0.5-1-1.4-2.8-2-4-0.7-1.3-1.2-3.2-1.2-4.3 0-1.1-0.5-2-1-2-0.5 0-1-1.3-1-3 0-1.8-0.6-3.2-1.5-3.5-0.8-0.3-1.5-1.4-1.5-2.5 0-1.1-1.6-5-3.6-8.7-2-3.8-4.5-8-5.5-9.5-1.1-1.6-1.9-3-1.9-3.3 0-0.3-2.4-3.9-5.2-8.1-2.9-4.2-5.9-8.5-6.5-9.7-0.7-1.2-2.6-3.5-4.2-5.2-1.7-1.7-5.7-5.8-9.1-9.2-3.3-3.5-6.5-6.3-7-6.3-0.5 0-1-0.4-1-1 0-0.5-1.5-2.6-3.2-4.5-1.8-1.9-3.8-3.5-4.3-3.5-0.5 0-2.9-2.1-5.2-4.5-2.4-2.5-5-4.5-5.8-4.5-0.8 0-1.6-0.4-1.7-0.9-0.2-0.5-2.8-2.9-5.8-5.4-3-2.5-6.6-4.8-8-5.1-1.4-0.3-3.4-1.5-4.5-2.6-1.1-1.1-3-2.1-4.2-2-1.3 0-2.6-0.6-3-1.3-0.5-0.7-3.7-2.7-7.3-4.4-3.6-1.7-8.2-3.8-10.2-4.7-2.1-0.9-5-1.6-6.5-1.6-1.6 0.1-3.7-0.9-4.8-2-1.1-1.1-3.2-2.1-4.7-2-1.6 0-3-0.4-3.3-1-0.3-0.5-1.9-1-3.5-1-1.6 0-3.2-0.4-3.5-1-0.3-0.5-2.2-1.2-4.2-1.5-2.1-0.4-6.9-1-10.8-1.5-3.9-0.6-9.5-1.2-12.5-1.6-3-0.3-6-1-6.5-1.5-0.5-0.5-6.4-0.9-13-0.9-6.7 0-12.5 0.4-13 0.9zm-132.3 272.7c-18.2 18.4-33 33.7-32.8 34.2 0.2 0.4 2.1 1.1 4.2 1.5 2.2 0.5 5.1 1.8 6.7 2.8 1.5 1 3.3 1.9 4 1.9 0.6-0.1 1.9 0.7 2.7 1.6 0.8 0.9 2.4 2.1 3.5 2.6 1.1 0.5 2.9 1.4 4.1 2.1 1.1 0.7 4.7 3.5 7.8 6.2 3.2 2.8 6.8 6 8 7.1 1.1 1.2 4.2 4.5 6.8 7.5 2.5 3 5.6 6.5 6.8 7.9 1.1 1.4 2 3.3 2 4.3 0 0.9 0.9 1.9 2 2.2 1.3 0.3 2 1.3 2 2.8-0.1 1.2 0.9 3.1 2 4.2 1.1 1.1 2.3 3.4 2.7 5 0.3 1.7 1.4 4.5 2.4 6.3 1.1 1.7 1.9 4.7 1.9 6.5 0 1.7 0.4 3.7 1 4.2 0.6 0.6 1.5 6.4 2 13 0.5 7 0.5 16.1 0 22-0.5 5.5-1.4 10.5-2 11-0.6 0.6-1 2.2-1 3.8 0 1.5-0.9 4.3-2 6.2-1.1 1.9-2 4-2 4.5 0 0.6-0.8 2.8-1.7 5-1 2.2-2.1 4-2.5 4-0.5 0-0.8 0.9-0.8 2 0 1.1-0.3 2.1-0.7 2.3-0.5 0.1-2 1.9-3.5 4-1.6 2-2.8 4-2.8 4.5 0 0.4-39 39.5-86.7 86.8-47.8 47.4-90.4 89.6-94.8 93.8-4.4 4.1-8.4 7.6-9 7.6-0.5 0.1-2.6 1.4-4.5 3.1-1.9 1.6-3.9 2.9-4.5 2.9-0.5-0.1-1.7 0.6-2.5 1.5-0.8 0.9-2.2 1.6-3 1.5-0.8 0-2.7 0.5-4.2 1.2-1.6 0.7-2.8 1.6-2.8 2.1 0 0.4-0.9 0.7-2 0.7-1.1 0-2 0.5-2 1 0 0.5-1.6 1-3.5 1-1.9 0-4.9 0.7-6.5 1.5-2.4 1.2-6.6 1.4-21.7 1.2-10.4-0.2-21.3-1-24.3-1.7-3-0.7-6.4-1.6-7.5-2-1.1-0.4-4.6-2-7.7-3.4-3.2-1.4-6-3.1-6.3-3.6-0.3-0.5-1.3-1-2.2-1-1 0.1-2.7-0.9-3.8-2-1.1-1.1-2.4-2-3-2-0.5 0-2.1-1.1-3.5-2.5-1.4-1.4-2.9-2.6-3.5-2.6-0.5 0-5.5-4.6-11-10.3-5.5-5.7-10.6-11.2-11.2-12.2-0.7-1.1-1.9-3.2-2.7-4.9-0.9-1.6-2.5-4-3.6-5.2-1.1-1.3-2-3-2-3.8 0-0.8-0.7-1.7-1.5-2-0.8-0.3-1.5-1.6-1.5-3 0-1.4-0.9-4.1-2-6-1.1-1.9-2-4.4-2-5.5 0-1.1-0.4-2.2-1-2.5-0.5-0.3-1-2.2-1-4.2 0-2.1-0.7-6.3-1.5-9.3-0.8-3-1.5-8.5-1.5-12.2 0-3.8 0.7-9.4 1.5-12.5 0.8-3.2 1.5-7.5 1.5-9.5 0-2.1 0.5-4 1-4.3 0.6-0.3 1-1.5 1-2.7 0-1.3 0.9-3.8 2-5.5 1.1-1.8 2-4.1 2-5-0.1-1 0.6-2.5 1.5-3.3 0.9-0.8 1.6-2.5 1.5-3.7 0-1.3 0.8-2.9 1.9-3.5 1-0.7 2.8-2.9 4-4.8 1.1-1.9 2.4-4.2 2.8-5 0.5-0.8 4.6-5.5 9.3-10.4 4.7-4.9 9.4-9.8 10.6-11 1.1-1.2 10.7-10.5 21.2-20.8 18.6-18.2 19.2-18.9 19.2-22.8 0-2.2-0.9-5.8-2-8-1.1-2.2-2.3-5.9-2.6-8.2-0.3-2.4-0.9-5.2-1.4-6.3-0.4-1.1-1.3-3.2-1.9-4.7-0.6-1.6-1.1-4.9-1.1-7.5 0-2.7-0.3-5.2-0.8-5.8-0.5-0.5-1.4-2.8-2-5-0.6-2.2-1.5-7.8-1.9-12.5-0.4-4.7-0.8-18.7-0.8-31.2v-22.7c-21.6 21.2-47.3 46.8-71.1 70.4-23.7 23.7-45.4 46-48.3 49.8-2.8 3.7-5.1 7-5.1 7.5 0.1 0.4-0.7 1.4-1.6 2.2-0.9 0.8-2.7 3.5-4.1 6-1.3 2.5-3.2 5.9-4.3 7.5-1.1 1.7-2.9 5-4.1 7.5-1.1 2.5-2.7 5.9-3.5 7.5-0.8 1.7-1.4 3.7-1.4 4.5 0 0.8-0.9 2.4-2 3.5-1.2 1.1-2.1 3.3-2.1 5 0 1.7-0.6 3.9-1.4 5-0.9 1.1-1.5 3.5-1.5 5.3 0 1.7-0.4 3.4-1 3.7-0.5 0.3-1 1.6-1 3 0 1.4-0.4 2.7-1 3-0.5 0.3-1 2-1 3.8 0 1.7-0.4 3.7-0.9 4.2-0.5 0.5-1.1 4.2-1.4 8-0.3 3.9-1 9.3-1.6 12-0.5 2.8-1 10.4-1 17 0 6.6 0.5 14.5 1.1 17.5 0.5 3 1.2 8.4 1.5 12 0.2 3.6 0.9 7 1.4 7.5 0.5 0.5 0.9 2.5 0.9 4.3 0 1.7 0.5 3.4 1 3.7 0.6 0.3 1.2 2 1.4 3.8 0.3 1.7 0.9 5.2 1.5 7.7 0.6 2.5 1.5 5 2.1 5.5 0.6 0.5 1 2.1 1 3.5 0 1.4 0.9 3.6 2 5 1.1 1.4 2 3.3 2 4.3 0 0.9 1.1 3.8 2.5 6.5 1.4 2.6 2.5 5.2 2.5 5.7-0.1 0.5 0.5 1.5 1.2 2.1 0.7 0.7 3 4.4 5.1 8.3 2 3.9 4.5 7.9 5.5 8.9 0.9 1 2.4 2.9 3.2 4.1 0.8 1.3 2.7 3.6 4.3 5.2 1.5 1.6 2.7 3.2 2.7 3.7 0 0.4 1.6 2.3 3.5 4.2 2 1.9 4 4.5 4.5 5.8 0.6 1.2 1.9 2.4 3 2.7 1.1 0.3 2 1.1 2 1.8 0 0.6 1.2 2.2 2.5 3.5 1.4 1.2 2.7 2.2 3 2.2 0.3 0 2.1 1.7 4 3.8 2 2 3.5 4 3.5 4.5 0 0.4 0.6 0.7 1.3 0.7 0.6 0 2.8 1.6 4.7 3.5 1.9 1.9 4 3.5 4.5 3.5 0.6 0 2.1 1.1 3.5 2.5 1.4 1.4 2.9 2.5 3.5 2.5 0.6 0 1.9 0.9 3 2 1.1 1.1 2.6 2.1 3.3 2 0.6 0 1.2 0.5 1.2 1 0 0.5 0.8 1.2 1.8 1.5 0.9 0.3 2.7 1.1 3.8 1.8 1.2 0.6 3 2 4 2.9 1.1 1 2.7 1.8 3.7 1.8 0.9 0 3.4 1.1 5.5 2.5 2 1.4 4.6 2.5 5.7 2.5 1.1 0 2.7 0.9 3.5 2 0.8 1.1 2.4 2 3.5 2 1.1 0 3.3 0.6 5 1.5 1.7 0.8 4 1.5 5.3 1.5 1.2 0 2.4 0.3 2.6 0.8 0.2 0.4 1.7 1 3.2 1.3 1.6 0.4 5.4 1.6 8.4 2.8 3 1.2 6.5 2.1 7.8 2.1 1.2 0 4.8 0.7 8 1.5 4.4 1.2 11.8 1.5 32.7 1.5 24.8 0 27.4-0.2 31.5-2.1 2.5-1.1 5.9-1.9 7.5-1.9 1.6 0 4.6-0.5 6.5-1.1 1.9-0.6 4.3-1.5 5.3-2 0.9-0.5 2.6-0.9 3.7-0.9 1.1 0 2-0.5 2-1 0-0.5 1.5-1 3.3-1 1.7 0 4.1-0.6 5.2-1.5 1.1-0.8 3.2-1.5 4.8-1.5 1.5 0 2.8-0.3 3-0.7 0.1-0.5 3.6-2.5 7.7-4.5 4.1-2.1 7.9-3.8 8.5-3.8 0.6 0 1.7-0.9 2.5-2 0.8-1.1 2.4-2 3.5-2 1.1 0 2.7-0.6 3.5-1.4 0.8-0.7 4.5-3.4 8.3-5.9 3.7-2.6 6.9-4.7 7.2-4.7 0.3 0 2-1.4 3.8-3 1.7-1.7 3.5-3.1 4-3 0.4 0 0.7-0.7 0.7-1.5 0-0.8 0.6-1.5 1.3-1.5 0.6 0.1 3.7-2.4 6.7-5.4 3-3 44.3-44.4 91.8-92 47.4-47.6 86.8-87.7 87.5-89.1 0.6-1.4 1.8-2.5 2.5-2.5 0.6 0 1.4-0.9 1.7-2 0.3-1.1 1.5-2.8 2.8-3.7 1.3-1 2.6-2.5 3-3.3 0.4-0.8 2.3-3.5 4.2-6 1.9-2.5 3.9-5.5 4.5-6.7 0.5-1.3 1.5-2.5 2-2.8 0.5-0.3 1-1.3 1-2.2 0-1 0.8-2.7 1.8-3.8 0.9-1.1 2.9-4.5 4.4-7.5 1.4-3 3.2-7 3.9-8.8 0.8-1.7 1.7-3.2 2.2-3.2 0.4 0 0.7-0.8 0.7-1.7 0-1 1-4.3 2.1-7.3 1.2-3 2.3-7.1 2.6-9 0.2-1.9 1.3-5.3 2.3-7.5 1.1-2.2 2.1-6.5 2.3-9.5 0.3-3 1-7.5 1.6-10 0.8-3 1.1-13.2 0.9-31.2-0.2-19.9-0.6-27-1.6-28-0.7-0.7-1.2-3.7-1.2-6.8 0-3.5-0.7-7.1-2-9.7-1.1-2.4-2-5.1-2-6 0-1-0.8-3.9-1.8-6.5-0.9-2.5-2.1-5-2.5-5.5-0.4-0.4-0.7-2.1-0.7-3.8 0-1.8-0.8-3.8-2-5-1.1-1.1-2.1-2.8-2-3.7 0-1-0.7-2.5-1.5-3.3-0.8-0.8-1.5-2.2-1.5-3 0-0.8-1.2-3.4-2.6-5.7-1.4-2.4-3.6-5.9-4.9-7.8-1.2-1.9-3.8-6-5.7-9-2-3-4.6-6.4-5.8-7.5-1.2-1.1-2.5-2.7-2.9-3.7-0.3-0.9-4.5-5.6-9.2-10.5-4.7-4.8-12.4-12.4-17-16.8-4.7-4.4-9.9-9-11.7-10.2-1.8-1.3-3.5-2.3-3.9-2.3-0.5 0.1-1.5-0.7-2.3-1.6-0.8-0.9-3.4-2.9-5.7-4.5-2.4-1.6-4.9-2.8-5.5-2.8-0.7 0.1-16.3 15.2-34.5 33.5z"/><path class="c" d="m599.5 42c-0.3 0.5-2.3 1-4.5 1-2.2 0-4.3 0.5-4.7 1-0.3 0.5-3.6 1-7.2 1-3.8 0-7.4 0.5-8.4 1.2-1.6 1.2 2.6 5.4 39.9 40.3 22.9 21.5 43.8 41 46.5 43.5 2.6 2.5 9.6 9.2 15.6 15 6 5.8 37.3 35.3 69.7 65.5 32.4 30.3 59.2 55.1 59.7 55.3 0.5 0.1 0.9-12.5 0.9-28.3 0-18-0.4-28.7-1-29-0.5-0.3-1-2.1-1-4 0-1.9-0.5-3.5-1-3.5-0.5 0-1-2-1-4.5 0-2.5-0.3-4.7-0.8-4.9-0.4-0.2-1-2.9-1.5-6-0.4-3.1-1.2-5.8-1.7-6.1-0.5-0.3-1-1.6-1-3 0-1.4-0.5-2.5-1-2.5-0.5 0-1-1.1-1-2.5 0-1.4-0.5-2.5-1-2.5-0.5 0-1-1.3-1-3 0-1.8-0.6-3.2-1.5-3.5-0.8-0.3-1.5-1.3-1.5-2.2 0-1-0.5-3-1.2-4.5-0.7-1.6-1.6-2.8-2.1-2.8-0.4 0-0.7-0.7-0.7-1.5 0-0.8-0.8-2.7-1.7-4.2-1-1.6-2-3-2.3-3.3-0.3-0.3-1.2-1.8-2-3.5-0.8-1.6-2.9-5.1-4.7-7.7-1.8-2.7-3.3-5.1-3.3-5.5 0.1-0.5-0.9-1.7-2-2.8-1.1-1.1-2.1-2.4-2-3 0-0.5-1.9-2.9-4.3-5.3-2.3-2.4-7-7.1-10.4-10.5-3.4-3.4-6.2-6.8-6.3-7.4 0-0.7-0.7-1.3-1.5-1.3-0.8 0-2-1.1-2.5-2.5-0.5-1.4-1.6-2.5-2.3-2.5-0.6 0-3.6-2.2-6.5-4.8-2.9-2.6-7.2-6.4-9.5-8.5-2.3-2.1-4.5-3.8-5-3.7-0.4 0-2.2-1.1-4-2.5-1.7-1.3-3.7-2.4-4.2-2.4-0.5 0-1.9-1-3-2.1-1.1-1.1-2.9-2-4-2-1.1 0.1-2.7-0.6-3.5-1.5-0.8-0.9-1.8-1.6-2.3-1.5-0.4 0-3-1.3-5.7-3-2.8-1.6-5.6-3-6.3-3-0.6 0-2.6-0.6-4.2-1.5-1.6-0.8-4.1-1.5-5.5-1.5-1.4 0.1-3.4-0.8-4.5-1.9-1.1-1.2-3.4-2.3-5-2.5-1.6-0.2-6.1-1.2-10-2.1-3.9-1-10.1-1.9-14-2.2-3.9-0.2-7.5-0.9-8-1.4-0.5-0.5-3.1-0.9-5.8-0.9-2.6 0-4.9-0.4-5.2-1-0.3-0.6-5.7-1-13-1-7.2 0-12.6 0.4-13 1zm-553.3 550.3c-0.7 3.4-1.2 11.2-1.1 17.2 0 6.1 0.5 13.3 1 16 0.5 2.8 1.4 8.4 1.9 12.5 0.5 4.1 1.2 9.2 1.5 11.3 0.3 2 0.9 3.9 1.5 4.2 0.5 0.3 1 2.1 1 4 0 1.9 0.4 3.7 1 4 0.5 0.3 1 1.7 1 3.3 0 1.5 0.6 3.6 1.5 4.7 0.8 1.1 1.4 2.9 1.5 4 0 1.1 0.5 3.2 1.2 4.7 0.7 1.6 1.6 2.8 2 2.8 0.5 0 0.8 1 0.8 2.3 0 1.2 1.1 4.1 2.5 6.5 1.4 2.3 2.5 4.8 2.5 5.5 0 0.6 0.9 1.9 2 2.7 1.1 0.8 2 2.5 2 3.8 0 1.2 0.4 2.4 1 2.7 0.5 0.3 1.8 2.2 2.7 4.3 0.9 2 2.5 4.3 3.5 5 1 0.6 1.8 1.9 1.8 2.7 0 0.8 0.4 1.5 1 1.5 0.5 0 1.3 0.8 1.7 1.8 0.4 0.9 1.4 2.4 2.2 3.2 0.9 0.8 2.9 3.3 4.6 5.5 1.6 2.2 3.6 4.7 4.5 5.5 0.9 0.8 1.9 2.3 2.3 3.3 0.4 0.9 1.6 1.9 2.7 2.2 1.1 0.3 2 1 2 1.5 0 0.6 3.3 4.2 7.2 8.1 4 3.9 10.8 10 15 13.5 4.3 3.5 8.1 6.4 8.5 6.4 0.5-0.1 1.7 0.9 2.8 2 1.1 1.1 2.4 2.1 3 2.1 0.5 0 2.5 1.1 4.2 2.4 1.8 1.4 3.6 2.5 4 2.5 0.5-0.1 1.7 0.9 2.8 2 1.1 1.1 2.8 2.1 3.7 2 1 0 3.5 1.1 5.5 2.5 2.1 1.4 4.5 2.6 5.3 2.6 0.8-0.1 2.6 0.8 4 1.9 1.4 1.1 3.1 2 3.7 2 0.7 0 5 1.2 9.5 2.6 4.6 1.5 9.2 3 10.3 3.4 1.1 0.4 3.8 1.3 6 1.8 2.2 0.6 5.3 1.3 7 1.6 1.6 0.2 4.8 0.9 7 1.5 2.4 0.6 15.3 1 31.5 1 19.1 0 28.4-0.4 30.4-1.2l2.9-1.2c-28.5-27.1-53.7-50.9-74.3-70.4-20.6-19.5-44.7-42.5-53.5-51.2-8.8-8.6-28.8-27.7-44.5-42.5-15.7-14.8-34-32.2-40.7-38.6-6.8-6.5-12.7-11.8-13.2-11.8-0.4 0-1.3 2.8-1.9 6.3z"/><path class="d" d="m561.5 49c-0.3 0.5-1.7 1-3.3 1-1.5 0-4.1 0.9-5.7 2-1.6 1.1-4.2 2-5.6 2-1.4 0-3.2 0.7-4 1.5-0.8 0.9-2.2 1.6-3.2 1.5-0.9 0-2.9 0.8-4.5 1.8-1.5 1-4.5 2.6-6.7 3.6-2.2 0.9-5.1 2.3-6.5 2.9-1.4 0.7-3.2 2-4 2.9-0.8 0.9-2.2 1.7-3 1.8-0.8 0-3 1.2-4.8 2.5-1.7 1.4-3.5 2.5-4 2.5-0.4-0.1-1.6 0.9-2.7 2-1.1 1.1-2.4 2-3 2-0.6 0-2.1 1.1-3.5 2.5-1.4 1.4-3.1 2.5-3.8 2.5-0.6 0-1.2 0.7-1.2 1.5 0 0.8-1 1.9-2.3 2.4-1.2 0.5-5.9 4.7-10.5 9.3l-8.4 8.3c47.9 44.9 62.8 58.8 64 59.8 2.1 1.6 2.3 1.6 4.7-0.8 1.4-1.4 2.5-2.9 2.5-3.5 0-0.6 0.5-1 1-1 0.5 0 2.2-1.2 3.8-2.6 1.5-1.4 4.7-3.9 7.2-5.6 2.5-1.8 6-4.4 7.8-6 1.7-1.5 4-2.8 5-2.8 0.9 0 2.6-0.8 3.7-1.8 1.1-1 3.6-2.3 5.5-2.9 1.9-0.7 5.2-1.5 7.4-2 2.1-0.4 4-1.1 4.2-1.5 0.2-0.5 2.6-0.8 5.2-0.8 2.6 0 5.2-0.5 5.7-1 0.6-0.7 6.2-0.9 15-0.6 7.7 0.3 16.5 0.8 19.5 1.1 3 0.4 6 1.1 6.5 1.6 0.5 0.5 1.6 0.9 2.2 0.9 0.7 0 3 0.7 5 1.6 2.1 0.8 6 2.7 8.8 4 2.7 1.4 6.4 3.2 8 4.2 1.6 0.9 3.2 1.9 3.5 2.2 0.3 0.3 1.4 1.1 2.5 1.8 1.1 0.6 3 1.8 4.3 2.5 1.2 0.6 2.2 1.8 2.2 2.5 0 0.6 0.7 1.2 1.5 1.2 0.8 0 1.5 0.7 1.5 1.5 0 0.8 0.8 1.8 1.7 2.1 1 0.4 4.6 3.4 8.1 6.8 3.4 3.3 6.2 6.5 6.2 7.1 0 0.6 0.9 1.9 2 3 1.1 1.1 2.1 2.3 2 2.8 0 0.4 1.1 1.9 2.5 3.5 1.4 1.5 2.5 3.6 2.5 4.7 0 1.1 0.9 2.7 2 3.5 1.1 0.8 2 2.3 2 3.3 0 0.9 0.9 2.9 2 4.5 1.1 1.5 2.3 5.2 2.7 8.2 0.3 3 1.5 7 2.5 8.8 1.6 2.8 1.8 5.6 1.8 21.2 0 11-0.4 18.2-1 18.5-0.5 0.3-1 1.6-1 3 0 1.4-0.3 2.5-0.8 2.5-0.4 0-1 2.3-1.5 5.2-0.4 2.9-1.2 5.7-1.7 6.3-0.6 0.6-1 1.8-1 2.8 0 0.9-0.5 1.7-1 1.7-0.5 0-1 1.1-1 2.5 0 1.4-0.5 2.5-1 2.5-0.5 0-1.7 1.6-2.5 3.5-0.8 1.9-2 3.5-2.5 3.5-0.5 0-1 0.8-1 1.8 0 0.9-1.4 2.7-3 4-1.7 1.2-3 2.8-3 3.5 0 0.6-1.9 3.1-4.3 5.5l-4.2 4.3c10.1 9.6 21.1 20.1 31 29.5 9.9 9.5 21.6 20.6 26 24.8 4.4 4.1 8.2 7.6 8.5 7.6 0.3 0 1.4-0.7 2.6-1.7 1.1-1 3.3-3.6 4.9-5.8 1.7-2.2 4.4-5.4 6.2-7 1.8-1.6 3.3-3.7 3.3-4.5 0-0.8 0.9-2.2 2-3 1.1-0.8 2-1.9 2-2.5 0-0.6 1.1-2.1 2.5-3.5 1.4-1.4 2.5-2.9 2.5-3.5 0-0.6 0.9-1.9 2-3 1.1-1.1 2.1-3 2-4.2 0-1.3 0.7-2.5 1.5-2.8 0.8-0.3 1.5-1.4 1.5-2.5 0-1.1 0.3-2.1 0.7-2.2 0.5-0.2 2.5-3.6 4.5-7.5 2.1-4 3.8-8 3.8-8.8 0-0.8 0.9-3.1 2-5 1.1-1.9 2-4.6 2-6 0-1.4 0.5-2.7 1-3 0.5-0.3 1.2-2.7 1.5-5.5 0.3-2.7 1-5 1.5-5 0.5 0 1-2.5 1-5.5 0-3 0.5-5.7 1-6 0.5-0.3 0.8-0.8 0.6-1.2-0.2-0.5-17.8-17.2-39.2-37.2-21.4-20-41.9-39.4-45.5-43-3.6-3.6-9.7-9.5-13.5-13.1-3.9-3.6-10.4-9.7-14.5-13.5-4.1-3.8-27.9-26.1-52.9-49.5-25-23.4-51.1-47.8-58-54.2-10.5-9.9-13-11.8-15.7-11.8-1.8 0-3.4 0.5-3.8 1zm-467.3 433.8c-1.8 2-3.2 3.8-3.2 3.9 0 0.2-0.8 1.2-1.8 2.2-0.9 1-2.8 3.2-4.2 4.8-1.4 1.7-3.1 3.8-3.8 4.9-0.6 1-1.7 2.9-2.2 4.1-0.6 1.3-1.7 2.5-2.5 2.8-0.8 0.3-1.5 1.4-1.5 2.5 0 1.1-0.5 2-1 2-0.6 0-1 0.6-1 1.2 0.1 0.7-0.6 2-1.5 2.8-0.9 0.8-1.6 2.1-1.5 2.7 0 0.7-0.9 2.3-2 3.5-1.1 1.3-2 3-2.1 3.8 0 0.8-0.6 2.4-1.4 3.5-0.9 1.1-1.5 2.8-1.5 3.7 0 1-0.5 1.8-1 1.8-0.6 0-1 1-1 2.2 0.1 1.3-0.9 3.2-2 4.3-1.2 1.1-2.1 3.3-2.1 5 0 1.6-0.6 3.9-1.4 5-0.9 1.1-1.5 3.5-1.5 5.2 0 1.8-0.5 3.5-1 3.8-0.6 0.3-1 1.6-1 3 0 1.4-0.5 2.7-1 3-0.6 0.3-1.2 2.4-1.5 4.7-0.3 2.4-0.8 6.1-1 8.3-0.4 3.9-0.2 4.2 6.3 9.9 3.7 3.3 14.5 13.4 24.1 22.5 9.6 9.1 21.1 20.2 25.5 24.5 4.5 4.4 42.3 40.4 84.1 80 41.8 39.6 79 75.1 82.8 78.8 4.3 4.4 7.5 6.8 9 6.8 1.2 0 3.8-0.5 5.7-1.1 1.9-0.7 5.8-2 8.5-3.1 2.8-1 5.9-1.8 7-1.9 1.1 0 2.9-0.6 4-1.4 1.1-0.9 2.8-1.5 3.8-1.5 0.9 0 5.6-2 10.5-4.5 4.8-2.5 9.1-4.5 9.7-4.5 0.6 0 1.7-0.9 2.5-2 0.8-1.1 2.4-2 3.5-2 1.1 0 2.7-0.6 3.5-1.4 0.8-0.7 4.5-3.4 8.3-5.9 3.7-2.6 6.9-4.7 7.2-4.7 0.3 0 1.9-1.2 3.6-2.8 1.7-1.5 6.7-6.2 11.2-10.4l8.2-7.7c-14.7-14.5-27.6-26.7-38-36.6-10.4-9.8-20.6-19.4-22.5-21.3-2.6-2.5-3.9-3.2-5.2-2.5-0.9 0.4-3.8 2.8-6.5 5.3-2.7 2.5-6.9 5.9-9.3 7.5-2.4 1.6-5.3 3.5-6.4 4.2-1.2 0.7-3.2 1.7-4.6 2.3-1.4 0.7-5.2 2.5-8.5 4.1-3.3 1.6-7.1 2.9-8.5 2.9-1.4 0-3.9 0.7-5.5 1.5-2.4 1.3-6.9 1.6-22.2 1.5-11.9 0-19.5-0.4-19.8-1-0.3-0.5-2.6-1.3-5.2-1.6-2.7-0.3-5.7-0.9-6.8-1.4-1.1-0.4-4.6-2-7.7-3.4-3.2-1.4-6-3.1-6.3-3.6-0.3-0.5-1.4-1-2.5-1-1.1 0-2.6-0.6-3.2-1.2-0.7-0.7-3.5-2.9-6.3-4.8-2.7-1.9-9.7-8.3-15.5-14.1-5.8-5.8-11-11.5-11.7-12.5-0.7-1-2.5-4.1-4-6.7-1.5-2.6-3.1-4.7-3.5-4.7-0.5 0-0.8-0.6-0.8-1.2 0.1-0.7-0.6-2-1.5-2.8-0.9-0.8-1.6-2.3-1.5-3.2 0-1-0.9-3.7-2-6-1.1-2.4-2-5.1-2-6 0-1-0.4-2-1-2.3-0.6-0.3-1-2.6-1-5.2 0-2.7-0.4-5.3-1-5.8-0.7-0.6-0.9-6.6-0.6-16.5 0.2-8.5 0.7-17.5 1.1-20 0.4-2.5 1.1-5 1.6-5.5 0.5-0.5 0.9-2 0.9-3.2 0-1.3 0.9-3.9 2-5.8 1.1-1.9 2-4.4 2-5.5 0-1.1 0.7-2.2 1.5-2.5 0.8-0.3 1.5-1.5 1.5-2.7-0.1-1.3 0.7-3 1.6-3.8 0.9-0.8 2.9-3.4 4.5-5.7 1.6-2.4 2.9-4.8 2.9-5.3 0-0.5 0.4-1.1 0.8-1.2 0.4-0.2 2-1.9 3.5-3.8l2.7-3.5c-23.6-22.4-38.1-36.1-47.3-44.9-9.3-8.9-17.2-16.2-17.6-16.3-0.3-0.2-2.1 1.4-3.9 3.5z"/><path class="e" d="m431.5 145.3c-20.9 21-38.4 38.8-38.8 39.4-0.5 0.9 10.2 11.4 31 30.9 17.5 16.3 32.5 29.9 33.3 30.2 1 0.3 5.5-3.5 12.3-10.4 6-6 11.3-11.9 11.8-13.2 0.5-1.2 1.7-2.5 2.6-2.8 1-0.4 8.2-7 16.1-14.8 7.9-7.7 14.8-15.1 15.3-16.4 0.5-1.2 1.7-2.5 2.6-2.9 1-0.3 5.3-4.3 9.6-8.7l7.9-8.1c-13.7-13-28.4-26.8-41.5-39.1-13-12.3-23.8-22.4-24-22.3-0.1 0-17.3 17.2-38.2 38.2zm229.9 188.7c-13.1 13.3-24 24.8-24.2 25.6-0.1 0.7 0.5 2.9 1.3 4.6 0.9 1.8 1.5 4.3 1.5 5.5 0 1.3 0.5 2.5 1 2.8 0.5 0.3 1 1.5 1 2.7 0 1.3 0.4 2.7 1 3.3 0.5 0.6 1.3 3.9 1.6 7.5 0.4 3.6 1.6 8 2.6 9.8 1.3 2.3 1.8 5.3 1.8 10.7 0 4.3 0.4 7.5 1 7.5 0.6 0 1 2.6 1 5.8 0 3.1 0.6 7.1 1.4 8.7 0.8 1.6 5.7 6.9 11 11.8l9.6 8.7c30.6-29.4 47.4-45.9 57-55.7 9.6-9.9 18.3-18.8 19.3-19.8 1.7-1.9 1.2-2.5-20-22.4-12-11.2-25.6-24-30.3-28.5-4.7-4.5-9.7-9.1-11.1-10.4l-2.5-2.3zm-523.3 104.7c-21 21.1-38.2 38.5-38.2 38.8 0 0.3 7.3 7.6 16.3 16.3 8.9 8.7 23.2 22.5 31.7 30.5 8.6 8.1 16 14.7 16.5 14.7 0.6 0.1 2.9-2.1 5.3-4.7 2.3-2.6 5.2-5.9 6.5-7.2 1.2-1.3 10.4-10.5 20.5-20.5 17.6-17.5 18.2-18.2 18.2-22.1 0-2.2-0.8-5.3-1.8-7-1-1.6-2.2-5.2-2.6-8-0.3-2.7-1.2-6.6-1.9-8.6-0.6-2-1.5-4.1-1.9-4.5-0.5-0.5-0.8-3.1-0.8-5.9 0.1-2.7-0.3-5.4-0.7-5.9-0.4-0.4-1.3-2.4-2-4.5-0.7-2-1.2-6.4-1.3-9.8v-6.3c-17.2-16.7-23-22-23.9-22.6-1.5-0.9-7.4 4.6-39.9 37.3zm214.1 204.8l-38.3 38.5c5.1 5.1 19.5 18.8 35.3 33.8 15.8 15 29.1 27.2 29.5 27.2 0.4 0 17.9-17.2 39-38.2 21-21.1 38.3-38.5 38.3-38.8 0-0.3-14.2-14-31.6-30.5-17.3-16.5-32.1-30.1-32.8-30.3-0.6-0.1-18.4 17.1-39.4 38.3z"/><path class="f" d="m353 223.7c-20.6 20.6-37.3 38.2-37.2 38.9 0.1 0.8 1.2 1.8 2.5 2.3 1.2 0.5 8.5 7.3 16.2 15 7.7 7.8 14.4 14.1 15 14.1 0.6 0 7.3 6.3 15 14 8.7 8.7 14.8 14 16 14 1.3 0 15-13 39-37l37-37c-3.9-3.6-12.4-11.6-21.5-20.1-9.1-8.4-22.9-21.3-30.6-28.6l-14.1-13.3zm-163.4 163.8l-11.6 11.6c16.4 15.9 21.8 20.8 22.6 21.2 0.9 0.5 1.4 0.3 1.4-0.7 0-0.8-0.4-1.7-1-2-0.6-0.3-1-6.7-1-16 0-8.5 0.5-16.4 1-17.5 0.6-1.1 0.8-3.4 0.6-5.1-0.4-3-0.5-2.9-12 8.5zm240.4 177.8c-20.6 20.5-37.4 37.5-37.3 37.8 0.2 0.3 11.2 10.8 24.5 23.5 13.4 12.6 27.9 26.5 32.3 30.7l8 7.8c57.4-57.4 74.1-74.7 74.3-75.5 0.1-0.9-0.4-1.5-1-1.5-0.7 0-8.9-7.7-18.3-17-9.3-9.4-17.4-17-18-17-0.5 0-6.9-5.9-14-13l-13-13z"/></svg>